{
.appVersion = "895";
DisplayStrings = (
"/tan-georgian",
"/tan-georgian/emdash/endash -/man-georgian"
);
date = "2016-03-30 10:03:54 +0000";
familyName = "new Font";
fontMaster = (
{
alignmentZones = (
"{710, 12}",
"{690, 12}",
"{350, 12}",
"{0, -12}",
"{-360, -12}"
);
ascender = 710;
capHeight = 690;
descender = -360;
guideLines = (
{
locked = 1;
position = "{196, 90}";
},
{
locked = 1;
position = "{424, -383}";
},
{
locked = 1;
position = "{264, 132}";
}
);
id = "9F5B1694-2A59-45B7-91CA-438A6316E2AD";
userData = {
GSOffsetHorizontal = 3;
GSOffsetVertical = 3;
};
xHeight = 350;
}
);
glyphs = (
{
glyphname = d;
lastChange = "2016-04-22 13:11:00 +0000";
layers = (
{
layerId = "9F5B1694-2A59-45B7-91CA-438A6316E2AD";
paths = (
{
closed = 1;
nodes = (
"40 73 OFFCURVE",
"107 -11 OFFCURVE",
"207 -11 CURVE SMOOTH",
"257 -11 OFFCURVE",
"299 9 OFFCURVE",
"326 48 CURVE",
"328 48 LINE",
"333 0 LINE",
"384 0 LINE",
"384 710 LINE",
"328 710 LINE",
"328 303 LINE",
"326 303 LINE",
"299 342 OFFCURVE",
"257 362 OFFCURVE",
"207 362 CURVE SMOOTH",
"107 362 OFFCURVE",
"40 279 OFFCURVE",
"40 176 CURVE SMOOTH"
);
},
{
closed = 1;
nodes = (
"101 266 OFFCURVE",
"147 316 OFFCURVE",
"214 316 CURVE SMOOTH",
"280 316 OFFCURVE",
"328 266 OFFCURVE",
"328 176 CURVE SMOOTH",
"328 86 OFFCURVE",
"280 35 OFFCURVE",
"214 35 CURVE SMOOTH",
"147 35 OFFCURVE",
"100 86 OFFCURVE",
"100 176 CURVE SMOOTH"
);
}
);
width = 454;
}
);
unicode = 0064;
},
{
color = 3;
glyphname = "an-georgian";
lastChange = "2016-05-17 19:16:17 +0000";
layers = (
{
background = {
paths = (
{
closed = 1;
nodes = (
"314 77 OFFCURVE",
"276 34 OFFCURVE",
"210 34 CURVE SMOOTH",
"137 34 OFFCURVE",
"82 90 OFFCURVE",
"72 157 CURVE",
"40 147 LINE",
"40 32 OFFCURVE",
"129 -12 OFFCURVE",
"210 -12 CURVE SMOOTH",
"320 -12 OFFCURVE",
"370 63 OFFCURVE",
"370 149 CURVE SMOOTH",
"370 247 OFFCURVE",
"296 293 OFFCURVE",
"240 305 CURVE SMOOTH",
"188 316 OFFCURVE",
"156 322 OFFCURVE",
"138 371 CURVE",
"106 365 LINE",
"106 339 OFFCURVE",
"118 312 OFFCURVE",
"151 292 CURVE SMOOTH",
"188 269 OFFCURVE",
"314 258 OFFCURVE",
"314 149 CURVE SMOOTH"
);
}
);
};
backgroundImage = {
crop = "{{0, 0}, {280.80000000000001, 132}}";
imagePath = venuri_symb/01_an.jpg;
locked = "1";
transform = "{7, 0, 0, 7, -1165, -90}";
};
layerId = "9F5B1694-2A59-45B7-91CA-438A6316E2AD";
paths = (
{
closed = 1;
nodes = (
"46 53 OFFCURVE",
"98 -12 OFFCURVE",
"200 -12 CURVE SMOOTH",
"310 -12 OFFCURVE",
"370 63 OFFCURVE",
"370 145 CURVE SMOOTH",
"370 238 OFFCURVE",
"317 272 OFFCURVE",
"265 296 CURVE SMOOTH",
"224 315 OFFCURVE",
"183 323 OFFCURVE",
"169 374 CURVE",
"121 365 LINE",
"133 296 OFFCURVE",
"181 281 OFFCURVE",
"226 261 CURVE SMOOTH",
"272 241 OFFCURVE",
"314 217 OFFCURVE",
"314 141 CURVE SMOOTH",
"314 77 OFFCURVE",
"266 34 OFFCURVE",
"200 34 CURVE SMOOTH",
"135 34 OFFCURVE",
"95 76 OFFCURVE",
"82 146 CURVE",
"35 131 LINE"
);
}
);
width = 410;
},
{
associatedMasterId = "9F5B1694-2A59-45B7-91CA-438A6316E2AD";
backgroundImage = {
crop = "{{0, 0}, {280.80000000000001, 132}}";
imagePath = venuri_symb/01_an.jpg;
locked = "1";
transform = "{7, 0, 0, 7, -1165, -90}";
};
layerId = "8064EF90-7A68-40F6-94E8-EECBA708153A";
name = "Regular May 10 16, 12:51";
paths = (
{
closed = 1;
nodes = (
"314 77 OFFCURVE",
"276 34 OFFCURVE",
"210 34 CURVE SMOOTH",
"137 34 OFFCURVE",
"82 90 OFFCURVE",
"72 157 CURVE",
"40 147 LINE",
"40 32 OFFCURVE",
"129 -12 OFFCURVE",
"210 -12 CURVE SMOOTH",
"320 -12 OFFCURVE",
"370 63 OFFCURVE",
"370 149 CURVE SMOOTH",
"370 247 OFFCURVE",
"296 293 OFFCURVE",
"240 305 CURVE SMOOTH",
"188 316 OFFCURVE",
"156 322 OFFCURVE",
"138 371 CURVE",
"106 365 LINE",
"106 339 OFFCURVE",
"118 312 OFFCURVE",
"151 292 CURVE SMOOTH",
"188 269 OFFCURVE",
"314 258 OFFCURVE",
"314 149 CURVE SMOOTH"
);
}
);
width = 410;
}
);
unicode = 10D0;
},
{
glyphname = "ban-georgian";
lastChange = "2016-05-17 22:01:47 +0000";
layers = (
{
backgroundImage = {
crop = "{{0, 0}, {353.51999999999998, 193.91999999999999}}";
imagePath = venuri_symb/02_ban.jpg;
locked = "1";
transform = "{7, 0, 0, 7, -730, -496}";
};
layerId = "9F5B1694-2A59-45B7-91CA-438A6316E2AD";
paths = (
{
closed = 1;
nodes = (
"87 493 LINE",
"91 545 OFFCURVE",
"91 609 OFFCURVE",
"91 643 CURVE",
"95 643 LINE",
"186 586 LINE SMOOTH",
"211 570 OFFCURVE",
"235 555 OFFCURVE",
"235 518 CURVE",
"235 409 LINE",
"188 385 OFFCURVE",
"47 320 OFFCURVE",
"47 187 CURVE SMOOTH",
"47 39 OFFCURVE",
"160 -12 OFFCURVE",
"243 -12 CURVE SMOOTH",
"326 -12 OFFCURVE",
"439 29 OFFCURVE",
"439 187 CURVE SMOOTH",
"439 320 OFFCURVE",
"303 387 OFFCURVE",
"293 395 CURVE",
"293 523 LINE",
"293 589 OFFCURVE",
"241 614 OFFCURVE",
"208 634 CURVE SMOOTH",
"80 710 LINE",
"44 710 LINE",
"44 642 OFFCURVE",
"42 561 OFFCURVE",
"36 493 CURVE"
);
},
{
closed = 1;
nodes = (
"107 304 OFFCURVE",
"230 351 OFFCURVE",
"251 363 CURVE",
"270 350 OFFCURVE",
"379 294 OFFCURVE",
"379 186 CURVE SMOOTH",
"379 62 OFFCURVE",
"298 34 OFFCURVE",
"243 34 CURVE SMOOTH",
"188 34 OFFCURVE",
"107 72 OFFCURVE",
"107 186 CURVE SMOOTH"
);
}
);
width = 479;
},
{
associatedMasterId = "9F5B1694-2A59-45B7-91CA-438A6316E2AD";
backgroundImage = {
crop = "{{0, 0}, {353.51999999999998, 193.91999999999999}}";
imagePath = venuri_symb/02_ban.jpg;
locked = "1";
transform = "{7, 0, 0, 7, -730, -496}";
};
layerId = "BE4E6F41-25B6-45CE-A518-C00EE043A499";
name = "Regular Apr 12 16, 20:54";
paths = (
{
closed = 1;
nodes = (
"71 505 LINE",
"75 557 OFFCURVE",
"78 606 OFFCURVE",
"75 640 CURVE",
"77 641 LINE",
"106 617 OFFCURVE",
"134 600 OFFCURVE",
"170 584 CURVE SMOOTH",
"199 571 OFFCURVE",
"218 553 OFFCURVE",
"219 530 CURVE SMOOTH",
"221 490 OFFCURVE",
"224 449 OFFCURVE",
"229 409 CURVE",
"189 385 OFFCURVE",
"43 320 OFFCURVE",
"43 187 CURVE SMOOTH",
"43 39 OFFCURVE",
"156 -12 OFFCURVE",
"239 -12 CURVE SMOOTH",
"322 -12 OFFCURVE",
"435 29 OFFCURVE",
"435 187 CURVE SMOOTH",
"435 320 OFFCURVE",
"297 387 OFFCURVE",
"287 395 CURVE",
"283 442 OFFCURVE",
"280 490 OFFCURVE",
"277 537 CURVE SMOOTH",
"274 589 OFFCURVE",
"242 610 OFFCURVE",
"192 634 CURVE SMOOTH",
"136 661 OFFCURVE",
"81 700 OFFCURVE",
"45 722 CURVE",
"29 722 LINE",
"29 654 OFFCURVE",
"26 573 OFFCURVE",
"20 505 CURVE"
);
},
{
closed = 1;
nodes = (
"103 304 OFFCURVE",
"222 351 OFFCURVE",
"243 363 CURVE",
"259 352 OFFCURVE",
"375 304 OFFCURVE",
"375 186 CURVE SMOOTH",
"375 62 OFFCURVE",
"294 34 OFFCURVE",
"239 34 CURVE SMOOTH",
"184 34 OFFCURVE",
"103 72 OFFCURVE",
"103 186 CURVE SMOOTH"
);
}
);
width = 465;
}
);
unicode = 10D1;
},
{
color = 3;
glyphname = "gan-georgian";
lastChange = "2016-05-17 22:01:38 +0000";
layers = (
{
background = {
paths = (
{
closed = 0;
nodes = (
"268 32 LINE",
"238 12 OFFCURVE",
"103 -37 OFFCURVE",
"103 -169 CURVE",
"103 -293 OFFCURVE",
"202 -337 OFFCURVE",
"264 -337 CURVE SMOOTH",
"325 -337 OFFCURVE",
"425 -293 OFFCURVE",
"425 -169 CURVE",
"425 -52 OFFCURVE",
"316 14 OFFCURVE",
"308 21 CURVE"
);
}
);
};
backgroundImage = {
crop = "{{0, 0}, {248.39999999999998, 133.44}}";
imagePath = venuri_symb/03_gan.jpg;
locked = "1";
transform = "{7, 0, 0, 7, -804, -442}";
};
layerId = "9F5B1694-2A59-45B7-91CA-438A6316E2AD";
paths = (
{
closed = 1;
nodes = (
"357 -372 OFFCURVE",
"485 -315 OFFCURVE",
"485 -157 CURVE",
"485 -9 OFFCURVE",
"335 66 OFFCURVE",
"325 74 CURVE",
"325 229 LINE",
"325 301 OFFCURVE",
"271 362 OFFCURVE",
"182 362 CURVE SMOOTH",
"105 362 OFFCURVE",
"30 311 OFFCURVE",
"30 223 CURVE",
"30 163 OFFCURVE",
"59 123 OFFCURVE",
"76 108 CURVE",
"118 129 LINE",
"97 157 OFFCURVE",
"86 187 OFFCURVE",
"86 223 CURVE SMOOTH",
"86 268 OFFCURVE",
"113 316 OFFCURVE",
"180 316 CURVE SMOOTH",
"233 316 OFFCURVE",
"269 284 OFFCURVE",
"269 211 CURVE SMOOTH",
"269 88 LINE",
"229 64 OFFCURVE",
"43 11 OFFCURVE",
"43 -157 CURVE",
"43 -315 OFFCURVE",
"171 -372 OFFCURVE",
"264 -372 CURVE SMOOTH"
);
},
{
closed = 1;
nodes = (
"199 -326 OFFCURVE",
"103 -282 OFFCURVE",
"103 -158 CURVE",
"103 -17 OFFCURVE",
"267 30 OFFCURVE",
"288 42 CURVE",
"306 27 OFFCURVE",
"425 -41 OFFCURVE",
"425 -158 CURVE",
"425 -282 OFFCURVE",
"328 -326 OFFCURVE",
"264 -326 CURVE SMOOTH"
);
}
);
width = 515;
}
);
unicode = 10D2;
},
{
glyphname = "don-georgian";
lastChange = "2016-05-17 19:10:56 +0000";
layers = (
{
background = {
paths = (
{
closed = 1;
nodes = (
"40 -17 OFFCURVE",
"143 -122 OFFCURVE",
"228 -180 CURVE",
"204 -182 OFFCURVE",
"176 -190 OFFCURVE",
"151 -198 CURVE",
"153 -254 LINE",
"189 -243 OFFCURVE",
"226 -237 OFFCURVE",
"264 -237 CURVE SMOOTH",
"376 -237 OFFCURVE",
"491 -290 OFFCURVE",
"569 -383 CURVE",
"610 -337 LINE",
"547 -258 OFFCURVE",
"452 -217 OFFCURVE",
"369 -193 CURVE SMOOTH",
"256 -160 OFFCURVE",
"100 -48 OFFCURVE",
"100 154 CURVE SMOOTH",
"100 245 OFFCURVE",
"137 316 OFFCURVE",
"204 316 CURVE SMOOTH",
"256 316 OFFCURVE",
"294 287 OFFCURVE",
"317 257 CURVE",
"307 233 OFFCURVE",
"302 205 OFFCURVE",
"302 175 CURVE SMOOTH",
"302 72 OFFCURVE",
"369 -12 OFFCURVE",
"476 -12 CURVE SMOOTH",
"583 -12 OFFCURVE",
"650 72 OFFCURVE",
"650 175 CURVE SMOOTH",
"650 284 OFFCURVE",
"581 362 OFFCURVE",
"476 362 CURVE SMOOTH",
"417 362 OFFCURVE",
"370 337 OFFCURVE",
"340 297 CURVE",
"338 297 LINE",
"308 332 OFFCURVE",
"263 362 OFFCURVE",
"197 362 CURVE SMOOTH",
"97 362 OFFCURVE",
"40 258 OFFCURVE",
"40 155 CURVE SMOOTH"
);
},
{
closed = 1;
nodes = (
"590 88 OFFCURVE",
"543 34 OFFCURVE",
"476 34 CURVE SMOOTH",
"409 34 OFFCURVE",
"362 88 OFFCURVE",
"362 174 CURVE SMOOTH",
"362 265 OFFCURVE",
"409 316 OFFCURVE",
"476 316 CURVE SMOOTH",
"543 316 OFFCURVE",
"590 265 OFFCURVE",
"590 174 CURVE SMOOTH"
);
}
);
};
backgroundImage = {
crop = "{{0, 0}, {273.36000000000001, 134.40000000000001}}";
imagePath = venuri_symb/04_don.jpg;
locked = "1";
transform = "{7, 0, 0, 7, -1235, -449}";
};
layerId = "9F5B1694-2A59-45B7-91CA-438A6316E2AD";
paths = (
{
closed = 1;
nodes = (
"40 -13 OFFCURVE",
"132 -139 OFFCURVE",
"248 -187 CURVE",
"248 -189 LINE",
"221 -189 OFFCURVE",
"174 -195 OFFCURVE",
"149 -201 CURVE",
"149 -255 LINE",
"185 -244 OFFCURVE",
"226 -234 OFFCURVE",
"279 -234 CURVE SMOOTH",
"376 -234 OFFCURVE",
"493 -277 OFFCURVE",
"559 -372 CURVE",
"603 -340 LINE",
"527 -234 OFFCURVE",
"431 -212 OFFCURVE",
"333 -177 CURVE SMOOTH",
"223 -138 OFFCURVE",
"100 -46 OFFCURVE",
"100 155 CURVE SMOOTH",
"100 252 OFFCURVE",
"149 316 OFFCURVE",
"216 316 CURVE SMOOTH",
"261 316 OFFCURVE",
"294 287 OFFCURVE",
"317 257 CURVE",
"307 233 OFFCURVE",
"302 205 OFFCURVE",
"302 175 CURVE SMOOTH",
"302 72 OFFCURVE",
"369 -12 OFFCURVE",
"476 -12 CURVE SMOOTH",
"583 -12 OFFCURVE",
"650 72 OFFCURVE",
"650 175 CURVE SMOOTH",
"650 284 OFFCURVE",
"581 362 OFFCURVE",
"476 362 CURVE SMOOTH",
"417 362 OFFCURVE",
"370 337 OFFCURVE",
"340 297 CURVE",
"338 297 LINE",
"308 332 OFFCURVE",
"275 362 OFFCURVE",
"213 362 CURVE SMOOTH",
"109 362 OFFCURVE",
"40 270 OFFCURVE",
"40 156 CURVE SMOOTH"
);
},
{
closed = 1;
nodes = (
"590 88 OFFCURVE",
"543 34 OFFCURVE",
"476 34 CURVE SMOOTH",
"409 34 OFFCURVE",
"362 88 OFFCURVE",
"362 174 CURVE SMOOTH",
"362 265 OFFCURVE",
"409 316 OFFCURVE",
"476 316 CURVE SMOOTH",
"543 316 OFFCURVE",
"590 265 OFFCURVE",
"590 174 CURVE SMOOTH"
);
}
);
width = 690;
},
{
associatedMasterId = "9F5B1694-2A59-45B7-91CA-438A6316E2AD";
backgroundImage = {
crop = "{{0, 0}, {273.36000000000001, 134.40000000000001}}";
imagePath = venuri_symb/04_don.jpg;
locked = "1";
transform = "{7, 0, 0, 7, -1245, -449}";
};
layerId = "1887399E-8B16-45FF-AE41-F931C3BF95A9";
name = "Regular Apr 10 16, 20:59";
paths = (
{
closed = 1;
nodes = (
"321 315 OFFCURVE",
"271 362 OFFCURVE",
"187 362 CURVE SMOOTH",
"87 362 OFFCURVE",
"30 258 OFFCURVE",
"30 155 CURVE SMOOTH",
"30 -80 OFFCURVE",
"224 -193 OFFCURVE",
"300 -225 CURVE",
"331 -190 LINE",
"286 -164 OFFCURVE",
"90 -70 OFFCURVE",
"90 154 CURVE SMOOTH",
"90 245 OFFCURVE",
"127 316 OFFCURVE",
"194 316 CURVE SMOOTH",
"260 316 OFFCURVE",
"303 270 OFFCURVE",
"323 234 CURVE",
"350 268 LINE"
);
},
{
closed = 1;
nodes = (
"640 284 OFFCURVE",
"571 362 OFFCURVE",
"466 362 CURVE",
"359 362 OFFCURVE",
"292 281 OFFCURVE",
"292 175 CURVE SMOOTH",
"292 72 OFFCURVE",
"359 -12 OFFCURVE",
"466 -12 CURVE",
"573 -12 OFFCURVE",
"640 72 OFFCURVE",
"640 175 CURVE SMOOTH"
);
},
{
closed = 1;
nodes = (
"580 88 OFFCURVE",
"533 34 OFFCURVE",
"466 34 CURVE SMOOTH",
"399 34 OFFCURVE",
"352 88 OFFCURVE",
"352 174 CURVE SMOOTH",
"352 265 OFFCURVE",
"399 316 OFFCURVE",
"466 316 CURVE SMOOTH",
"533 316 OFFCURVE",
"580 265 OFFCURVE",
"580 174 CURVE SMOOTH"
);
},
{
closed = 1;
nodes = (
"178 -243 OFFCURVE",
"216 -237 OFFCURVE",
"254 -237 CURVE SMOOTH",
"366 -237 OFFCURVE",
"481 -286 OFFCURVE",
"559 -379 CURVE",
"597 -336 LINE",
"527 -248 OFFCURVE",
"410 -178 OFFCURVE",
"272 -178 CURVE SMOOTH",
"230 -178 OFFCURVE",
"189 -180 OFFCURVE",
"145 -194 CURVE",
"142 -254 LINE"
);
}
);
width = 660;
},
{
associatedMasterId = "9F5B1694-2A59-45B7-91CA-438A6316E2AD";
background = {
paths = (
{
closed = 1;
nodes = (
"30 -17 OFFCURVE",
"133 -122 OFFCURVE",
"218 -180 CURVE",
"194 -182 OFFCURVE",
"166 -190 OFFCURVE",
"141 -198 CURVE",
"143 -254 LINE",
"179 -243 OFFCURVE",
"216 -237 OFFCURVE",
"254 -237 CURVE SMOOTH",
"366 -237 OFFCURVE",
"481 -290 OFFCURVE",
"559 -383 CURVE",
"600 -337 LINE",
"537 -258 OFFCURVE",
"442 -217 OFFCURVE",
"359 -193 CURVE SMOOTH",
"246 -160 OFFCURVE",
"90 -48 OFFCURVE",
"90 154 CURVE SMOOTH",
"90 245 OFFCURVE",
"127 316 OFFCURVE",
"194 316 CURVE SMOOTH",
"246 316 OFFCURVE",
"284 287 OFFCURVE",
"307 257 CURVE",
"297 233 OFFCURVE",
"292 205 OFFCURVE",
"292 175 CURVE SMOOTH",
"292 72 OFFCURVE",
"359 -12 OFFCURVE",
"466 -12 CURVE SMOOTH",
"573 -12 OFFCURVE",
"640 72 OFFCURVE",
"640 175 CURVE SMOOTH",
"640 284 OFFCURVE",
"571 362 OFFCURVE",
"466 362 CURVE SMOOTH",
"407 362 OFFCURVE",
"360 337 OFFCURVE",
"330 297 CURVE",
"328 297 LINE",
"298 332 OFFCURVE",
"253 362 OFFCURVE",
"187 362 CURVE SMOOTH",
"87 362 OFFCURVE",
"30 258 OFFCURVE",
"30 155 CURVE SMOOTH"
);
},
{
closed = 1;
nodes = (
"580 88 OFFCURVE",
"533 34 OFFCURVE",
"466 34 CURVE SMOOTH",
"399 34 OFFCURVE",
"352 88 OFFCURVE",
"352 174 CURVE SMOOTH",
"352 265 OFFCURVE",
"399 316 OFFCURVE",
"466 316 CURVE SMOOTH",
"533 316 OFFCURVE",
"580 265 OFFCURVE",
"580 174 CURVE SMOOTH"
);
}
);
};
backgroundImage = {
crop = "{{0, 0}, {273.36000000000001, 134.40000000000001}}";
imagePath = venuri_symb/04_don.jpg;
locked = "1";
transform = "{7, 0, 0, 7, -1245, -449}";
};
layerId = "412CFA4C-2F47-45DE-B39D-D1B4B474D3C2";
name = "Regular Apr 12 16, 20:41";
paths = (
{
closed = 1;
nodes = (
"30 -14 OFFCURVE",
"133 -121 OFFCURVE",
"218 -179 CURVE",
"218 -181 LINE",
"194 -183 OFFCURVE",
"166 -190 OFFCURVE",
"141 -198 CURVE",
"143 -254 LINE",
"179 -243 OFFCURVE",
"216 -237 OFFCURVE",
"254 -237 CURVE SMOOTH",
"366 -237 OFFCURVE",
"481 -290 OFFCURVE",
"559 -383 CURVE",
"600 -337 LINE",
"537 -258 OFFCURVE",
"442 -217 OFFCURVE",
"359 -193 CURVE SMOOTH",
"246 -160 OFFCURVE",
"90 -48 OFFCURVE",
"90 154 CURVE SMOOTH",
"90 247 OFFCURVE",
"139 316 OFFCURVE",
"206 316 CURVE SMOOTH",
"258 316 OFFCURVE",
"284 287 OFFCURVE",
"307 257 CURVE",
"297 233 OFFCURVE",
"292 205 OFFCURVE",
"292 175 CURVE SMOOTH",
"292 72 OFFCURVE",
"359 -12 OFFCURVE",
"466 -12 CURVE SMOOTH",
"573 -12 OFFCURVE",
"640 72 OFFCURVE",
"640 175 CURVE SMOOTH",
"640 284 OFFCURVE",
"571 362 OFFCURVE",
"466 362 CURVE SMOOTH",
"407 362 OFFCURVE",
"360 337 OFFCURVE",
"330 297 CURVE",
"328 297 LINE",
"298 332 OFFCURVE",
"265 362 OFFCURVE",
"199 362 CURVE SMOOTH",
"99 362 OFFCURVE",
"30 258 OFFCURVE",
"30 155 CURVE SMOOTH"
);
},
{
closed = 1;
nodes = (
"580 88 OFFCURVE",
"533 34 OFFCURVE",
"466 34 CURVE SMOOTH",
"399 34 OFFCURVE",
"352 88 OFFCURVE",
"352 174 CURVE SMOOTH",
"352 265 OFFCURVE",
"399 316 OFFCURVE",
"466 316 CURVE SMOOTH",
"533 316 OFFCURVE",
"580 265 OFFCURVE",
"580 174 CURVE SMOOTH"
);
}
);
width = 670;
}
);
unicode = 10D3;
},
{
color = 3;
glyphname = "en-georgian";
lastChange = "2016-05-17 22:02:17 +0000";
layers = (
{
background = {
paths = (
{
closed = 1;
nodes = (
"199 35 LINE",
"171 66 OFFCURVE",
"148 101 OFFCURVE",
"148 168 CURVE SMOOTH",
"148 261 OFFCURVE",
"195 316 OFFCURVE",
"258 316 CURVE SMOOTH",
"331 316 OFFCURVE",
"360 261 OFFCURVE",
"360 168 CURVE",
"360 -188 LINE SMOOTH",
"360 -270 OFFCURVE",
"299 -326 OFFCURVE",
"223 -326 CURVE SMOOTH",
"137 -326 OFFCURVE",
"76 -282 OFFCURVE",
"76 -176 CURVE SMOOTH",
"76 -113 OFFCURVE",
"102 -70 OFFCURVE",
"124 -49 CURVE",
"98 -28 LINE",
"74 -43 OFFCURVE",
"18 -111 OFFCURVE",
"18 -193 CURVE SMOOTH",
"18 -299 OFFCURVE",
"93 -372 OFFCURVE",
"223 -372 CURVE SMOOTH",
"343 -372 OFFCURVE",
"416 -284 OFFCURVE",
"416 -194 CURVE SMOOTH",
"416 179 LINE",
"416 294 OFFCURVE",
"367 362 OFFCURVE",
"258 362 CURVE SMOOTH",
"156 362 OFFCURVE",
"88 274 OFFCURVE",
"88 169 CURVE SMOOTH",
"88 93 OFFCURVE",
"120 42 OFFCURVE",
"157 10 CURVE"
);
}
);
};
backgroundImage = {
crop = "{{0, 0}, {282.24000000000001, 171.59999999999999}}";
imagePath = venuri_symb/05_en.jpg;
locked = "1";
transform = "{7, 0, 0, 7, -14, -467}";
};
layerId = "9F5B1694-2A59-45B7-91CA-438A6316E2AD";
paths = (
{
closed = 1;
nodes = (
"149 277 OFFCURVE",
"192 316 OFFCURVE",
"258 316 CURVE",
"331 316 OFFCURVE",
"360 258 OFFCURVE",
"360 171 CURVE",
"360 -188 LINE",
"360 -270 OFFCURVE",
"304 -326 OFFCURVE",
"228 -326 CURVE SMOOTH",
"149 -326 OFFCURVE",
"88 -282 OFFCURVE",
"88 -192 CURVE",
"88 -127 OFFCURVE",
"130 -87 OFFCURVE",
"160 -56 CURVE",
"160 -122 LINE",
"60 -37 LINE",
"124 -40 LINE",
"92 -56 OFFCURVE",
"30 -109 OFFCURVE",
"30 -203 CURVE",
"30 -299 OFFCURVE",
"105 -372 OFFCURVE",
"228 -372 CURVE SMOOTH",
"348 -372 OFFCURVE",
"416 -284 OFFCURVE",
"416 -194 CURVE",
"416 179 LINE",
"416 294 OFFCURVE",
"367 362 OFFCURVE",
"258 362 CURVE",
"153 362 OFFCURVE",
"89 289 OFFCURVE",
"89 193 CURVE",
"89 111 OFFCURVE",
"125 54 OFFCURVE",
"175 17 CURVE",
"112 17 LINE",
"226 88 LINE",
"226 28 LINE",
"186 70 OFFCURVE",
"149 115 OFFCURVE",
"149 189 CURVE"
);
}
);
width = 476;
},
{
associatedMasterId = "9F5B1694-2A59-45B7-91CA-438A6316E2AD";
background = {
paths = (
{
closed = 1;
nodes = (
"221 35 LINE",
"193 66 OFFCURVE",
"170 101 OFFCURVE",
"170 168 CURVE SMOOTH",
"170 261 OFFCURVE",
"217 316 OFFCURVE",
"280 316 CURVE SMOOTH",
"353 316 OFFCURVE",
"382 261 OFFCURVE",
"382 168 CURVE",
"382 -188 LINE SMOOTH",
"382 -270 OFFCURVE",
"321 -326 OFFCURVE",
"245 -326 CURVE SMOOTH",
"159 -326 OFFCURVE",
"98 -282 OFFCURVE",
"98 -176 CURVE SMOOTH",
"98 -113 OFFCURVE",
"124 -70 OFFCURVE",
"146 -49 CURVE",
"120 -28 LINE",
"96 -43 OFFCURVE",
"40 -111 OFFCURVE",
"40 -193 CURVE SMOOTH",
"40 -299 OFFCURVE",
"115 -372 OFFCURVE",
"245 -372 CURVE SMOOTH",
"365 -372 OFFCURVE",
"438 -284 OFFCURVE",
"438 -194 CURVE SMOOTH",
"438 179 LINE",
"438 294 OFFCURVE",
"389 362 OFFCURVE",
"280 362 CURVE SMOOTH",
"178 362 OFFCURVE",
"110 274 OFFCURVE",
"110 169 CURVE SMOOTH",
"110 93 OFFCURVE",
"142 42 OFFCURVE",
"179 10 CURVE"
);
}
);
};
backgroundImage = {
crop = "{{0, 0}, {282.24000000000001, 171.59999999999999}}";
imagePath = venuri_symb/05_en.jpg;
locked = "1";
transform = "{7, 0, 0, 7, 8, -467}";
};
layerId = "833C9F9F-8932-4680-811E-F1CFA2E343BF";
name = "Regular May 10 16, 13:01 May 17 16, 14:41";
paths = (
{
closed = 1;
nodes = (
"221 35 LINE",
"193 66 OFFCURVE",
"170 101 OFFCURVE",
"170 168 CURVE SMOOTH",
"170 261 OFFCURVE",
"217 316 OFFCURVE",
"280 316 CURVE SMOOTH",
"353 316 OFFCURVE",
"382 261 OFFCURVE",
"382 168 CURVE",
"382 -188 LINE SMOOTH",
"382 -270 OFFCURVE",
"321 -326 OFFCURVE",
"245 -326 CURVE SMOOTH",
"159 -326 OFFCURVE",
"98 -282 OFFCURVE",
"98 -176 CURVE SMOOTH",
"98 -113 OFFCURVE",
"124 -70 OFFCURVE",
"146 -49 CURVE",
"120 -28 LINE",
"96 -43 OFFCURVE",
"40 -111 OFFCURVE",
"40 -193 CURVE SMOOTH",
"40 -299 OFFCURVE",
"115 -372 OFFCURVE",
"245 -372 CURVE SMOOTH",
"365 -372 OFFCURVE",
"438 -284 OFFCURVE",
"438 -194 CURVE SMOOTH",
"438 179 LINE",
"438 294 OFFCURVE",
"389 362 OFFCURVE",
"280 362 CURVE SMOOTH",
"178 362 OFFCURVE",
"110 274 OFFCURVE",
"110 169 CURVE SMOOTH",
"110 93 OFFCURVE",
"142 42 OFFCURVE",
"179 10 CURVE"
);
}
);
width = 498;
}
);
unicode = 10D4;
},
{
color = 3;
glyphname = "vin-georgian";
lastChange = "2016-05-17 22:02:28 +0000";
layers = (
{
background = {
paths = (
{
closed = 1;
nodes = (
"171 96 LINE",
"147 127 OFFCURVE",
"131 162 OFFCURVE",
"131 207 CURVE SMOOTH",
"131 277 OFFCURVE",
"180 316 OFFCURVE",
"246 316 CURVE SMOOTH",
"312 316 OFFCURVE",
"361 277 OFFCURVE",
"361 207 CURVE",
"361 111 OFFCURVE",
"302 60 OFFCURVE",
"259 38 CURVE",
"259 24 LINE",
"333 24 OFFCURVE",
"360 5 OFFCURVE",
"360 -62 CURVE SMOOTH",
"360 -188 LINE SMOOTH",
"360 -270 OFFCURVE",
"304 -326 OFFCURVE",
"228 -326 CURVE SMOOTH",
"149 -326 OFFCURVE",
"78 -282 OFFCURVE",
"78 -196 CURVE SMOOTH",
"78 -143 OFFCURVE",
"104 -110 OFFCURVE",
"126 -89 CURVE",
"100 -68 LINE",
"76 -83 OFFCURVE",
"20 -141 OFFCURVE",
"20 -213 CURVE SMOOTH",
"20 -299 OFFCURVE",
"105 -372 OFFCURVE",
"228 -372 CURVE SMOOTH",
"348 -372 OFFCURVE",
"416 -284 OFFCURVE",
"416 -194 CURVE SMOOTH",
"416 -61 LINE SMOOTH",
"416 4 OFFCURVE",
"393 49 OFFCURVE",
"321 49 CURVE",
"321 51 LINE",
"370 82 OFFCURVE",
"421 132 OFFCURVE",
"421 207 CURVE",
"421 289 OFFCURVE",
"351 362 OFFCURVE",
"246 362 CURVE SMOOTH",
"141 362 OFFCURVE",
"71 289 OFFCURVE",
"71 207 CURVE SMOOTH",
"71 151 OFFCURVE",
"97 103 OFFCURVE",
"128 73 CURVE"
);
}
);
};
backgroundImage = {
crop = "{{0, 0}, {297.59999999999997, 133.44}}";
imagePath = venuri_symb/06_vin.jpg;
locked = "1";
transform = "{7, 0, 0, 7, -740, -415}";
};
guideLines = (
{
position = "{196, 207}";
},
{
position = "{195, 277}";
},
{
position = "{70, 289}";
},
{
angle = 90;
position = "{246, 228}";
}
);
layerId = "9F5B1694-2A59-45B7-91CA-438A6316E2AD";
paths = (
{
closed = 1;
nodes = (
"30 -299 OFFCURVE",
"105 -372 OFFCURVE",
"228 -372 CURVE SMOOTH",
"348 -372 OFFCURVE",
"416 -287 OFFCURVE",
"416 -184 CURVE SMOOTH",
"416 -91 LINE SMOOTH",
"416 -21 OFFCURVE",
"378 25 OFFCURVE",
"321 40 CURVE",
"321 42 LINE",
"371 66 OFFCURVE",
"406 120 OFFCURVE",
"406 189 CURVE SMOOTH",
"406 271 OFFCURVE",
"345 362 OFFCURVE",
"240 362 CURVE SMOOTH",
"135 362 OFFCURVE",
"71 289 OFFCURVE",
"71 207 CURVE SMOOTH",
"71 151 OFFCURVE",
"97 103 OFFCURVE",
"128 73 CURVE",
"168 99 LINE",
"147 127 OFFCURVE",
"131 162 OFFCURVE",
"131 207 CURVE SMOOTH",
"131 277 OFFCURVE",
"174 316 OFFCURVE",
"240 316 CURVE SMOOTH",
"306 316 OFFCURVE",
"346 267 OFFCURVE",
"346 189 CURVE SMOOTH",
"346 120 OFFCURVE",
"312 58 OFFCURVE",
"257 58 CURVE SMOOTH",
"246 58 LINE",
"246 12 LINE",
"269 12 LINE SMOOTH",
"323 12 OFFCURVE",
"360 -34 OFFCURVE",
"360 -92 CURVE SMOOTH",
"360 -178 LINE SMOOTH",
"360 -273 OFFCURVE",
"304 -326 OFFCURVE",
"228 -326 CURVE SMOOTH",
"149 -326 OFFCURVE",
"88 -282 OFFCURVE",
"88 -192 CURVE SMOOTH",
"88 -150 OFFCURVE",
"105 -119 OFFCURVE",
"126 -93 CURVE",
"91 -63 LINE",
"61 -90 OFFCURVE",
"30 -136 OFFCURVE",
"30 -203 CURVE SMOOTH"
);
}
);
width = 481;
},
{
associatedMasterId = "9F5B1694-2A59-45B7-91CA-438A6316E2AD";
backgroundImage = {
crop = "{{0, 0}, {297.59999999999997, 133.44}}";
imagePath = venuri_symb/06_vin.jpg;
locked = "1";
transform = "{7, 0, 0, 7, -720, -415}";
};
guideLines = (
{
position = "{216, 207}";
},
{
position = "{215, 277}";
},
{
position = "{90, 289}";
},
{
angle = 90;
position = "{266, 316}";
}
);
layerId = "065291A7-6063-4A91-AF93-9E04CFD74E59";
name = "Regular May 10 16, 12:54";
paths = (
{
closed = 1;
nodes = (
"191 96 LINE",
"167 127 OFFCURVE",
"151 162 OFFCURVE",
"151 207 CURVE SMOOTH",
"151 277 OFFCURVE",
"200 316 OFFCURVE",
"266 316 CURVE SMOOTH",
"332 316 OFFCURVE",
"381 277 OFFCURVE",
"381 207 CURVE",
"381 111 OFFCURVE",
"322 60 OFFCURVE",
"279 38 CURVE",
"279 24 LINE",
"353 24 OFFCURVE",
"380 5 OFFCURVE",
"380 -62 CURVE SMOOTH",
"380 -188 LINE SMOOTH",
"380 -270 OFFCURVE",
"324 -326 OFFCURVE",
"248 -326 CURVE SMOOTH",
"169 -326 OFFCURVE",
"98 -282 OFFCURVE",
"98 -196 CURVE SMOOTH",
"98 -143 OFFCURVE",
"114 -110 OFFCURVE",
"136 -89 CURVE",
"110 -68 LINE",
"86 -83 OFFCURVE",
"40 -141 OFFCURVE",
"40 -213 CURVE SMOOTH",
"40 -299 OFFCURVE",
"125 -372 OFFCURVE",
"248 -372 CURVE SMOOTH",
"368 -372 OFFCURVE",
"436 -284 OFFCURVE",
"436 -194 CURVE SMOOTH",
"436 -61 LINE SMOOTH",
"436 4 OFFCURVE",
"413 49 OFFCURVE",
"341 49 CURVE",
"341 51 LINE",
"390 82 OFFCURVE",
"441 132 OFFCURVE",
"441 207 CURVE",
"441 289 OFFCURVE",
"371 362 OFFCURVE",
"266 362 CURVE SMOOTH",
"161 362 OFFCURVE",
"91 289 OFFCURVE",
"91 207 CURVE SMOOTH",
"91 151 OFFCURVE",
"117 103 OFFCURVE",
"148 73 CURVE"
);
}
);
width = 501;
}
);
unicode = 10D5;
},
{
glyphname = "zen-georgian";
lastChange = "2016-05-17 22:02:53 +0000";
layers = (
{
background = {
paths = (
{
closed = 1;
nodes = (
"40 445 OFFCURVE",
"84 388 OFFCURVE",
"152 388 CURVE SMOOTH",
"178 388 OFFCURVE",
"203 402 OFFCURVE",
"220 427 CURVE",
"222 427 LINE",
"222 175 LINE",
"222 72 OFFCURVE",
"277 -12 OFFCURVE",
"383 -12 CURVE SMOOTH",
"489 -12 OFFCURVE",
"546 72 OFFCURVE",
"546 175 CURVE SMOOTH",
"546 278 OFFCURVE",
"484 362 OFFCURVE",
"404 362 CURVE SMOOTH",
"390 362 OFFCURVE",
"369 358 OFFCURVE",
"357 352 CURVE",
"356 354 LINE",
"378 395 OFFCURVE",
"428 452 OFFCURVE",
"464 486 CURVE",
"424 518 LINE",
"371 461 OFFCURVE",
"325 392 OFFCURVE",
"280 303 CURVE",
"278 303 LINE",
"278 595 LINE",
"278 665 OFFCURVE",
"234 722 OFFCURVE",
"158 722 CURVE SMOOTH",
"86 722 OFFCURVE",
"40 665 OFFCURVE",
"40 555 CURVE SMOOTH"
);
},
{
closed = 1;
nodes = (
"96 635 OFFCURVE",
"117 676 OFFCURVE",
"159 676 CURVE SMOOTH",
"201 676 OFFCURVE",
"222 635 OFFCURVE",
"222 556 CURVE SMOOTH",
"222 476 OFFCURVE",
"201 434 OFFCURVE",
"159 434 CURVE SMOOTH",
"117 434 OFFCURVE",
"96 476 OFFCURVE",
"96 556 CURVE SMOOTH"
);
},
{
closed = 1;
nodes = (
"278 265 OFFCURVE",
"316 316 OFFCURVE",
"382 316 CURVE SMOOTH",
"449 316 OFFCURVE",
"486 265 OFFCURVE",
"486 174 CURVE SMOOTH",
"486 88 OFFCURVE",
"449 34 OFFCURVE",
"382 34 CURVE SMOOTH",
"316 34 OFFCURVE",
"278 88 OFFCURVE",
"278 174 CURVE SMOOTH"
);
}
);
};
backgroundImage = {
crop = "{{0, 0}, {441.83999999999997, 191}}";
imagePath = venuri_symb/07_zen.jpg;
locked = "1";
transform = "{7, 0, 0, 7, 33, -465}";
};
layerId = "9F5B1694-2A59-45B7-91CA-438A6316E2AD";
paths = (
{
closed = 1;
nodes = (
"20 445 OFFCURVE",
"70 388 OFFCURVE",
"142 388 CURVE SMOOTH",
"168 388 OFFCURVE",
"203 402 OFFCURVE",
"220 427 CURVE",
"222 427 LINE",
"222 175 LINE",
"222 72 OFFCURVE",
"277 -12 OFFCURVE",
"383 -12 CURVE SMOOTH",
"489 -12 OFFCURVE",
"546 72 OFFCURVE",
"546 175 CURVE SMOOTH",
"546 278 OFFCURVE",
"484 362 OFFCURVE",
"404 362 CURVE SMOOTH",
"390 362 OFFCURVE",
"369 358 OFFCURVE",
"357 352 CURVE",
"356 354 LINE",
"378 395 OFFCURVE",
"428 452 OFFCURVE",
"464 486 CURVE",
"424 518 LINE",
"371 461 OFFCURVE",
"325 392 OFFCURVE",
"280 303 CURVE",
"278 303 LINE",
"278 556 LINE",
"278 665 OFFCURVE",
"225 722 OFFCURVE",
"149 722 CURVE SMOOTH",
"72 722 OFFCURVE",
"20 665 OFFCURVE",
"20 555 CURVE SMOOTH"
);
},
{
closed = 1;
nodes = (
"76 635 OFFCURVE",
"101 676 OFFCURVE",
"149 676 CURVE SMOOTH",
"197 676 OFFCURVE",
"222 635 OFFCURVE",
"222 556 CURVE SMOOTH",
"222 476 OFFCURVE",
"201 434 OFFCURVE",
"149 434 CURVE SMOOTH",
"97 434 OFFCURVE",
"76 476 OFFCURVE",
"76 556 CURVE SMOOTH"
);
},
{
closed = 1;
nodes = (
"278 265 OFFCURVE",
"316 316 OFFCURVE",
"382 316 CURVE SMOOTH",
"449 316 OFFCURVE",
"486 265 OFFCURVE",
"486 174 CURVE SMOOTH",
"486 88 OFFCURVE",
"449 34 OFFCURVE",
"382 34 CURVE SMOOTH",
"316 34 OFFCURVE",
"278 88 OFFCURVE",
"278 174 CURVE SMOOTH"
);
}
);
width = 586;
},
{
associatedMasterId = "9F5B1694-2A59-45B7-91CA-438A6316E2AD";
background = {
paths = (
{
closed = 1;
nodes = (
"40 445 OFFCURVE",
"84 388 OFFCURVE",
"152 388 CURVE SMOOTH",
"178 388 OFFCURVE",
"203 402 OFFCURVE",
"220 427 CURVE",
"222 427 LINE",
"222 175 LINE",
"222 72 OFFCURVE",
"277 -12 OFFCURVE",
"383 -12 CURVE SMOOTH",
"489 -12 OFFCURVE",
"546 72 OFFCURVE",
"546 175 CURVE SMOOTH",
"546 278 OFFCURVE",
"484 362 OFFCURVE",
"404 362 CURVE SMOOTH",
"390 362 OFFCURVE",
"369 358 OFFCURVE",
"357 352 CURVE",
"356 354 LINE",
"378 395 OFFCURVE",
"428 452 OFFCURVE",
"464 486 CURVE",
"424 518 LINE",
"371 461 OFFCURVE",
"325 392 OFFCURVE",
"280 303 CURVE",
"278 303 LINE",
"278 595 LINE",
"278 665 OFFCURVE",
"234 722 OFFCURVE",
"158 722 CURVE SMOOTH",
"86 722 OFFCURVE",
"40 665 OFFCURVE",
"40 555 CURVE SMOOTH"
);
},
{
closed = 1;
nodes = (
"96 635 OFFCURVE",
"117 676 OFFCURVE",
"159 676 CURVE SMOOTH",
"201 676 OFFCURVE",
"222 635 OFFCURVE",
"222 556 CURVE SMOOTH",
"222 476 OFFCURVE",
"201 434 OFFCURVE",
"159 434 CURVE SMOOTH",
"117 434 OFFCURVE",
"96 476 OFFCURVE",
"96 556 CURVE SMOOTH"
);
},
{
closed = 1;
nodes = (
"278 265 OFFCURVE",
"316 316 OFFCURVE",
"382 316 CURVE SMOOTH",
"449 316 OFFCURVE",
"486 265 OFFCURVE",
"486 174 CURVE SMOOTH",
"486 88 OFFCURVE",
"449 34 OFFCURVE",
"382 34 CURVE SMOOTH",
"316 34 OFFCURVE",
"278 88 OFFCURVE",
"278 174 CURVE SMOOTH"
);
}
);
};
backgroundImage = {
crop = "{{0, 0}, {441.83999999999997, 191}}";
imagePath = venuri_symb/07_zen.jpg;
locked = "1";
transform = "{7, 0, 0, 7, 33, -465}";
};
layerId = "08EB9A40-8BAB-4BE1-8075-C6A6BD394A17";
name = "Regular May 10 16, 13:09";
paths = (
{
closed = 1;
nodes = (
"40 445 OFFCURVE",
"84 388 OFFCURVE",
"152 388 CURVE SMOOTH",
"178 388 OFFCURVE",
"203 402 OFFCURVE",
"220 427 CURVE",
"222 427 LINE",
"222 175 LINE",
"222 72 OFFCURVE",
"277 -12 OFFCURVE",
"383 -12 CURVE SMOOTH",
"489 -12 OFFCURVE",
"546 72 OFFCURVE",
"546 175 CURVE SMOOTH",
"546 278 OFFCURVE",
"484 362 OFFCURVE",
"404 362 CURVE SMOOTH",
"390 362 OFFCURVE",
"369 358 OFFCURVE",
"357 352 CURVE",
"356 354 LINE",
"378 395 OFFCURVE",
"428 452 OFFCURVE",
"464 486 CURVE",
"424 518 LINE",
"371 461 OFFCURVE",
"325 392 OFFCURVE",
"280 303 CURVE",
"278 303 LINE",
"278 595 LINE",
"278 665 OFFCURVE",
"234 722 OFFCURVE",
"158 722 CURVE SMOOTH",
"86 722 OFFCURVE",
"40 665 OFFCURVE",
"40 555 CURVE SMOOTH"
);
},
{
closed = 1;
nodes = (
"96 635 OFFCURVE",
"117 676 OFFCURVE",
"159 676 CURVE SMOOTH",
"201 676 OFFCURVE",
"222 635 OFFCURVE",
"222 556 CURVE SMOOTH",
"222 476 OFFCURVE",
"201 434 OFFCURVE",
"159 434 CURVE SMOOTH",
"117 434 OFFCURVE",
"96 476 OFFCURVE",
"96 556 CURVE SMOOTH"
);
},
{
closed = 1;
nodes = (
"278 265 OFFCURVE",
"316 316 OFFCURVE",
"382 316 CURVE SMOOTH",
"449 316 OFFCURVE",
"486 265 OFFCURVE",
"486 174 CURVE SMOOTH",
"486 88 OFFCURVE",
"449 34 OFFCURVE",
"382 34 CURVE SMOOTH",
"316 34 OFFCURVE",
"278 88 OFFCURVE",
"278 174 CURVE SMOOTH"
);
}
);
width = 586;
}
);
unicode = 10D6;
},
{
glyphname = "tan-georgian";
lastChange = "2016-05-21 17:14:53 +0000";
layers = (
{
background = {
paths = (
{
closed = 1;
nodes = (
"40 72 OFFCURVE",
"107 -12 OFFCURVE",
"214 -12 CURVE SMOOTH",
"321 -12 OFFCURVE",
"388 72 OFFCURVE",
"388 175 CURVE SMOOTH",
"388 205 OFFCURVE",
"383 233 OFFCURVE",
"373 257 CURVE",
"396 287 OFFCURVE",
"434 316 OFFCURVE",
"486 316 CURVE SMOOTH",
"553 316 OFFCURVE",
"600 265 OFFCURVE",
"600 184 CURVE SMOOTH",
"600 98 OFFCURVE",
"567 54 OFFCURVE",
"520 18 CURVE",
"547 -12 LINE",
"613 29 OFFCURVE",
"660 83 OFFCURVE",
"660 193 CURVE SMOOTH",
"660 277 OFFCURVE",
"593 362 OFFCURVE",
"493 362 CURVE SMOOTH",
"427 362 OFFCURVE",
"382 332 OFFCURVE",
"352 297 CURVE",
"350 297 LINE",
"320 337 OFFCURVE",
"273 362 OFFCURVE",
"214 362 CURVE SMOOTH",
"109 362 OFFCURVE",
"40 284 OFFCURVE",
"40 175 CURVE SMOOTH"
);
}
);
};
backgroundImage = {
crop = "{{0, 0}, {303.59999999999997, 164.63999999999999}}";
imagePath = venuri_symb/08_tan.jpg;
locked = "1";
transform = "{7, 0, 0, 7, -235, -410}";
};
layerId = "9F5B1694-2A59-45B7-91CA-438A6316E2AD";
paths = (
{
closed = 1;
nodes = (
"40 72 OFFCURVE",
"107 -12 OFFCURVE",
"214 -12 CURVE SMOOTH",
"321 -12 OFFCURVE",
"388 72 OFFCURVE",
"388 175 CURVE SMOOTH",
"388 205 OFFCURVE",
"383 233 OFFCURVE",
"373 257 CURVE",
"396 287 OFFCURVE",
"434 316 OFFCURVE",
"486 316 CURVE SMOOTH",
"553 316 OFFCURVE",
"600 265 OFFCURVE",
"600 184 CURVE SMOOTH",
"600 106 OFFCURVE",
"565 48 OFFCURVE",
"530 18 CURVE",
"557 -12 LINE",
"604 21 OFFCURVE",
"660 83 OFFCURVE",
"660 193 CURVE SMOOTH",
"660 277 OFFCURVE",
"593 362 OFFCURVE",
"493 362 CURVE SMOOTH",
"427 362 OFFCURVE",
"382 332 OFFCURVE",
"352 297 CURVE",
"350 297 LINE",
"320 337 OFFCURVE",
"273 362 OFFCURVE",
"214 362 CURVE SMOOTH",
"109 362 OFFCURVE",
"40 284 OFFCURVE",
"40 175 CURVE SMOOTH"
);
},
{
closed = 1;
nodes = (
"100 265 OFFCURVE",
"147 316 OFFCURVE",
"214 316 CURVE SMOOTH",
"281 316 OFFCURVE",
"328 265 OFFCURVE",
"328 174 CURVE SMOOTH",
"328 88 OFFCURVE",
"281 34 OFFCURVE",
"214 34 CURVE SMOOTH",
"147 34 OFFCURVE",
"100 88 OFFCURVE",
"100 174 CURVE SMOOTH"
);
}
);
width = 700;
},
{
associatedMasterId = "9F5B1694-2A59-45B7-91CA-438A6316E2AD";
backgroundImage = {
crop = "{{0, 0}, {303.59999999999997, 164.63999999999999}}";
imagePath = venuri_symb/08_tan.jpg;
locked = "1";
transform = "{7, 0, 0, 7, -244, -411}";
};
layerId = "82D81ABF-DA32-463D-BD46-C71C27F5ECB3";
name = "Regular Apr 13 16, 14:28";
paths = (
{
closed = 1;
nodes = (
"30 72 OFFCURVE",
"97 -12 OFFCURVE",
"204 -12 CURVE SMOOTH",
"311 -12 OFFCURVE",
"378 72 OFFCURVE",
"378 175 CURVE SMOOTH",
"378 205 OFFCURVE",
"373 233 OFFCURVE",
"363 257 CURVE",
"386 287 OFFCURVE",
"424 316 OFFCURVE",
"476 316 CURVE SMOOTH",
"543 316 OFFCURVE",
"590 265 OFFCURVE",
"590 184 CURVE SMOOTH",
"590 98 OFFCURVE",
"557 54 OFFCURVE",
"510 18 CURVE",
"537 -12 LINE",
"603 29 OFFCURVE",
"650 83 OFFCURVE",
"650 193 CURVE SMOOTH",
"650 277 OFFCURVE",
"583 362 OFFCURVE",
"483 362 CURVE SMOOTH",
"417 362 OFFCURVE",
"372 332 OFFCURVE",
"342 297 CURVE",
"340 297 LINE",
"310 337 OFFCURVE",
"263 362 OFFCURVE",
"204 362 CURVE SMOOTH",
"99 362 OFFCURVE",
"30 284 OFFCURVE",
"30 175 CURVE SMOOTH"
);
},
{
closed = 1;
nodes = (
"90 265 OFFCURVE",
"137 316 OFFCURVE",
"204 316 CURVE SMOOTH",
"271 316 OFFCURVE",
"318 265 OFFCURVE",
"318 174 CURVE SMOOTH",
"318 88 OFFCURVE",
"271 34 OFFCURVE",
"204 34 CURVE SMOOTH",
"137 34 OFFCURVE",
"90 88 OFFCURVE",
"90 174 CURVE SMOOTH"
);
}
);
width = 680;
}
);
unicode = 10D7;
},
{
glyphname = "in-georgian";
lastChange = "2016-05-17 22:03:12 +0000";
layers = (
{
backgroundImage = {
crop = "{{0, 0}, {253.91999999999999, 138}}";
imagePath = venuri_symb/09_in.jpg;
locked = "1";
transform = "{7, 0, 0, 7, -888, -396}";
};
layerId = "9F5B1694-2A59-45B7-91CA-438A6316E2AD";
paths = (
{
closed = 1;
nodes = (
"40 73 OFFCURVE",
"92 17 OFFCURVE",
"139 -13 CURVE",
"167 19 LINE",
"132 54 OFFCURVE",
"100 90 OFFCURVE",
"100 168 CURVE SMOOTH",
"100 261 OFFCURVE",
"147 316 OFFCURVE",
"217 316 CURVE SMOOTH",
"287 316 OFFCURVE",
"334 261 OFFCURVE",
"334 168 CURVE SMOOTH",
"334 90 OFFCURVE",
"302 54 OFFCURVE",
"267 19 CURVE",
"295 -13 LINE",
"342 17 OFFCURVE",
"394 73 OFFCURVE",
"394 169 CURVE SMOOTH",
"394 274 OFFCURVE",
"326 362 OFFCURVE",
"217 362 CURVE SMOOTH",
"108 362 OFFCURVE",
"40 274 OFFCURVE",
"40 169 CURVE SMOOTH"
);
}
);
width = 434;
},
{
associatedMasterId = "9F5B1694-2A59-45B7-91CA-438A6316E2AD";
backgroundImage = {
crop = "{{0, 0}, {253.91999999999999, 138}}";
imagePath = venuri_symb/09_in.jpg;
locked = "1";
transform = "{7, 0, 0, 7, -873, -396}";
};
layerId = "EDAACBCE-030F-4430-A7AE-A75E17FA1824";
name = "Regular Apr 13 16, 15:00";
paths = (
{
closed = 1;
nodes = (
"30 90 OFFCURVE",
"66 19 OFFCURVE",
"142 -13 CURVE",
"163 22 LINE",
"118 48 OFFCURVE",
"90 100 OFFCURVE",
"90 174 CURVE SMOOTH",
"90 265 OFFCURVE",
"147 316 OFFCURVE",
"222 316 CURVE SMOOTH",
"297 316 OFFCURVE",
"354 265 OFFCURVE",
"354 174 CURVE SMOOTH",
"354 100 OFFCURVE",
"326 48 OFFCURVE",
"281 22 CURVE",
"302 -13 LINE",
"378 19 OFFCURVE",
"414 90 OFFCURVE",
"414 175 CURVE SMOOTH",
"414 278 OFFCURVE",
"336 362 OFFCURVE",
"222 362 CURVE SMOOTH",
"108 362 OFFCURVE",
"30 278 OFFCURVE",
"30 175 CURVE SMOOTH"
);
}
);
width = 464;
}
);
unicode = 10D8;
},
{
glyphname = "kan-georgian";
lastChange = "2016-05-17 22:03:25 +0000";
layers = (
{
background = {
paths = (
{
closed = 1;
nodes = (
"291 79 LINE",
"363 79 OFFCURVE",
"416 20 OFFCURVE",
"416 -61 CURVE SMOOTH",
"416 -194 LINE SMOOTH",
"416 -284 OFFCURVE",
"348 -372 OFFCURVE",
"228 -372 CURVE SMOOTH",
"105 -372 OFFCURVE",
"20 -299 OFFCURVE",
"20 -213 CURVE SMOOTH",
"20 -141 OFFCURVE",
"76 -83 OFFCURVE",
"100 -68 CURVE",
"126 -89 LINE",
"104 -110 OFFCURVE",
"78 -143 OFFCURVE",
"78 -196 CURVE SMOOTH",
"78 -282 OFFCURVE",
"149 -326 OFFCURVE",
"228 -326 CURVE SMOOTH",
"304 -326 OFFCURVE",
"360 -270 OFFCURVE",
"360 -188 CURVE SMOOTH",
"360 -62 LINE SMOOTH",
"360 2 OFFCURVE",
"321 45 OFFCURVE",
"265 45 CURVE SMOOTH",
"249 45 OFFCURVE",
"231 42 OFFCURVE",
"212 34 CURVE",
"207 50 LINE",
"250 72 OFFCURVE",
"313 128 OFFCURVE",
"313 257 CURVE",
"313 291 OFFCURVE",
"313 315 OFFCURVE",
"285 360 CURVE",
"304 383 LINE",
"327 367 OFFCURVE",
"373 339 OFFCURVE",
"373 257 CURVE",
"373 219 OFFCURVE",
"369 150 OFFCURVE",
"291 81 CURVE"
);
}
);
};
backgroundImage = {
crop = "{{0, 0}, {368.15999999999997, 169.44}}";
imagePath = venuri_symb/10_kan.jpg;
locked = "1";
transform = "{7, 0, 0, 7, -1680, -415}";
};
layerId = "9F5B1694-2A59-45B7-91CA-438A6316E2AD";
paths = (
{
closed = 1;
nodes = (
"30 -299 OFFCURVE",
"105 -372 OFFCURVE",
"228 -372 CURVE SMOOTH",
"348 -372 OFFCURVE",
"416 -284 OFFCURVE",
"416 -184 CURVE SMOOTH",
"416 -81 LINE SMOOTH",
"416 0 OFFCURVE",
"363 72 OFFCURVE",
"291 79 CURVE",
"291 81 LINE",
"353 111 OFFCURVE",
"373 181 OFFCURVE",
"373 219 CURVE SMOOTH",
"373 290 OFFCURVE",
"336 336 OFFCURVE",
"299 362 CURVE",
"264 334 LINE",
"291 309 OFFCURVE",
"317 273 OFFCURVE",
"317 219 CURVE SMOOTH",
"317 152 OFFCURVE",
"268 89 OFFCURVE",
"217 89 CURVE SMOOTH",
"197 89 LINE",
"197 45 LINE",
"245 45 LINE SMOOTH",
"321 45 OFFCURVE",
"360 -8 OFFCURVE",
"360 -82 CURVE SMOOTH",
"360 -178 LINE SMOOTH",
"360 -270 OFFCURVE",
"304 -326 OFFCURVE",
"228 -326 CURVE SMOOTH",
"149 -326 OFFCURVE",
"88 -282 OFFCURVE",
"88 -192 CURVE SMOOTH",
"88 -150 OFFCURVE",
"105 -119 OFFCURVE",
"126 -93 CURVE",
"91 -63 LINE",
"61 -90 OFFCURVE",
"30 -136 OFFCURVE",
"30 -203 CURVE SMOOTH"
);
}
);
width = 466;
},
{
associatedMasterId = "9F5B1694-2A59-45B7-91CA-438A6316E2AD";
backgroundImage = {
crop = "{{0, 0}, {368.15999999999997, 169.44}}";
imagePath = venuri_symb/10_kan.jpg;
locked = "1";
transform = "{7, 0, 0, 7, -1660, -415}";
};
layerId = "C550FA85-291B-4560-9A48-F5CE3621AF9B";
name = "Regular May 10 16, 12:58";
paths = (
{
closed = 1;
nodes = (
"311 79 LINE",
"383 79 OFFCURVE",
"436 20 OFFCURVE",
"436 -61 CURVE SMOOTH",
"436 -194 LINE SMOOTH",
"436 -284 OFFCURVE",
"368 -372 OFFCURVE",
"248 -372 CURVE SMOOTH",
"125 -372 OFFCURVE",
"40 -299 OFFCURVE",
"40 -213 CURVE SMOOTH",
"40 -141 OFFCURVE",
"96 -83 OFFCURVE",
"120 -68 CURVE",
"146 -89 LINE",
"124 -110 OFFCURVE",
"98 -143 OFFCURVE",
"98 -196 CURVE SMOOTH",
"98 -282 OFFCURVE",
"169 -326 OFFCURVE",
"248 -326 CURVE SMOOTH",
"324 -326 OFFCURVE",
"380 -270 OFFCURVE",
"380 -188 CURVE SMOOTH",
"380 -62 LINE SMOOTH",
"380 2 OFFCURVE",
"341 45 OFFCURVE",
"285 45 CURVE SMOOTH",
"269 45 OFFCURVE",
"251 42 OFFCURVE",
"232 34 CURVE",
"227 50 LINE",
"270 72 OFFCURVE",
"333 128 OFFCURVE",
"333 257 CURVE",
"333 291 OFFCURVE",
"333 315 OFFCURVE",
"305 360 CURVE",
"324 383 LINE",
"347 367 OFFCURVE",
"393 339 OFFCURVE",
"393 257 CURVE",
"393 219 OFFCURVE",
"389 150 OFFCURVE",
"311 81 CURVE"
);
}
);
width = 496;
},
{
associatedMasterId = "9F5B1694-2A59-45B7-91CA-438A6316E2AD";
background = {
paths = (
{
closed = 1;
nodes = (
"311 79 LINE",
"383 79 OFFCURVE",
"436 20 OFFCURVE",
"436 -61 CURVE SMOOTH",
"436 -194 LINE SMOOTH",
"436 -284 OFFCURVE",
"368 -372 OFFCURVE",
"248 -372 CURVE SMOOTH",
"125 -372 OFFCURVE",
"40 -299 OFFCURVE",
"40 -213 CURVE SMOOTH",
"40 -141 OFFCURVE",
"96 -83 OFFCURVE",
"120 -68 CURVE",
"146 -89 LINE",
"124 -110 OFFCURVE",
"98 -143 OFFCURVE",
"98 -196 CURVE SMOOTH",
"98 -282 OFFCURVE",
"169 -326 OFFCURVE",
"248 -326 CURVE SMOOTH",
"324 -326 OFFCURVE",
"380 -270 OFFCURVE",
"380 -188 CURVE SMOOTH",
"380 -62 LINE SMOOTH",
"380 2 OFFCURVE",
"341 45 OFFCURVE",
"285 45 CURVE SMOOTH",
"269 45 OFFCURVE",
"251 42 OFFCURVE",
"232 34 CURVE",
"227 50 LINE",
"270 72 OFFCURVE",
"333 128 OFFCURVE",
"333 257 CURVE",
"333 291 OFFCURVE",
"333 315 OFFCURVE",
"305 360 CURVE",
"324 383 LINE",
"347 367 OFFCURVE",
"393 339 OFFCURVE",
"393 257 CURVE",
"393 219 OFFCURVE",
"389 150 OFFCURVE",
"311 81 CURVE"
);
}
);
};
backgroundImage = {
crop = "{{0, 0}, {368.15999999999997, 169.44}}";
imagePath = venuri_symb/10_kan.jpg;
locked = "1";
transform = "{7, 0, 0, 7, -1660, -415}";
};
layerId = "9B894533-3DE4-4199-8C7A-876B9BAA9920";
name = "Regular May 10 16, 13:18";
paths = (
{
closed = 1;
nodes = (
"98 -282 OFFCURVE",
"169 -326 OFFCURVE",
"248 -326 CURVE SMOOTH",
"324 -326 OFFCURVE",
"380 -270 OFFCURVE",
"380 -188 CURVE SMOOTH",
"380 -62 LINE SMOOTH",
"380 2 OFFCURVE",
"341 45 OFFCURVE",
"285 45 CURVE SMOOTH",
"269 45 OFFCURVE",
"251 42 OFFCURVE",
"232 34 CURVE",
"227 50 LINE",
"270 72 OFFCURVE",
"333 128 OFFCURVE",
"333 257 CURVE",
"333 291 OFFCURVE",
"333 315 OFFCURVE",
"305 360 CURVE",
"324 383 LINE",
"347 367 OFFCURVE",
"393 339 OFFCURVE",
"393 257 CURVE",
"393 219 OFFCURVE",
"389 150 OFFCURVE",
"311 81 CURVE",
"311 79 LINE",
"383 79 OFFCURVE",
"436 20 OFFCURVE",
"436 -61 CURVE SMOOTH",
"436 -194 LINE SMOOTH",
"436 -284 OFFCURVE",
"368 -372 OFFCURVE",
"248 -372 CURVE SMOOTH",
"125 -372 OFFCURVE",
"40 -299 OFFCURVE",
"40 -203 CURVE",
"40 -124 OFFCURVE",
"80 -81 OFFCURVE",
"104 -66 CURVE",
"136 -93 LINE",
"117 -110 OFFCURVE",
"98 -139 OFFCURVE",
"98 -192 CURVE"
);
}
);
width = 496;
}
);
unicode = 10D9;
},
{
glyphname = "las-georgian";
lastChange = "2016-05-17 22:02:09 +0000";
layers = (
{
background = {
paths = (
{
closed = 1;
nodes = (
"422 362 OFFCURVE",
"383 337 OFFCURVE",
"353 297 CURVE",
"351 297 LINE",
"322 337 OFFCURVE",
"280 362 OFFCURVE",
"215 362 CURVE SMOOTH",
"110 362 OFFCURVE",
"40 294 OFFCURVE",
"40 155 CURVE SMOOTH",
"40 -17 OFFCURVE",
"136 -82 OFFCURVE",
"221 -140 CURVE",
"197 -144 OFFCURVE",
"171 -151 OFFCURVE",
"154 -158 CURVE",
"156 -214 LINE",
"171 -210 OFFCURVE",
"229 -197 OFFCURVE",
"267 -197 CURVE SMOOTH",
"379 -197 OFFCURVE",
"557 -263 OFFCURVE",
"655 -383 CURVE",
"696 -337 LINE",
"613 -231 OFFCURVE",
"486 -182 OFFCURVE",
"372 -153 CURVE SMOOTH",
"257 -124 OFFCURVE",
"100 -28 OFFCURVE",
"100 154 CURVE SMOOTH",
"100 275 OFFCURVE",
"150 316 OFFCURVE",
"213 316 CURVE SMOOTH",
"274 316 OFFCURVE",
"324 272 OFFCURVE",
"324 222 CURVE",
"324 90 LINE",
"380 90 LINE",
"380 222 LINE",
"380 272 OFFCURVE",
"422 316 OFFCURVE",
"482 316 CURVE",
"542 316 OFFCURVE",
"584 272 OFFCURVE",
"584 222 CURVE",
"584 90 LINE",
"640 90 LINE",
"640 222 LINE",
"640 272 OFFCURVE",
"682 316 OFFCURVE",
"749 316 CURVE SMOOTH",
"809 316 OFFCURVE",
"853 275 OFFCURVE",
"853 205 CURVE SMOOTH",
"853 144 OFFCURVE",
"811 107 OFFCURVE",
"791 83 CURVE",
"836 67 LINE",
"857 87 OFFCURVE",
"913 138 OFFCURVE",
"913 206 CURVE SMOOTH",
"913 294 OFFCURVE",
"854 362 OFFCURVE",
"749 362 CURVE SMOOTH",
"684 362 OFFCURVE",
"643 337 OFFCURVE",
"613 297 CURVE",
"611 297 LINE",
"582 337 OFFCURVE",
"542 362 OFFCURVE",
"482 362 CURVE"
);
}
);
};
backgroundImage = {
crop = "{{0, 0}, {629.27999999999997, 146.63999999999999}}";
imagePath = venuri_symb/11_las.jpg;
locked = "1";
transform = "{7, 0, 0, 7, -1601, -464}";
};
guideLines = (
{
angle = 90;
position = "{40, 439}";
},
{
angle = 90;
position = "{913, 0}";
},
{
angle = 90;
position = "{324, 222}";
},
{
angle = 90;
position = "{584, 222}";
}
);
layerId = "9F5B1694-2A59-45B7-91CA-438A6316E2AD";
paths = (
{
closed = 1;
nodes = (
"100 265 OFFCURVE",
"145 316 OFFCURVE",
"209 316 CURVE SMOOTH",
"275 316 OFFCURVE",
"324 265 OFFCURVE",
"324 185 CURVE SMOOTH",
"324 90 LINE",
"374 90 LINE",
"374 185 LINE SMOOTH",
"374 265 OFFCURVE",
"413 316 OFFCURVE",
"479 316 CURVE",
"545 316 OFFCURVE",
"585 265 OFFCURVE",
"585 185 CURVE SMOOTH",
"585 90 LINE",
"635 90 LINE",
"635 185 LINE SMOOTH",
"635 265 OFFCURVE",
"680 316 OFFCURVE",
"746 316 CURVE SMOOTH",
"813 316 OFFCURVE",
"859 265 OFFCURVE",
"859 184 CURVE SMOOTH",
"859 136 OFFCURVE",
"837 86 OFFCURVE",
"814 58 CURVE",
"861 34 LINE",
"890 69 OFFCURVE",
"919 132 OFFCURVE",
"919 193 CURVE SMOOTH",
"919 278 OFFCURVE",
"853 362 OFFCURVE",
"753 362 CURVE SMOOTH",
"687 362 OFFCURVE",
"633 328 OFFCURVE",
"611 270 CURVE",
"609 270 LINE",
"589 328 OFFCURVE",
"546 362 OFFCURVE",
"479 362 CURVE",
"413 362 OFFCURVE",
"369 328 OFFCURVE",
"350 270 CURVE",
"348 270 LINE",
"325 328 OFFCURVE",
"269 362 OFFCURVE",
"202 362 CURVE SMOOTH",
"105 362 OFFCURVE",
"40 278 OFFCURVE",
"40 164 CURVE",
"40 -4 OFFCURVE",
"138 -98 OFFCURVE",
"237 -139 CURVE",
"237 -141 LINE",
"210 -141 OFFCURVE",
"169 -147 OFFCURVE",
"144 -153 CURVE",
"144 -207 LINE",
"180 -196 OFFCURVE",
"221 -189 OFFCURVE",
"274 -189 CURVE SMOOTH",
"405 -189 OFFCURVE",
"593 -288 OFFCURVE",
"659 -383 CURVE",
"703 -351 LINE",
"616 -247 OFFCURVE",
"507 -187 OFFCURVE",
"372 -150 CURVE SMOOTH",
"259 -119 OFFCURVE",
"100 -37 OFFCURVE",
"100 163 CURVE"
);
}
);
width = 959;
},
{
associatedMasterId = "9F5B1694-2A59-45B7-91CA-438A6316E2AD";
backgroundImage = {
crop = "{{0, 0}, {629.27999999999997, 146.63999999999999}}";
imagePath = venuri_symb/11_las.jpg;
locked = "1";
transform = "{7, 0, 0, 7, -1581, -468}";
};
layerId = "6644C697-D29D-4513-BF21-2A5A034A1B8E";
name = "Regular Apr 11 16, 20:27";
paths = (
{
closed = 1;
nodes = (
"442 362 OFFCURVE",
"403 337 OFFCURVE",
"373 297 CURVE",
"371 297 LINE",
"342 337 OFFCURVE",
"300 362 OFFCURVE",
"235 362 CURVE SMOOTH",
"130 362 OFFCURVE",
"60 294 OFFCURVE",
"60 155 CURVE SMOOTH",
"60 -17 OFFCURVE",
"186 -122 OFFCURVE",
"271 -180 CURVE",
"247 -182 OFFCURVE",
"219 -190 OFFCURVE",
"194 -198 CURVE",
"196 -254 LINE",
"232 -243 OFFCURVE",
"269 -237 OFFCURVE",
"307 -237 CURVE SMOOTH",
"419 -237 OFFCURVE",
"614 -290 OFFCURVE",
"692 -383 CURVE",
"733 -337 LINE",
"670 -258 OFFCURVE",
"495 -217 OFFCURVE",
"412 -193 CURVE SMOOTH",
"299 -160 OFFCURVE",
"120 -48 OFFCURVE",
"120 154 CURVE SMOOTH",
"120 275 OFFCURVE",
"170 316 OFFCURVE",
"233 316 CURVE SMOOTH",
"294 316 OFFCURVE",
"344 272 OFFCURVE",
"344 222 CURVE",
"344 90 LINE",
"400 90 LINE",
"400 222 LINE",
"400 272 OFFCURVE",
"442 316 OFFCURVE",
"502 316 CURVE",
"562 316 OFFCURVE",
"604 272 OFFCURVE",
"604 222 CURVE",
"604 90 LINE",
"660 90 LINE",
"660 222 LINE",
"660 272 OFFCURVE",
"702 316 OFFCURVE",
"769 316 CURVE SMOOTH",
"829 316 OFFCURVE",
"873 275 OFFCURVE",
"873 205 CURVE SMOOTH",
"873 144 OFFCURVE",
"831 107 OFFCURVE",
"811 83 CURVE",
"856 67 LINE",
"877 87 OFFCURVE",
"933 138 OFFCURVE",
"933 206 CURVE SMOOTH",
"933 294 OFFCURVE",
"874 362 OFFCURVE",
"769 362 CURVE SMOOTH",
"704 362 OFFCURVE",
"663 337 OFFCURVE",
"633 297 CURVE",
"631 297 LINE",
"602 337 OFFCURVE",
"562 362 OFFCURVE",
"502 362 CURVE"
);
}
);
width = 993;
},
{
associatedMasterId = "9F5B1694-2A59-45B7-91CA-438A6316E2AD";
backgroundImage = {
crop = "{{0, 0}, {629.27999999999997, 146.63999999999999}}";
imagePath = venuri_symb/11_las.jpg;
locked = "1";
transform = "{7, 0, 0, 7, -1581, -464}";
};
layerId = "5744E159-83EE-49A6-BE1F-373CAF46B464";
name = "Regular Apr 13 16, 15:48";
paths = (
{
closed = 1;
nodes = (
"442 362 OFFCURVE",
"403 337 OFFCURVE",
"373 297 CURVE",
"371 297 LINE",
"342 337 OFFCURVE",
"300 362 OFFCURVE",
"235 362 CURVE SMOOTH",
"130 362 OFFCURVE",
"60 294 OFFCURVE",
"60 155 CURVE SMOOTH",
"60 -17 OFFCURVE",
"156 -82 OFFCURVE",
"241 -140 CURVE",
"217 -144 OFFCURVE",
"191 -151 OFFCURVE",
"174 -158 CURVE",
"176 -214 LINE",
"191 -210 OFFCURVE",
"249 -197 OFFCURVE",
"287 -197 CURVE SMOOTH",
"399 -197 OFFCURVE",
"577 -263 OFFCURVE",
"675 -383 CURVE",
"716 -337 LINE",
"633 -231 OFFCURVE",
"506 -182 OFFCURVE",
"392 -153 CURVE SMOOTH",
"277 -124 OFFCURVE",
"120 -28 OFFCURVE",
"120 154 CURVE SMOOTH",
"120 275 OFFCURVE",
"170 316 OFFCURVE",
"233 316 CURVE SMOOTH",
"294 316 OFFCURVE",
"344 272 OFFCURVE",
"344 222 CURVE",
"344 90 LINE",
"400 90 LINE",
"400 222 LINE",
"400 272 OFFCURVE",
"442 316 OFFCURVE",
"502 316 CURVE",
"562 316 OFFCURVE",
"604 272 OFFCURVE",
"604 222 CURVE",
"604 90 LINE",
"660 90 LINE",
"660 222 LINE",
"660 272 OFFCURVE",
"702 316 OFFCURVE",
"769 316 CURVE SMOOTH",
"829 316 OFFCURVE",
"873 275 OFFCURVE",
"873 205 CURVE SMOOTH",
"873 144 OFFCURVE",
"831 107 OFFCURVE",
"811 83 CURVE",
"856 67 LINE",
"877 87 OFFCURVE",
"933 138 OFFCURVE",
"933 206 CURVE SMOOTH",
"933 294 OFFCURVE",
"874 362 OFFCURVE",
"769 362 CURVE SMOOTH",
"704 362 OFFCURVE",
"663 337 OFFCURVE",
"633 297 CURVE",
"631 297 LINE",
"602 337 OFFCURVE",
"562 362 OFFCURVE",
"502 362 CURVE"
);
}
);
width = 993;
}
);
unicode = 10DA;
},
{
glyphname = "man-georgian";
lastChange = "2016-05-21 17:18:38 +0000";
layers = (
{
backgroundImage = {
crop = "{{0, 0}, {347.27999999999997, 162.72}}";
imagePath = venuri_symb/12_man.jpg;
locked = "1";
transform = "{7, 0, 0, 7, -1134, -246}";
};
layerId = "9F5B1694-2A59-45B7-91CA-438A6316E2AD";
paths = (
{
closed = 1;
nodes = (
"30 507 OFFCURVE",
"52 463 OFFCURVE",
"76 438 CURVE",
"121 461 LINE",
"106 485 OFFCURVE",
"88 516 OFFCURVE",
"88 559 CURVE SMOOTH",
"88 619 OFFCURVE",
"135 676 OFFCURVE",
"211 676 CURVE SMOOTH",
"287 676 OFFCURVE",
"338 620 OFFCURVE",
"338 538 CURVE SMOOTH",
"338 303 LINE",
"336 303 LINE",
"309 342 OFFCURVE",
"267 362 OFFCURVE",
"217 362 CURVE SMOOTH",
"117 362 OFFCURVE",
"50 278 OFFCURVE",
"50 175 CURVE SMOOTH",
"50 72 OFFCURVE",
"117 -12 OFFCURVE",
"223 -12 CURVE SMOOTH",
"329 -12 OFFCURVE",
"394 72 OFFCURVE",
"394 175 CURVE SMOOTH",
"394 544 LINE SMOOTH",
"394 634 OFFCURVE",
"331 722 OFFCURVE",
"211 722 CURVE SMOOTH",
"91 722 OFFCURVE",
"30 637 OFFCURVE",
"30 562 CURVE SMOOTH"
);
},
{
closed = 1;
nodes = (
"110 265 OFFCURVE",
"157 316 OFFCURVE",
"224 316 CURVE SMOOTH",
"290 316 OFFCURVE",
"338 265 OFFCURVE",
"338 174 CURVE SMOOTH",
"338 88 OFFCURVE",
"290 34 OFFCURVE",
"224 34 CURVE SMOOTH",
"157 34 OFFCURVE",
"110 88 OFFCURVE",
"110 174 CURVE SMOOTH"
);
}
);
width = 454;
}
);
unicode = 10DB;
},
{
glyphname = "nar-georgian";
lastChange = "2016-04-19 18:48:32 +0000";
layers = (
{
backgroundImage = {
crop = "{{0, 0}, {280.31999999999999, 170.88}}";
imagePath = venuri_symb/13_nar.jpg;
locked = "1";
transform = "{7, 0, 0, 7, -943, -471}";
};
layerId = "9F5B1694-2A59-45B7-91CA-438A6316E2AD";
paths = (
{
closed = 1;
nodes = (
"106 710 OFFCURVE",
"60 634 OFFCURVE",
"60 544 CURVE SMOOTH",
"60 175 LINE SMOOTH",
"60 72 OFFCURVE",
"125 -12 OFFCURVE",
"231 -12 CURVE SMOOTH",
"337 -12 OFFCURVE",
"404 72 OFFCURVE",
"404 175 CURVE SMOOTH",
"404 278 OFFCURVE",
"337 362 OFFCURVE",
"237 362 CURVE SMOOTH",
"187 362 OFFCURVE",
"145 342 OFFCURVE",
"118 303 CURVE",
"116 303 LINE",
"116 538 LINE SMOOTH",
"116 620 OFFCURVE",
"150 658 OFFCURVE",
"207 658 CURVE SMOOTH",
"275 658 OFFCURVE",
"327 630 OFFCURVE",
"398 630 CURVE SMOOTH",
"441 630 OFFCURVE",
"500 645 OFFCURVE",
"532 682 CURVE",
"500 716 LINE",
"467 692 OFFCURVE",
"431 686 OFFCURVE",
"398 686 CURVE SMOOTH",
"337 686 OFFCURVE",
"283 710 OFFCURVE",
"211 710 CURVE SMOOTH"
);
},
{
closed = 1;
nodes = (
"344 88 OFFCURVE",
"297 34 OFFCURVE",
"230 34 CURVE SMOOTH",
"164 34 OFFCURVE",
"116 88 OFFCURVE",
"116 174 CURVE SMOOTH",
"116 265 OFFCURVE",
"164 316 OFFCURVE",
"230 316 CURVE SMOOTH",
"297 316 OFFCURVE",
"344 265 OFFCURVE",
"344 174 CURVE SMOOTH"
);
}
);
width = 532;
}
);
unicode = 10DC;
},
{
glyphname = "on-georgian";
lastChange = "2016-04-19 18:42:31 +0000";
layers = (
{
backgroundImage = {
crop = "{{0, 0}, {484.56, 131.75999999999999}}";
imagePath = venuri_symb/14_on.jpg;
locked = "1";
transform = "{7, 0, 0, 7, 14, -415}";
};
layerId = "9F5B1694-2A59-45B7-91CA-438A6316E2AD";
paths = (
{
closed = 1;
nodes = (
"40 86 OFFCURVE",
"93 29 OFFCURVE",
"158 -9 CURVE",
"181 29 LINE",
"141 62 OFFCURVE",
"100 110 OFFCURVE",
"100 184 CURVE SMOOTH",
"100 265 OFFCURVE",
"146 316 OFFCURVE",
"213 316 CURVE SMOOTH",
"279 316 OFFCURVE",
"325 265 OFFCURVE",
"325 185 CURVE SMOOTH",
"325 132 LINE",
"375 132 LINE",
"375 185 LINE SMOOTH",
"375 265 OFFCURVE",
"420 316 OFFCURVE",
"486 316 CURVE SMOOTH",
"553 316 OFFCURVE",
"600 265 OFFCURVE",
"600 184 CURVE SMOOTH",
"600 110 OFFCURVE",
"559 62 OFFCURVE",
"519 29 CURVE",
"542 -9 LINE",
"575 10 OFFCURVE",
"604 36 OFFCURVE",
"626 70 CURVE",
"675 45 OFFCURVE",
"707 31 OFFCURVE",
"757 20 CURVE",
"765 71 LINE",
"714 84 OFFCURVE",
"688 95 OFFCURVE",
"647 114 CURVE",
"655 137 OFFCURVE",
"660 164 OFFCURVE",
"660 193 CURVE SMOOTH",
"660 278 OFFCURVE",
"593 362 OFFCURVE",
"493 362 CURVE SMOOTH",
"427 362 OFFCURVE",
"373 328 OFFCURVE",
"351 270 CURVE",
"349 270 LINE",
"326 328 OFFCURVE",
"273 362 OFFCURVE",
"206 362 CURVE SMOOTH",
"106 362 OFFCURVE",
"40 278 OFFCURVE",
"40 185 CURVE SMOOTH"
);
}
);
width = 765;
},
{
associatedMasterId = "9F5B1694-2A59-45B7-91CA-438A6316E2AD";
backgroundImage = {
crop = "{{0, 0}, {484.56, 131.75999999999999}}";
imagePath = venuri_symb/14_on.jpg;
locked = "1";
transform = "{7, 0, 0, 7, 15, -415}";
};
layerId = "AE064402-F955-4104-911B-0F368A49EF63";
name = mokle;
paths = (
{
closed = 1;
nodes = (
"41 90 OFFCURVE",
"87 27 OFFCURVE",
"163 -5 CURVE",
"184 30 LINE",
"139 56 OFFCURVE",
"101 100 OFFCURVE",
"101 174 CURVE SMOOTH",
"101 265 OFFCURVE",
"147 316 OFFCURVE",
"214 316 CURVE SMOOTH",
"280 316 OFFCURVE",
"326 265 OFFCURVE",
"326 185 CURVE SMOOTH",
"326 132 LINE",
"376 132 LINE",
"376 185 LINE SMOOTH",
"376 265 OFFCURVE",
"421 316 OFFCURVE",
"487 316 CURVE SMOOTH",
"554 316 OFFCURVE",
"601 265 OFFCURVE",
"601 174 CURVE SMOOTH",
"601 100 OFFCURVE",
"563 56 OFFCURVE",
"518 30 CURVE",
"539 -5 LINE",
"615 27 OFFCURVE",
"661 90 OFFCURVE",
"661 175 CURVE SMOOTH",
"661 278 OFFCURVE",
"594 362 OFFCURVE",
"494 362 CURVE SMOOTH",
"428 362 OFFCURVE",
"374 328 OFFCURVE",
"352 270 CURVE",
"350 270 LINE",
"327 328 OFFCURVE",
"274 362 OFFCURVE",
"207 362 CURVE SMOOTH",
"107 362 OFFCURVE",
"41 278 OFFCURVE",
"41 175 CURVE SMOOTH"
);
}
);
width = 701;
},
{
associatedMasterId = "9F5B1694-2A59-45B7-91CA-438A6316E2AD";
backgroundImage = {
crop = "{{0, 0}, {484.56, 131.75999999999999}}";
imagePath = venuri_symb/14_on.jpg;
locked = "1";
transform = "{7, 0, 0, 7, -25, -415}";
};
layerId = "7E0C6851-140C-4A1D-B3F2-A97238ADDDDA";
name = Origanli;
paths = (
{
closed = 1;
nodes = (
"0 90 OFFCURVE",
"46 27 OFFCURVE",
"122 -5 CURVE",
"143 30 LINE",
"98 56 OFFCURVE",
"60 100 OFFCURVE",
"60 174 CURVE SMOOTH",
"60 265 OFFCURVE",
"107 316 OFFCURVE",
"174 316 CURVE SMOOTH",
"240 316 OFFCURVE",
"287 265 OFFCURVE",
"287 195 CURVE SMOOTH",
"287 171 OFFCURVE",
"284 162 OFFCURVE",
"281 153 CURVE",
"322 142 LINE",
"328 153 OFFCURVE",
"333 174 OFFCURVE",
"333 197 CURVE SMOOTH",
"333 290 OFFCURVE",
"271 362 OFFCURVE",
"167 362 CURVE SMOOTH",
"67 362 OFFCURVE",
"0 278 OFFCURVE",
"0 175 CURVE SMOOTH"
);
},
{
closed = 1;
nodes = (
"317 234 LINE",
"337 270 OFFCURVE",
"380 316 OFFCURVE",
"446 316 CURVE SMOOTH",
"513 316 OFFCURVE",
"560 265 OFFCURVE",
"560 174 CURVE SMOOTH",
"560 100 OFFCURVE",
"522 56 OFFCURVE",
"477 30 CURVE",
"498 -5 LINE",
"574 27 OFFCURVE",
"620 90 OFFCURVE",
"620 175 CURVE SMOOTH",
"620 278 OFFCURVE",
"553 362 OFFCURVE",
"453 362 CURVE SMOOTH",
"369 362 OFFCURVE",
"319 315 OFFCURVE",
"290 268 CURVE"
);
},
{
closed = 1;
nodes = (
"744 66 LINE",
"694 80 OFFCURVE",
"643 97 OFFCURVE",
"593 120 CURVE",
"581 72 LINE",
"633 49 OFFCURVE",
"684 28 OFFCURVE",
"736 15 CURVE"
);
}
);
width = 600;
}
);
unicode = 10DD;
},
{
color = 3;
glyphname = "par-georgian";
lastChange = "2016-05-17 22:03:51 +0000";
layers = (
{
background = {
paths = (
{
closed = 1;
nodes = (
"44 32 OFFCURVE",
"133 -12 OFFCURVE",
"214 -12 CURVE SMOOTH",
"324 -12 OFFCURVE",
"374 63 OFFCURVE",
"374 149 CURVE SMOOTH",
"374 288 OFFCURVE",
"226 321 OFFCURVE",
"198 333 CURVE",
"198 335 LINE",
"240 348 OFFCURVE",
"312 369 OFFCURVE",
"312 469 CURVE SMOOTH",
"312 599 OFFCURVE",
"100 596 OFFCURVE",
"100 722 CURVE",
"71 722 LINE",
"71 682 OFFCURVE",
"74 628 OFFCURVE",
"146 576 CURVE SMOOTH",
"174 556 OFFCURVE",
"252 519 OFFCURVE",
"252 462 CURVE SMOOTH",
"252 403 OFFCURVE",
"218 363 OFFCURVE",
"147 363 CURVE",
"135 325 LINE",
"142 320 OFFCURVE",
"318 267 OFFCURVE",
"318 149 CURVE SMOOTH",
"318 77 OFFCURVE",
"280 34 OFFCURVE",
"214 34 CURVE SMOOTH",
"141 34 OFFCURVE",
"86 90 OFFCURVE",
"76 157 CURVE",
"44 147 LINE"
);
}
);
};
backgroundImage = {
crop = "{{0, 0}, {364.07999999999998, 176.88}}";
imagePath = venuri_symb/15_par.jpg;
locked = "1";
transform = "{7, 0, 0, 7, -10, -465}";
};
layerId = "9F5B1694-2A59-45B7-91CA-438A6316E2AD";
paths = (
{
closed = 1;
nodes = (
"46 53 OFFCURVE",
"98 -12 OFFCURVE",
"200 -12 CURVE SMOOTH",
"310 -12 OFFCURVE",
"371 65 OFFCURVE",
"371 167 CURVE SMOOTH",
"371 264 OFFCURVE",
"309 320 OFFCURVE",
"258 327 CURVE",
"258 329 LINE",
"309 349 OFFCURVE",
"344 386 OFFCURVE",
"344 457 CURVE SMOOTH",
"344 617 OFFCURVE",
"161 597 OFFCURVE",
"161 710 CURVE",
"111 710 LINE",
"111 555 OFFCURVE",
"288 589 OFFCURVE",
"288 450 CURVE SMOOTH",
"288 395 OFFCURVE",
"247 350 OFFCURVE",
"188 350 CURVE SMOOTH",
"150 350 LINE",
"150 304 LINE",
"195 304 LINE SMOOTH",
"256 304 OFFCURVE",
"314 258 OFFCURVE",
"314 167 CURVE SMOOTH",
"314 78 OFFCURVE",
"266 34 OFFCURVE",
"200 34 CURVE SMOOTH",
"135 34 OFFCURVE",
"95 76 OFFCURVE",
"82 146 CURVE",
"35 131 LINE"
);
}
);
width = 411;
},
{
associatedMasterId = "9F5B1694-2A59-45B7-91CA-438A6316E2AD";
background = {
paths = (
{
closed = 1;
nodes = (
"314 77 OFFCURVE",
"276 34 OFFCURVE",
"210 34 CURVE SMOOTH",
"137 34 OFFCURVE",
"82 90 OFFCURVE",
"72 157 CURVE",
"40 147 LINE",
"40 32 OFFCURVE",
"129 -12 OFFCURVE",
"210 -12 CURVE SMOOTH",
"320 -12 OFFCURVE",
"370 63 OFFCURVE",
"370 149 CURVE SMOOTH",
"370 247 OFFCURVE",
"296 293 OFFCURVE",
"240 305 CURVE SMOOTH",
"188 316 OFFCURVE",
"156 322 OFFCURVE",
"138 371 CURVE",
"106 365 LINE",
"106 339 OFFCURVE",
"118 312 OFFCURVE",
"151 292 CURVE SMOOTH",
"188 269 OFFCURVE",
"314 258 OFFCURVE",
"314 149 CURVE SMOOTH"
);
}
);
};
backgroundImage = {
crop = "{{0, 0}, {364.07999999999998, 176.88}}";
imagePath = venuri_symb/15_par.jpg;
locked = "1";
transform = "{7, 0, 0, 7, -14, -465}";
};
layerId = "5CC39B38-5901-4557-86CE-C0B04B6EAB0A";
name = "Regular Apr 30 16, 10:31";
paths = (
{
closed = 1;
nodes = (
"40 32 OFFCURVE",
"129 -12 OFFCURVE",
"210 -12 CURVE SMOOTH",
"320 -12 OFFCURVE",
"370 63 OFFCURVE",
"370 149 CURVE SMOOTH",
"370 288 OFFCURVE",
"247 299 OFFCURVE",
"194 335 CURVE",
"194 337 LINE",
"236 350 OFFCURVE",
"308 369 OFFCURVE",
"308 469 CURVE SMOOTH",
"308 599 OFFCURVE",
"96 596 OFFCURVE",
"96 722 CURVE",
"67 722 LINE",
"67 682 OFFCURVE",
"70 628 OFFCURVE",
"142 576 CURVE SMOOTH",
"170 556 OFFCURVE",
"248 519 OFFCURVE",
"248 462 CURVE SMOOTH",
"248 403 OFFCURVE",
"214 363 OFFCURVE",
"143 363 CURVE",
"133 349 LINE",
"154 263 OFFCURVE",
"314 299 OFFCURVE",
"314 149 CURVE SMOOTH",
"314 77 OFFCURVE",
"276 34 OFFCURVE",
"210 34 CURVE SMOOTH",
"137 34 OFFCURVE",
"82 90 OFFCURVE",
"72 157 CURVE",
"40 147 LINE"
);
}
);
width = 410;
},
{
associatedMasterId = "9F5B1694-2A59-45B7-91CA-438A6316E2AD";
background = {
paths = (
{
closed = 1;
nodes = (
"314 77 OFFCURVE",
"276 34 OFFCURVE",
"210 34 CURVE SMOOTH",
"137 34 OFFCURVE",
"82 90 OFFCURVE",
"72 157 CURVE",
"40 147 LINE",
"40 32 OFFCURVE",
"129 -12 OFFCURVE",
"210 -12 CURVE SMOOTH",
"320 -12 OFFCURVE",
"370 63 OFFCURVE",
"370 149 CURVE SMOOTH",
"370 247 OFFCURVE",
"296 293 OFFCURVE",
"240 305 CURVE SMOOTH",
"188 316 OFFCURVE",
"156 322 OFFCURVE",
"138 371 CURVE",
"106 365 LINE",
"106 339 OFFCURVE",
"118 312 OFFCURVE",
"151 292 CURVE SMOOTH",
"188 269 OFFCURVE",
"314 258 OFFCURVE",
"314 149 CURVE SMOOTH"
);
}
);
};
backgroundImage = {
crop = "{{0, 0}, {364.07999999999998, 176.88}}";
imagePath = venuri_symb/15_par.jpg;
transform = "{7, 0, 0, 7, -14, -465}";
};
layerId = "B408E1A5-1A2C-4598-BECB-A7D87F9E339A";
name = "Regular Apr 30 16, 14:51";
paths = (
{
closed = 1;
nodes = (
"40 32 OFFCURVE",
"129 -12 OFFCURVE",
"210 -12 CURVE SMOOTH",
"320 -12 OFFCURVE",
"370 63 OFFCURVE",
"370 149 CURVE SMOOTH",
"370 288 OFFCURVE",
"243 310 OFFCURVE",
"194 335 CURVE",
"194 337 LINE",
"236 350 OFFCURVE",
"308 369 OFFCURVE",
"308 469 CURVE SMOOTH",
"308 599 OFFCURVE",
"96 596 OFFCURVE",
"96 722 CURVE",
"67 722 LINE",
"67 682 OFFCURVE",
"70 628 OFFCURVE",
"142 576 CURVE SMOOTH",
"170 556 OFFCURVE",
"248 519 OFFCURVE",
"248 462 CURVE SMOOTH",
"248 403 OFFCURVE",
"214 363 OFFCURVE",
"143 363 CURVE",
"131 332 LINE",
"145 305 OFFCURVE",
"314 267 OFFCURVE",
"314 149 CURVE SMOOTH",
"314 77 OFFCURVE",
"276 34 OFFCURVE",
"210 34 CURVE SMOOTH",
"137 34 OFFCURVE",
"82 90 OFFCURVE",
"72 157 CURVE",
"40 147 LINE"
);
}
);
width = 410;
},
{
associatedMasterId = "9F5B1694-2A59-45B7-91CA-438A6316E2AD";
background = {
paths = (
{
closed = 1;
nodes = (
"314 77 OFFCURVE",
"276 34 OFFCURVE",
"210 34 CURVE SMOOTH",
"137 34 OFFCURVE",
"82 90 OFFCURVE",
"72 157 CURVE",
"40 147 LINE",
"40 32 OFFCURVE",
"129 -12 OFFCURVE",
"210 -12 CURVE SMOOTH",
"320 -12 OFFCURVE",
"370 63 OFFCURVE",
"370 149 CURVE SMOOTH",
"370 247 OFFCURVE",
"296 293 OFFCURVE",
"240 305 CURVE SMOOTH",
"188 316 OFFCURVE",
"156 322 OFFCURVE",
"138 371 CURVE",
"106 365 LINE",
"106 339 OFFCURVE",
"118 312 OFFCURVE",
"151 292 CURVE SMOOTH",
"188 269 OFFCURVE",
"314 258 OFFCURVE",
"314 149 CURVE SMOOTH"
);
}
);
};
backgroundImage = {
crop = "{{0, 0}, {364.07999999999998, 176.88}}";
imagePath = venuri_symb/15_par.jpg;
locked = "1";
transform = "{7, 0, 0, 7, -14, -465}";
};
layerId = "A4C44568-D48C-4349-A067-70E4B7DA6E7A";
name = "Regular May 10 16, 13:23";
paths = (
{
closed = 1;
nodes = (
"40 32 OFFCURVE",
"129 -12 OFFCURVE",
"210 -12 CURVE SMOOTH",
"320 -12 OFFCURVE",
"370 63 OFFCURVE",
"370 149 CURVE SMOOTH",
"370 288 OFFCURVE",
"222 321 OFFCURVE",
"194 333 CURVE",
"194 335 LINE",
"236 348 OFFCURVE",
"308 369 OFFCURVE",
"308 469 CURVE SMOOTH",
"308 599 OFFCURVE",
"96 596 OFFCURVE",
"96 722 CURVE",
"67 722 LINE",
"67 682 OFFCURVE",
"70 628 OFFCURVE",
"142 576 CURVE SMOOTH",
"170 556 OFFCURVE",
"248 519 OFFCURVE",
"248 462 CURVE SMOOTH",
"248 403 OFFCURVE",
"214 363 OFFCURVE",
"143 363 CURVE",
"131 325 LINE",
"138 320 OFFCURVE",
"314 267 OFFCURVE",
"314 149 CURVE SMOOTH",
"314 77 OFFCURVE",
"276 34 OFFCURVE",
"210 34 CURVE SMOOTH",
"137 34 OFFCURVE",
"82 90 OFFCURVE",
"72 157 CURVE",
"40 147 LINE"
);
}
);
width = 410;
}
);
unicode = 10DE;
},
{
color = 3;
glyphname = "zhar-georgian";
lastChange = "2016-05-17 20:59:49 +0000";
layers = (
{
backgroundImage = {
crop = "{{0, 0}, {322.31999999999999, 185.28}}";
imagePath = venuri_symb/16_zhan.jpg;
locked = "1";
transform = "{7, 0, 0, 7, -724, -437}";
};
layerId = "9F5B1694-2A59-45B7-91CA-438A6316E2AD";
paths = (
{
closed = 1;
nodes = (
"63 58 OFFCURVE",
"88 -12 OFFCURVE",
"174 -12 CURVE",
"242 -12 OFFCURVE",
"287 45 OFFCURVE",
"287 97 CURVE",
"287 155 OFFCURVE",
"255 188 OFFCURVE",
"210 209 CURVE",
"210 211 LINE",
"279 211 OFFCURVE",
"371 246 OFFCURVE",
"396 303 CURVE",
"398 303 LINE",
"398 -188 LINE",
"398 -270 OFFCURVE",
"342 -326 OFFCURVE",
"266 -326 CURVE",
"187 -326 OFFCURVE",
"126 -282 OFFCURVE",
"126 -200 CURVE",
"126 -152 OFFCURVE",
"141 -119 OFFCURVE",
"163 -92 CURVE",
"181 -143 LINE",
"72 -72 LINE",
"127 -72 LINE",
"95 -97 OFFCURVE",
"68 -138 OFFCURVE",
"68 -203 CURVE",
"68 -299 OFFCURVE",
"143 -372 OFFCURVE",
"266 -372 CURVE",
"386 -372 OFFCURVE",
"454 -284 OFFCURVE",
"454 -194 CURVE",
"454 362 LINE",
"398 362 LINE",
"364 295 OFFCURVE",
"297 247 OFFCURVE",
"145 247 CURVE",
"133 213 LINE",
"164 193 OFFCURVE",
"237 175 OFFCURVE",
"237 102 CURVE",
"237 52 OFFCURVE",
"209 28 OFFCURVE",
"174 28 CURVE",
"121 28 OFFCURVE",
"107 71 OFFCURVE",
"100 101 CURVE",
"60 89 LINE"
);
}
);
width = 524;
},
{
associatedMasterId = "9F5B1694-2A59-45B7-91CA-438A6316E2AD";
backgroundImage = {
crop = "{{0, 0}, {322.31999999999999, 185.28}}";
imagePath = venuri_symb/16_zhan.jpg;
locked = "1";
transform = "{7, 0, 0, 7, -691, -437}";
};
layerId = "F0DA4766-2318-41D4-A128-11E8ABCFB946";
name = "Regular May 17 16, 14:29";
paths = (
{
closed = 1;
nodes = (
"432 -188 LINE SMOOTH",
"432 -270 OFFCURVE",
"381 -326 OFFCURVE",
"295 -326 CURVE SMOOTH",
"209 -326 OFFCURVE",
"148 -282 OFFCURVE",
"148 -176 CURVE SMOOTH",
"148 -137 OFFCURVE",
"158 -105 OFFCURVE",
"171 -82 CURVE",
"135 -63 LINE",
"113 -94 OFFCURVE",
"90 -141 OFFCURVE",
"90 -193 CURVE SMOOTH",
"90 -299 OFFCURVE",
"165 -372 OFFCURVE",
"295 -372 CURVE SMOOTH",
"425 -372 OFFCURVE",
"488 -284 OFFCURVE",
"488 -194 CURVE SMOOTH",
"488 440 LINE",
"442 440 LINE",
"408 366 OFFCURVE",
"360 263 OFFCURVE",
"179 263 CURVE",
"162 225 LINE",
"193 205 OFFCURVE",
"258 182 OFFCURVE",
"258 114 CURVE",
"258 62 OFFCURVE",
"228 48 OFFCURVE",
"207 48 CURVE SMOOTH",
"186 48 OFFCURVE",
"154 68 OFFCURVE",
"154 106 CURVE SMOOTH",
"154 114 OFFCURVE",
"156 123 OFFCURVE",
"159 133 CURVE",
"111 147 LINE",
"104 129 OFFCURVE",
"100 111 OFFCURVE",
"100 96 CURVE SMOOTH",
"100 40 OFFCURVE",
"144 2 OFFCURVE",
"206 0 CURVE",
"286 2 OFFCURVE",
"318 55 OFFCURVE",
"318 114 CURVE",
"318 162 OFFCURVE",
"287 209 OFFCURVE",
"254 222 CURVE",
"254 224 LINE",
"292 224 OFFCURVE",
"391 263 OFFCURVE",
"430 329 CURVE",
"432 328 LINE"
);
}
);
width = 600;
},
{
associatedMasterId = "9F5B1694-2A59-45B7-91CA-438A6316E2AD";
backgroundImage = {
crop = "{{0, 0}, {322.31999999999999, 185.28}}";
imagePath = venuri_symb/16_zhan.jpg;
locked = "1";
transform = "{7, 0, 0, 7, -691, -437}";
};
layerId = "C05EE9E8-31B5-4E98-836A-FAA936424E24";
name = "Regular May 17 16, 14:47";
paths = (
{
closed = 1;
nodes = (
"432 -188 LINE",
"432 -270 OFFCURVE",
"376 -326 OFFCURVE",
"300 -326 CURVE SMOOTH",
"221 -326 OFFCURVE",
"150 -278 OFFCURVE",
"150 -192 CURVE SMOOTH",
"150 -139 OFFCURVE",
"169 -110 OFFCURVE",
"188 -93 CURVE",
"156 -66 LINE",
"132 -81 OFFCURVE",
"92 -124 OFFCURVE",
"92 -203 CURVE SMOOTH",
"92 -289 OFFCURVE",
"177 -372 OFFCURVE",
"300 -372 CURVE SMOOTH",
"420 -372 OFFCURVE",
"488 -284 OFFCURVE",
"488 -194 CURVE",
"488 440 LINE",
"442 440 LINE",
"408 366 OFFCURVE",
"360 263 OFFCURVE",
"179 263 CURVE",
"162 229 LINE",
"193 209 OFFCURVE",
"265 182 OFFCURVE",
"265 114 CURVE",
"265 70 OFFCURVE",
"243 44 OFFCURVE",
"207 44 CURVE",
"169 44 OFFCURVE",
"147 67 OFFCURVE",
"147 106 CURVE",
"147 114 OFFCURVE",
"149 123 OFFCURVE",
"152 133 CURVE",
"111 147 LINE",
"104 129 OFFCURVE",
"100 111 OFFCURVE",
"100 96 CURVE",
"100 40 OFFCURVE",
"144 2 OFFCURVE",
"206 0 CURVE",
"286 2 OFFCURVE",
"318 55 OFFCURVE",
"318 114 CURVE",
"318 162 OFFCURVE",
"287 209 OFFCURVE",
"254 222 CURVE",
"254 224 LINE",
"292 224 OFFCURVE",
"391 263 OFFCURVE",
"430 329 CURVE",
"432 328 LINE"
);
}
);
width = 600;
},
{
associatedMasterId = "9F5B1694-2A59-45B7-91CA-438A6316E2AD";
backgroundImage = {
crop = "{{0, 0}, {322.31999999999999, 185.28}}";
imagePath = venuri_symb/16_zhan.jpg;
locked = "1";
transform = "{7, 0, 0, 7, -691, -437}";
};
layerId = "377498F4-2A0F-4987-AFA1-8DD7089A2128";
name = "Regular May 17 16, 15:50";
paths = (
{
closed = 1;
nodes = (
"432 -188 LINE",
"432 -270 OFFCURVE",
"376 -326 OFFCURVE",
"300 -326 CURVE SMOOTH",
"221 -326 OFFCURVE",
"150 -278 OFFCURVE",
"150 -192 CURVE SMOOTH",
"150 -139 OFFCURVE",
"169 -110 OFFCURVE",
"188 -93 CURVE",
"156 -66 LINE",
"132 -81 OFFCURVE",
"92 -124 OFFCURVE",
"92 -203 CURVE SMOOTH",
"92 -289 OFFCURVE",
"177 -372 OFFCURVE",
"300 -372 CURVE SMOOTH",
"420 -372 OFFCURVE",
"488 -284 OFFCURVE",
"488 -194 CURVE",
"488 440 LINE",
"442 440 LINE",
"408 366 OFFCURVE",
"360 263 OFFCURVE",
"179 263 CURVE",
"162 229 LINE",
"193 209 OFFCURVE",
"268 187 OFFCURVE",
"268 114 CURVE",
"268 64 OFFCURVE",
"246 41 OFFCURVE",
"211 41 CURVE SMOOTH",
"174 41 OFFCURVE",
"143 71 OFFCURVE",
"138 121 CURVE",
"95 114 LINE",
"95 54 OFFCURVE",
"137 0 OFFCURVE",
"211 0 CURVE SMOOTH",
"284 0 OFFCURVE",
"318 55 OFFCURVE",
"318 114 CURVE SMOOTH",
"318 162 OFFCURVE",
"287 201 OFFCURVE",
"254 222 CURVE",
"254 224 LINE",
"292 224 OFFCURVE",
"391 263 OFFCURVE",
"430 329 CURVE",
"432 328 LINE"
);
}
);
width = 600;
}
);
unicode = 10DF;
},
{
glyphname = "rae-georgian";
lastChange = "2016-05-17 20:47:27 +0000";
layers = (
{
background = {
paths = (
{
closed = 1;
nodes = (
"598 16 OFFCURVE",
"660 83 OFFCURVE",
"660 193 CURVE SMOOTH",
"660 278 OFFCURVE",
"593 362 OFFCURVE",
"493 362 CURVE SMOOTH",
"427 362 OFFCURVE",
"373 328 OFFCURVE",
"351 270 CURVE",
"349 270 LINE",
"326 328 OFFCURVE",
"273 362 OFFCURVE",
"206 362 CURVE SMOOTH",
"106 362 OFFCURVE",
"40 278 OFFCURVE",
"40 175 CURVE SMOOTH",
"40 90 OFFCURVE",
"82 23 OFFCURVE",
"158 -9 CURVE",
"179 26 LINE",
"134 52 OFFCURVE",
"100 100 OFFCURVE",
"100 174 CURVE SMOOTH",
"100 265 OFFCURVE",
"146 316 OFFCURVE",
"213 316 CURVE SMOOTH",
"279 316 OFFCURVE",
"325 265 OFFCURVE",
"325 185 CURVE SMOOTH",
"325 132 LINE",
"375 132 LINE",
"375 185 LINE SMOOTH",
"375 265 OFFCURVE",
"420 316 OFFCURVE",
"486 316 CURVE SMOOTH",
"553 316 OFFCURVE",
"600 265 OFFCURVE",
"600 184 CURVE SMOOTH",
"600 98 OFFCURVE",
"561 51 OFFCURVE",
"506 23 CURVE",
"527 -12 LINE"
);
}
);
};
backgroundImage = {
crop = "{{0, 0}, {463.68000000000001, 172.31999999999999}}";
imagePath = venuri_symb/17_rae.jpg;
locked = "1";
transform = "{7, 0, 0, 7, -960, -417}";
};
layerId = "9F5B1694-2A59-45B7-91CA-438A6316E2AD";
paths = (
{
closed = 1;
nodes = (
"40 99 OFFCURVE",
"74 40 OFFCURVE",
"158 -9 CURVE",
"181 29 LINE",
"142 61 OFFCURVE",
"100 108 OFFCURVE",
"100 179 CURVE SMOOTH",
"100 267 OFFCURVE",
"147 316 OFFCURVE",
"213 316 CURVE SMOOTH",
"279 316 OFFCURVE",
"325 265 OFFCURVE",
"325 185 CURVE SMOOTH",
"325 132 LINE",
"375 132 LINE",
"375 185 LINE SMOOTH",
"375 265 OFFCURVE",
"420 316 OFFCURVE",
"486 316 CURVE SMOOTH",
"553 316 OFFCURVE",
"600 265 OFFCURVE",
"600 184 CURVE SMOOTH",
"600 110 OFFCURVE",
"559 62 OFFCURVE",
"519 29 CURVE",
"542 -9 LINE",
"607 29 OFFCURVE",
"660 86 OFFCURVE",
"660 185 CURVE SMOOTH",
"660 278 OFFCURVE",
"593 362 OFFCURVE",
"493 362 CURVE SMOOTH",
"427 362 OFFCURVE",
"373 328 OFFCURVE",
"351 270 CURVE",
"349 270 LINE",
"326 328 OFFCURVE",
"269 362 OFFCURVE",
"224 362 CURVE SMOOTH",
"176 362 OFFCURVE",
"147 348 OFFCURVE",
"115 314 CURVE",
"113 315 LINE",
"150 399 OFFCURVE",
"238 446 OFFCURVE",
"294 563 CURVE SMOOTH",
"316 609 OFFCURVE",
"328 647 OFFCURVE",
"328 710 CURVE",
"274 710 LINE",
"274 655 OFFCURVE",
"262 619 OFFCURVE",
"241 577 CURVE SMOOTH",
"176 447 OFFCURVE",
"45 360 OFFCURVE",
"40 185 CURVE SMOOTH"
);
}
);
width = 700;
}
);
unicode = 10E0;
},
{
glyphname = "san-georgian";
lastChange = "2016-05-17 20:59:36 +0000";
layers = (
{
backgroundImage = {
crop = "{{0, 0}, {519.60000000000002, 167.28}}";
imagePath = venuri_symb/18_san.jpg;
locked = "1";
transform = "{7, 0, 0, 7, -3194, -368}";
};
layerId = "9F5B1694-2A59-45B7-91CA-438A6316E2AD";
paths = (
{
closed = 1;
nodes = (
"420 76 OFFCURVE",
"363 -12 OFFCURVE",
"243 -12 CURVE SMOOTH",
"123 -12 OFFCURVE",
"70 81 OFFCURVE",
"70 171 CURVE SMOOTH",
"70 722 LINE",
"126 722 LINE",
"126 177 LINE SMOOTH",
"126 95 OFFCURVE",
"167 34 OFFCURVE",
"243 34 CURVE SMOOTH",
"319 34 OFFCURVE",
"360 90 OFFCURVE",
"360 148 CURVE",
"360 230 OFFCURVE",
"288 259 OFFCURVE",
"288 322 CURVE SMOOTH",
"288 345 OFFCURVE",
"296 367 OFFCURVE",
"317 388 CURVE",
"359 372 LINE",
"347 355 OFFCURVE",
"342 341 OFFCURVE",
"342 329 CURVE SMOOTH",
"342 277 OFFCURVE",
"420 247 OFFCURVE",
"420 156 CURVE SMOOTH"
);
}
);
width = 460;
},
{
associatedMasterId = "9F5B1694-2A59-45B7-91CA-438A6316E2AD";
backgroundImage = {
crop = "{{0, 0}, {519.60000000000002, 167.28}}";
imagePath = venuri_symb/18_san.jpg;
locked = "1";
transform = "{7, 0, 0, 7, -3164, -368}";
};
layerId = "4BCEA096-407C-4A24-AFF0-A19E29BED8E7";
name = "Regular May 17 16, 14:51";
paths = (
{
closed = 1;
nodes = (
"450 76 OFFCURVE",
"393 -12 OFFCURVE",
"273 -12 CURVE SMOOTH",
"153 -12 OFFCURVE",
"100 76 OFFCURVE",
"100 166 CURVE SMOOTH",
"100 722 LINE",
"156 722 LINE",
"156 172 LINE SMOOTH",
"156 90 OFFCURVE",
"197 34 OFFCURVE",
"273 34 CURVE SMOOTH",
"349 34 OFFCURVE",
"390 90 OFFCURVE",
"390 148 CURVE",
"390 224 OFFCURVE",
"317 246 OFFCURVE",
"317 318 CURVE",
"317 357 OFFCURVE",
"334 384 OFFCURVE",
"357 387 CURVE",
"380 372 LINE",
"365 352 OFFCURVE",
"363 340 OFFCURVE",
"363 326 CURVE SMOOTH",
"363 284 OFFCURVE",
"450 232 OFFCURVE",
"450 156 CURVE SMOOTH"
);
}
);
width = 600;
}
);
unicode = 10E1;
},
{
glyphname = "tar-georgian";
lastChange = "2016-05-17 21:12:42 +0000";
layers = (
{
background = {
paths = (
{
closed = 1;
nodes = (
"60 -223 OFFCURVE",
"210 -372 OFFCURVE",
"394 -372 CURVE SMOOTH",
"578 -372 OFFCURVE",
"728 -223 OFFCURVE",
"728 -20 CURVE SMOOTH",
"728 155 OFFCURVE",
"612 274 OFFCURVE",
"467 312 CURVE",
"480 327 OFFCURVE",
"488 355 OFFCURVE",
"488 373 CURVE SMOOTH",
"488 429 OFFCURVE",
"446 476 OFFCURVE",
"394 476 CURVE SMOOTH",
"341 476 OFFCURVE",
"299 429 OFFCURVE",
"299 373 CURVE SMOOTH",
"299 355 OFFCURVE",
"307 327 OFFCURVE",
"320 312 CURVE",
"176 274 OFFCURVE",
"60 154 OFFCURVE",
"60 -20 CURVE SMOOTH"
);
},
{
closed = 1;
nodes = (
"120 133 OFFCURVE",
"209 245 OFFCURVE",
"329 278 CURVE",
"310 259 OFFCURVE",
"299 232 OFFCURVE",
"299 203 CURVE SMOOTH",
"299 147 OFFCURVE",
"341 100 OFFCURVE",
"394 100 CURVE SMOOTH",
"446 100 OFFCURVE",
"488 147 OFFCURVE",
"488 203 CURVE SMOOTH",
"488 233 OFFCURVE",
"476 260 OFFCURVE",
"457 279 CURVE",
"578 247 OFFCURVE",
"668 134 OFFCURVE",
"668 -20 CURVE SMOOTH",
"668 -197 OFFCURVE",
"545 -326 OFFCURVE",
"395 -326 CURVE SMOOTH",
"243 -326 OFFCURVE",
"120 -197 OFFCURVE",
"120 -20 CURVE SMOOTH"
);
},
{
closed = 1;
nodes = (
"335 238 OFFCURVE",
"361 267 OFFCURVE",
"394 267 CURVE SMOOTH",
"426 267 OFFCURVE",
"452 238 OFFCURVE",
"452 203 CURVE SMOOTH",
"452 168 OFFCURVE",
"426 139 OFFCURVE",
"394 139 CURVE SMOOTH",
"361 139 OFFCURVE",
"335 168 OFFCURVE",
"335 203 CURVE SMOOTH"
);
},
{
closed = 1;
nodes = (
"335 408 OFFCURVE",
"361 437 OFFCURVE",
"394 437 CURVE SMOOTH",
"426 437 OFFCURVE",
"452 408 OFFCURVE",
"452 373 CURVE SMOOTH",
"452 338 OFFCURVE",
"426 309 OFFCURVE",
"394 309 CURVE SMOOTH",
"361 309 OFFCURVE",
"335 338 OFFCURVE",
"335 373 CURVE SMOOTH"
);
}
);
};
backgroundImage = {
crop = "{{0, 0}, {404.88, 175.91999999999999}}";
imagePath = venuri_symb/19_tar.jpg;
locked = "1";
transform = "{7, 0, 0, 7, -2090, -443}";
};
guideLines = (
{
angle = 90;
position = "{120, -20}";
},
{
angle = 90;
position = "{668, -20}";
},
{
position = "{394, -326}";
},
{
position = "{394, 287}";
}
);
layerId = "9F5B1694-2A59-45B7-91CA-438A6316E2AD";
paths = (
{
closed = 1;
nodes = (
"60 -223 OFFCURVE",
"210 -372 OFFCURVE",
"394 -372 CURVE SMOOTH",
"578 -372 OFFCURVE",
"728 -223 OFFCURVE",
"728 -20 CURVE SMOOTH",
"728 154 OFFCURVE",
"604 292 OFFCURVE",
"455 317 CURVE",
"478 331 OFFCURVE",
"493 361 OFFCURVE",
"493 389 CURVE SMOOTH",
"493 445 OFFCURVE",
"447 487 OFFCURVE",
"394 487 CURVE SMOOTH",
"341 487 OFFCURVE",
"295 445 OFFCURVE",
"295 389 CURVE SMOOTH",
"295 361 OFFCURVE",
"310 331 OFFCURVE",
"333 317 CURVE",
"184 292 OFFCURVE",
"60 154 OFFCURVE",
"60 -20 CURVE SMOOTH"
);
},
{
closed = 1;
nodes = (
"120 133 OFFCURVE",
"204 246 OFFCURVE",
"341 282 CURVE",
"308 263 OFFCURVE",
"295 233 OFFCURVE",
"295 204 CURVE SMOOTH",
"295 141 OFFCURVE",
"341 99 OFFCURVE",
"394 99 CURVE SMOOTH",
"447 99 OFFCURVE",
"493 140 OFFCURVE",
"493 203 CURVE SMOOTH",
"493 232 OFFCURVE",
"480 263 OFFCURVE",
"447 282 CURVE",
"580 246 OFFCURVE",
"668 133 OFFCURVE",
"668 -20 CURVE SMOOTH",
"668 -197 OFFCURVE",
"546 -326 OFFCURVE",
"394 -326 CURVE SMOOTH",
"243 -326 OFFCURVE",
"120 -197 OFFCURVE",
"120 -20 CURVE SMOOTH"
);
},
{
closed = 1;
nodes = (
"335 253 OFFCURVE",
"361 282 OFFCURVE",
"394 282 CURVE SMOOTH",
"427 282 OFFCURVE",
"453 253 OFFCURVE",
"453 208 CURVE SMOOTH",
"453 163 OFFCURVE",
"427 134 OFFCURVE",
"394 134 CURVE SMOOTH",
"361 134 OFFCURVE",
"335 163 OFFCURVE",
"335 208 CURVE SMOOTH"
);
},
{
closed = 1;
nodes = (
"335 425 OFFCURVE",
"361 452 OFFCURVE",
"394 452 CURVE SMOOTH",
"427 452 OFFCURVE",
"453 425 OFFCURVE",
"453 384 CURVE SMOOTH",
"453 349 OFFCURVE",
"427 317 OFFCURVE",
"394 317 CURVE SMOOTH",
"361 317 OFFCURVE",
"335 349 OFFCURVE",
"335 384 CURVE SMOOTH"
);
}
);
width = 788;
},
{
associatedMasterId = "9F5B1694-2A59-45B7-91CA-438A6316E2AD";
backgroundImage = {
crop = "{{0, 0}, {404.88, 175.91999999999999}}";
imagePath = venuri_symb/19_tar.jpg;
locked = "1";
transform = "{7, 0, 0, 7, -2217, -443}";
};
guideLines = (
{
angle = 90;
position = "{-7, -20}";
},
{
angle = 90;
position = "{541, -20}";
},
{
position = "{267, -326}";
},
{
position = "{267, 287}";
}
);
layerId = "6D5A8B57-2325-4A09-A4C4-ECD7BF2092BC";
name = "Regular Apr 30 16, 12:48";
paths = (
{
closed = 1;
nodes = (
"451 -372 OFFCURVE",
"601 -213 OFFCURVE",
"601 -20 CURVE SMOOTH",
"601 174 OFFCURVE",
"451 333 OFFCURVE",
"267 333 CURVE SMOOTH",
"83 333 OFFCURVE",
"-67 174 OFFCURVE",
"-67 -20 CURVE SMOOTH",
"-67 -213 OFFCURVE",
"83 -372 OFFCURVE",
"267 -372 CURVE SMOOTH"
);
},
{
closed = 1;
nodes = (
"116 -326 OFFCURVE",
"-7 -187 OFFCURVE",
"-7 -20 CURVE SMOOTH",
"-7 148 OFFCURVE",
"116 287 OFFCURVE",
"268 287 CURVE SMOOTH",
"418 287 OFFCURVE",
"541 148 OFFCURVE",
"541 -20 CURVE SMOOTH",
"541 -187 OFFCURVE",
"418 -326 OFFCURVE",
"268 -326 CURVE SMOOTH"
);
},
{
closed = 1;
nodes = (
"317 91 OFFCURVE",
"356 134 OFFCURVE",
"356 188 CURVE SMOOTH",
"356 248 OFFCURVE",
"311 297 OFFCURVE",
"257 297 CURVE SMOOTH",
"207 297 OFFCURVE",
"168 254 OFFCURVE",
"168 200 CURVE SMOOTH",
"168 140 OFFCURVE",
"213 91 OFFCURVE",
"267 91 CURVE SMOOTH"
);
},
{
closed = 1;
nodes = (
"232 130 OFFCURVE",
"204 160 OFFCURVE",
"204 198 CURVE SMOOTH",
"204 231 OFFCURVE",
"228 258 OFFCURVE",
"259 258 CURVE SMOOTH",
"292 258 OFFCURVE",
"320 228 OFFCURVE",
"320 190 CURVE SMOOTH",
"320 157 OFFCURVE",
"296 130 OFFCURVE",
"265 130 CURVE SMOOTH"
);
},
{
closed = 1;
nodes = (
"309 258 OFFCURVE",
"348 301 OFFCURVE",
"348 355 CURVE SMOOTH",
"348 415 OFFCURVE",
"303 464 OFFCURVE",
"249 464 CURVE SMOOTH",
"199 464 OFFCURVE",
"160 421 OFFCURVE",
"160 367 CURVE SMOOTH",
"160 307 OFFCURVE",
"205 258 OFFCURVE",
"259 258 CURVE SMOOTH"
);
},
{
closed = 1;
nodes = (
"224 297 OFFCURVE",
"196 327 OFFCURVE",
"196 365 CURVE SMOOTH",
"196 398 OFFCURVE",
"220 425 OFFCURVE",
"251 425 CURVE SMOOTH",
"284 425 OFFCURVE",
"312 395 OFFCURVE",
"312 357 CURVE SMOOTH",
"312 324 OFFCURVE",
"288 297 OFFCURVE",
"257 297 CURVE SMOOTH"
);
}
);
width = 600;
},
{
associatedMasterId = "9F5B1694-2A59-45B7-91CA-438A6316E2AD";
backgroundImage = {
crop = "{{0, 0}, {404.88, 175.91999999999999}}";
imagePath = venuri_symb/19_tar.jpg;
locked = "1";
transform = "{7, 0, 0, 7, -2217, -443}";
};
guideLines = (
{
angle = 90;
position = "{-7, -20}";
},
{
angle = 90;
position = "{541, -20}";
},
{
position = "{267, -326}";
},
{
position = "{267, 287}";
}
);
layerId = "5867B9D4-B480-4520-81EE-8696B86DF2E1";
name = "Regular Apr 30 16, 13:39";
paths = (
{
closed = 1;
nodes = (
"451 -372 OFFCURVE",
"601 -213 OFFCURVE",
"601 -20 CURVE SMOOTH",
"601 153 OFFCURVE",
"482 298 OFFCURVE",
"326 327 CURVE SMOOTH",
"307 331 OFFCURVE",
"280 278 OFFCURVE",
"260 278 CURVE SMOOTH",
"232 278 OFFCURVE",
"212 329 OFFCURVE",
"185 322 CURVE SMOOTH",
"41 284 OFFCURVE",
"-67 144 OFFCURVE",
"-67 -20 CURVE SMOOTH",
"-67 -213 OFFCURVE",
"83 -372 OFFCURVE",
"267 -372 CURVE SMOOTH"
);
},
{
closed = 1;
nodes = (
"116 -326 OFFCURVE",
"-7 -187 OFFCURVE",
"-7 -20 CURVE SMOOTH",
"-7 148 OFFCURVE",
"116 287 OFFCURVE",
"268 287 CURVE SMOOTH",
"418 287 OFFCURVE",
"541 148 OFFCURVE",
"541 -20 CURVE SMOOTH",
"541 -187 OFFCURVE",
"418 -326 OFFCURVE",
"268 -326 CURVE SMOOTH"
);
},
{
closed = 1;
nodes = (
"317 101 OFFCURVE",
"356 144 OFFCURVE",
"356 198 CURVE SMOOTH",
"356 258 OFFCURVE",
"311 307 OFFCURVE",
"257 307 CURVE SMOOTH",
"207 307 OFFCURVE",
"168 264 OFFCURVE",
"168 210 CURVE SMOOTH",
"168 150 OFFCURVE",
"210 101 OFFCURVE",
"267 101 CURVE SMOOTH"
);
},
{
closed = 1;
nodes = (
"232 140 OFFCURVE",
"204 170 OFFCURVE",
"204 208 CURVE SMOOTH",
"204 241 OFFCURVE",
"228 268 OFFCURVE",
"259 268 CURVE SMOOTH",
"292 268 OFFCURVE",
"320 238 OFFCURVE",
"320 200 CURVE SMOOTH",
"320 167 OFFCURVE",
"296 140 OFFCURVE",
"265 140 CURVE SMOOTH"
);
},
{
closed = 1;
nodes = (
"309 268 OFFCURVE",
"350 311 OFFCURVE",
"351 365 CURVE SMOOTH",
"353 425 OFFCURVE",
"313 474 OFFCURVE",
"256 474 CURVE SMOOTH",
"206 474 OFFCURVE",
"166 431 OFFCURVE",
"164 377 CURVE SMOOTH",
"162 317 OFFCURVE",
"205 268 OFFCURVE",
"259 268 CURVE SMOOTH"
);
},
{
closed = 1;
nodes = (
"225 307 OFFCURVE",
"198 337 OFFCURVE",
"200 375 CURVE SMOOTH",
"201 408 OFFCURVE",
"226 435 OFFCURVE",
"257 435 CURVE SMOOTH",
"290 435 OFFCURVE",
"317 405 OFFCURVE",
"315 367 CURVE SMOOTH",
"314 334 OFFCURVE",
"289 307 OFFCURVE",
"258 307 CURVE SMOOTH"
);
}
);
width = 600;
},
{
associatedMasterId = "9F5B1694-2A59-45B7-91CA-438A6316E2AD";
background = {
paths = (
{
closed = 1;
nodes = (
"-67 -213 OFFCURVE",
"83 -372 OFFCURVE",
"267 -372 CURVE SMOOTH",
"451 -372 OFFCURVE",
"601 -213 OFFCURVE",
"601 -20 CURVE SMOOTH",
"601 148 OFFCURVE",
"489 289 OFFCURVE",
"340 324 CURVE",
"345 336 OFFCURVE",
"348 350 OFFCURVE",
"348 365 CURVE SMOOTH",
"348 425 OFFCURVE",
"306 474 OFFCURVE",
"249 474 CURVE SMOOTH",
"199 474 OFFCURVE",
"160 431 OFFCURVE",
"160 377 CURVE SMOOTH",
"160 356 OFFCURVE",
"166 336 OFFCURVE",
"175 319 CURVE",
"36 278 OFFCURVE",
"-67 140 OFFCURVE",
"-67 -20 CURVE SMOOTH"
);
},
{
closed = 1;
nodes = (
"-7 118 OFFCURVE",
"76 237 OFFCURVE",
"190 274 CURVE",
"176 257 OFFCURVE",
"168 235 OFFCURVE",
"168 210 CURVE SMOOTH",
"168 150 OFFCURVE",
"210 101 OFFCURVE",
"267 101 CURVE SMOOTH",
"317 101 OFFCURVE",
"356 144 OFFCURVE",
"356 198 CURVE SMOOTH",
"356 231 OFFCURVE",
"342 261 OFFCURVE",
"321 281 CURVE",
"446 253 OFFCURVE",
"541 128 OFFCURVE",
"541 -20 CURVE SMOOTH",
"541 -187 OFFCURVE",
"418 -326 OFFCURVE",
"268 -326 CURVE SMOOTH",
"116 -326 OFFCURVE",
"-7 -187 OFFCURVE",
"-7 -20 CURVE SMOOTH"
);
},
{
closed = 1;
nodes = (
"196 408 OFFCURVE",
"220 435 OFFCURVE",
"251 435 CURVE SMOOTH",
"284 435 OFFCURVE",
"312 405 OFFCURVE",
"312 367 CURVE SMOOTH",
"312 334 OFFCURVE",
"288 307 OFFCURVE",
"257 307 CURVE SMOOTH",
"224 307 OFFCURVE",
"196 337 OFFCURVE",
"196 375 CURVE SMOOTH"
);
},
{
closed = 1;
nodes = (
"204 241 OFFCURVE",
"228 268 OFFCURVE",
"259 268 CURVE SMOOTH",
"292 268 OFFCURVE",
"320 238 OFFCURVE",
"320 200 CURVE SMOOTH",
"320 167 OFFCURVE",
"296 140 OFFCURVE",
"265 140 CURVE SMOOTH",
"232 140 OFFCURVE",
"204 170 OFFCURVE",
"204 208 CURVE SMOOTH"
);
}
);
};
backgroundImage = {
crop = "{{0, 0}, {404.88, 175.91999999999999}}";
imagePath = venuri_symb/19_tar.jpg;
locked = "1";
transform = "{7, 0, 0, 7, -2217, -443}";
};
guideLines = (
{
angle = 90;
position = "{-7, -20}";
},
{
angle = 90;
position = "{541, -20}";
},
{
position = "{267, -326}";
},
{
position = "{267, 287}";
}
);
layerId = "EBDACEA3-85E1-4DF7-96AC-756C1B56033C";
name = "Regular Apr 30 16, 13:41";
paths = (
{
closed = 1;
nodes = (
"-67 -213 OFFCURVE",
"83 -372 OFFCURVE",
"267 -372 CURVE SMOOTH",
"451 -372 OFFCURVE",
"601 -213 OFFCURVE",
"601 -20 CURVE SMOOTH",
"601 148 OFFCURVE",
"489 289 OFFCURVE",
"340 324 CURVE",
"345 336 OFFCURVE",
"348 350 OFFCURVE",
"348 365 CURVE SMOOTH",
"348 425 OFFCURVE",
"306 474 OFFCURVE",
"249 474 CURVE SMOOTH",
"199 474 OFFCURVE",
"160 431 OFFCURVE",
"160 377 CURVE SMOOTH",
"160 356 OFFCURVE",
"166 336 OFFCURVE",
"175 319 CURVE",
"36 278 OFFCURVE",
"-67 140 OFFCURVE",
"-67 -20 CURVE SMOOTH"
);
},
{
closed = 1;
nodes = (
"-7 119 OFFCURVE",
"75 237 OFFCURVE",
"189 274 CURVE",
"190 272 LINE",
"177 259 OFFCURVE",
"168 234 OFFCURVE",
"168 210 CURVE SMOOTH",
"168 150 OFFCURVE",
"210 101 OFFCURVE",
"267 101 CURVE SMOOTH",
"317 101 OFFCURVE",
"356 144 OFFCURVE",
"356 198 CURVE SMOOTH",
"356 230 OFFCURVE",
"341 264 OFFCURVE",
"321 279 CURVE",
"322 281 LINE",
"447 253 OFFCURVE",
"541 128 OFFCURVE",
"541 -20 CURVE SMOOTH",
"541 -187 OFFCURVE",
"418 -326 OFFCURVE",
"268 -326 CURVE SMOOTH",
"116 -326 OFFCURVE",
"-7 -187 OFFCURVE",
"-7 -20 CURVE SMOOTH"
);
},
{
closed = 1;
nodes = (
"196 408 OFFCURVE",
"220 435 OFFCURVE",
"251 435 CURVE SMOOTH",
"284 435 OFFCURVE",
"312 405 OFFCURVE",
"312 367 CURVE SMOOTH",
"312 334 OFFCURVE",
"288 307 OFFCURVE",
"257 307 CURVE SMOOTH",
"224 307 OFFCURVE",
"196 337 OFFCURVE",
"196 375 CURVE SMOOTH"
);
},
{
closed = 1;
nodes = (
"204 241 OFFCURVE",
"228 268 OFFCURVE",
"259 268 CURVE SMOOTH",
"292 268 OFFCURVE",
"320 238 OFFCURVE",
"320 200 CURVE SMOOTH",
"320 167 OFFCURVE",
"296 140 OFFCURVE",
"265 140 CURVE SMOOTH",
"232 140 OFFCURVE",
"204 170 OFFCURVE",
"204 208 CURVE SMOOTH"
);
}
);
width = 600;
},
{
associatedMasterId = "9F5B1694-2A59-45B7-91CA-438A6316E2AD";
background = {
paths = (
{
closed = 1;
nodes = (
"-67 -213 OFFCURVE",
"83 -372 OFFCURVE",
"267 -372 CURVE SMOOTH",
"451 -372 OFFCURVE",
"601 -213 OFFCURVE",
"601 -20 CURVE SMOOTH",
"601 148 OFFCURVE",
"489 289 OFFCURVE",
"340 324 CURVE",
"345 336 OFFCURVE",
"348 350 OFFCURVE",
"348 365 CURVE SMOOTH",
"348 425 OFFCURVE",
"306 474 OFFCURVE",
"249 474 CURVE SMOOTH",
"199 474 OFFCURVE",
"160 431 OFFCURVE",
"160 377 CURVE SMOOTH",
"160 356 OFFCURVE",
"166 336 OFFCURVE",
"175 319 CURVE",
"36 278 OFFCURVE",
"-67 140 OFFCURVE",
"-67 -20 CURVE SMOOTH"
);
},
{
closed = 1;
nodes = (
"-7 118 OFFCURVE",
"76 237 OFFCURVE",
"190 274 CURVE",
"176 257 OFFCURVE",
"168 235 OFFCURVE",
"168 210 CURVE SMOOTH",
"168 150 OFFCURVE",
"210 101 OFFCURVE",
"267 101 CURVE SMOOTH",
"317 101 OFFCURVE",
"356 144 OFFCURVE",
"356 198 CURVE SMOOTH",
"356 231 OFFCURVE",
"342 261 OFFCURVE",
"321 281 CURVE",
"446 253 OFFCURVE",
"541 128 OFFCURVE",
"541 -20 CURVE SMOOTH",
"541 -187 OFFCURVE",
"418 -326 OFFCURVE",
"268 -326 CURVE SMOOTH",
"116 -326 OFFCURVE",
"-7 -187 OFFCURVE",
"-7 -20 CURVE SMOOTH"
);
},
{
closed = 1;
nodes = (
"196 408 OFFCURVE",
"220 435 OFFCURVE",
"251 435 CURVE SMOOTH",
"284 435 OFFCURVE",
"312 405 OFFCURVE",
"312 367 CURVE SMOOTH",
"312 334 OFFCURVE",
"288 307 OFFCURVE",
"257 307 CURVE SMOOTH",
"224 307 OFFCURVE",
"196 337 OFFCURVE",
"196 375 CURVE SMOOTH"
);
},
{
closed = 1;
nodes = (
"204 241 OFFCURVE",
"228 268 OFFCURVE",
"259 268 CURVE SMOOTH",
"292 268 OFFCURVE",
"320 238 OFFCURVE",
"320 200 CURVE SMOOTH",
"320 167 OFFCURVE",
"296 140 OFFCURVE",
"265 140 CURVE SMOOTH",
"232 140 OFFCURVE",
"204 170 OFFCURVE",
"204 208 CURVE SMOOTH"
);
}
);
};
backgroundImage = {
crop = "{{0, 0}, {404.88, 175.91999999999999}}";
imagePath = venuri_symb/19_tar.jpg;
locked = "1";
transform = "{7, 0, 0, 7, -2217, -443}";
};
guideLines = (
{
angle = 90;
position = "{-7, -20}";
},
{
angle = 90;
position = "{541, -20}";
},
{
position = "{267, -326}";
},
{
position = "{267, 287}";
}
);
layerId = "01815F28-28E5-4D30-8900-682A3A6F9E40";
name = "Regular May 16 16, 23:04";
paths = (
{
closed = 1;
nodes = (
"-67 -213 OFFCURVE",
"83 -372 OFFCURVE",
"267 -372 CURVE SMOOTH",
"451 -372 OFFCURVE",
"601 -213 OFFCURVE",
"601 -20 CURVE SMOOTH",
"601 148 OFFCURVE",
"489 289 OFFCURVE",
"340 324 CURVE",
"345 336 OFFCURVE",
"348 350 OFFCURVE",
"348 365 CURVE SMOOTH",
"348 425 OFFCURVE",
"306 474 OFFCURVE",
"249 474 CURVE SMOOTH",
"199 474 OFFCURVE",
"160 431 OFFCURVE",
"160 377 CURVE SMOOTH",
"160 356 OFFCURVE",
"166 336 OFFCURVE",
"175 319 CURVE",
"36 278 OFFCURVE",
"-67 140 OFFCURVE",
"-67 -20 CURVE SMOOTH"
);
},
{
closed = 1;
nodes = (
"-7 119 OFFCURVE",
"79 239 OFFCURVE",
"193 276 CURVE",
"194 274 LINE",
"181 264 OFFCURVE",
"168 238 OFFCURVE",
"168 210 CURVE SMOOTH",
"168 150 OFFCURVE",
"210 101 OFFCURVE",
"267 101 CURVE SMOOTH",
"317 101 OFFCURVE",
"356 144 OFFCURVE",
"356 198 CURVE SMOOTH",
"356 234 OFFCURVE",
"337 269 OFFCURVE",
"317 281 CURVE",
"318 283 LINE",
"443 255 OFFCURVE",
"541 128 OFFCURVE",
"541 -20 CURVE SMOOTH",
"541 -187 OFFCURVE",
"418 -326 OFFCURVE",
"268 -326 CURVE SMOOTH",
"116 -326 OFFCURVE",
"-7 -187 OFFCURVE",
"-7 -20 CURVE SMOOTH"
);
},
{
closed = 1;
nodes = (
"196 408 OFFCURVE",
"220 435 OFFCURVE",
"251 435 CURVE SMOOTH",
"284 435 OFFCURVE",
"312 405 OFFCURVE",
"312 367 CURVE SMOOTH",
"312 334 OFFCURVE",
"288 307 OFFCURVE",
"257 307 CURVE SMOOTH",
"224 307 OFFCURVE",
"196 337 OFFCURVE",
"196 375 CURVE SMOOTH"
);
},
{
closed = 1;
nodes = (
"204 241 OFFCURVE",
"228 268 OFFCURVE",
"259 268 CURVE SMOOTH",
"292 268 OFFCURVE",
"320 238 OFFCURVE",
"320 200 CURVE SMOOTH",
"320 167 OFFCURVE",
"296 140 OFFCURVE",
"265 140 CURVE SMOOTH",
"232 140 OFFCURVE",
"204 170 OFFCURVE",
"204 208 CURVE SMOOTH"
);
}
);
width = 600;
}
);
unicode = 10E2;
},
{
glyphname = "un-georgian";
lastChange = "2016-05-17 21:16:00 +0000";
layers = (
{
backgroundImage = {
crop = "{{0, 0}, {402.24000000000001, 169.19999999999999}}";
imagePath = venuri_symb/20_un.jpg;
locked = "1";
transform = "{7, 0, 0, 7, -389, -415}";
};
guideLines = (
{
angle = 90;
position = "{730, 203}";
}
);
layerId = "9F5B1694-2A59-45B7-91CA-438A6316E2AD";
paths = (
{
closed = 1;
nodes = (
"245 125 OFFCURVE",
"228 316 OFFCURVE",
"309 316 CURVE",
"354 316 OFFCURVE",
"379 285 OFFCURVE",
"379 205 CURVE SMOOTH",
"379 90 LINE",
"429 90 LINE",
"429 205 LINE SMOOTH",
"429 285 OFFCURVE",
"462 316 OFFCURVE",
"514 316 CURVE",
"561 316 OFFCURVE",
"590 278 OFFCURVE",
"590 198 CURVE",
"590 -128 LINE SMOOTH",
"590 -230 OFFCURVE",
"529 -326 OFFCURVE",
"403 -326 CURVE SMOOTH",
"287 -326 OFFCURVE",
"206 -272 OFFCURVE",
"206 -166 CURVE SMOOTH",
"206 -103 OFFCURVE",
"238 -59 OFFCURVE",
"250 -44 CURVE",
"211 -18 LINE",
"180 -54 OFFCURVE",
"148 -101 OFFCURVE",
"148 -173 CURVE SMOOTH",
"148 -295 OFFCURVE",
"243 -372 OFFCURVE",
"403 -372 CURVE SMOOTH",
"573 -372 OFFCURVE",
"646 -249 OFFCURVE",
"646 -134 CURVE SMOOTH",
"646 198 LINE",
"646 279 OFFCURVE",
"614 362 OFFCURVE",
"511 362 CURVE SMOOTH",
"465 362 OFFCURVE",
"423 341 OFFCURVE",
"405 283 CURVE",
"403 283 LINE",
"393 341 OFFCURVE",
"355 362 OFFCURVE",
"309 362 CURVE",
"188 362 OFFCURVE",
"201 171 OFFCURVE",
"131 171 CURVE",
"90 171 OFFCURVE",
"79 209 OFFCURVE",
"79 255 CURVE SMOOTH",
"79 293 OFFCURVE",
"89 321 OFFCURVE",
"101 350 CURVE",
"59 362 LINE",
"47 340 OFFCURVE",
"30 306 OFFCURVE",
"30 255 CURVE SMOOTH",
"30 186 OFFCURVE",
"52 125 OFFCURVE",
"131 125 CURVE"
);
}
);
width = 706;
},
{
associatedMasterId = "9F5B1694-2A59-45B7-91CA-438A6316E2AD";
backgroundImage = {
crop = "{{0, 0}, {402.24000000000001, 169.19999999999999}}";
imagePath = venuri_symb/20_un.jpg;
locked = "1";
transform = "{7, 0, 0, 7, -385, -415}";
};
guideLines = (
{
angle = 90;
position = "{734, 203}";
}
);
layerId = "BB788382-61B1-42B9-8C1D-F7153F2521C5";
name = "Regular May 17 16, 14:54";
paths = (
{
closed = 1;
nodes = (
"249 125 OFFCURVE",
"232 316 OFFCURVE",
"313 316 CURVE",
"358 316 OFFCURVE",
"383 265 OFFCURVE",
"383 185 CURVE SMOOTH",
"383 90 LINE",
"433 90 LINE",
"433 185 LINE SMOOTH",
"433 265 OFFCURVE",
"468 316 OFFCURVE",
"524 316 CURVE",
"575 316 OFFCURVE",
"594 257 OFFCURVE",
"594 135 CURVE",
"594 -188 LINE SMOOTH",
"594 -270 OFFCURVE",
"543 -326 OFFCURVE",
"417 -326 CURVE SMOOTH",
"301 -326 OFFCURVE",
"210 -272 OFFCURVE",
"210 -166 CURVE SMOOTH",
"210 -103 OFFCURVE",
"236 -60 OFFCURVE",
"258 -39 CURVE",
"232 -18 LINE",
"208 -33 OFFCURVE",
"152 -101 OFFCURVE",
"152 -183 CURVE SMOOTH",
"152 -289 OFFCURVE",
"257 -372 OFFCURVE",
"417 -372 CURVE SMOOTH",
"587 -372 OFFCURVE",
"650 -284 OFFCURVE",
"650 -194 CURVE SMOOTH",
"650 135 LINE",
"650 258 OFFCURVE",
"627 362 OFFCURVE",
"524 362 CURVE SMOOTH",
"483 362 OFFCURVE",
"431 328 OFFCURVE",
"409 270 CURVE",
"407 270 LINE",
"393 328 OFFCURVE",
"359 362 OFFCURVE",
"313 362 CURVE",
"192 362 OFFCURVE",
"205 171 OFFCURVE",
"135 171 CURVE",
"94 171 OFFCURVE",
"83 209 OFFCURVE",
"83 255 CURVE SMOOTH",
"83 286 OFFCURVE",
"88 321 OFFCURVE",
"92 350 CURVE",
"46 350 LINE",
"43 328 OFFCURVE",
"40 297 OFFCURVE",
"40 266 CURVE SMOOTH",
"40 197 OFFCURVE",
"56 125 OFFCURVE",
"135 125 CURVE"
);
}
);
width = 690;
}
);
unicode = 10E3;
},
{
glyphname = "phar-georgian";
lastChange = "2016-05-17 22:04:22 +0000";
layers = (
{
background = {
paths = (
{
closed = 1;
nodes = (
"42 76 OFFCURVE",
"109 -12 OFFCURVE",
"203 -12 CURVE SMOOTH",
"297 -12 OFFCURVE",
"364 72 OFFCURVE",
"364 175 CURVE SMOOTH",
"364 211 OFFCURVE",
"356 243 OFFCURVE",
"343 271 CURVE",
"365 296 OFFCURVE",
"397 316 OFFCURVE",
"443 316 CURVE SMOOTH",
"508 316 OFFCURVE",
"549 272 OFFCURVE",
"549 191 CURVE SMOOTH",
"549 95 OFFCURVE",
"465 40 OFFCURVE",
"422 18 CURVE",
"422 4 LINE",
"496 4 OFFCURVE",
"548 -11 OFFCURVE",
"548 -78 CURVE SMOOTH",
"548 -188 LINE SMOOTH",
"548 -270 OFFCURVE",
"492 -326 OFFCURVE",
"416 -326 CURVE SMOOTH",
"310 -326 OFFCURVE",
"239 -282 OFFCURVE",
"239 -196 CURVE SMOOTH",
"239 -143 OFFCURVE",
"265 -110 OFFCURVE",
"287 -89 CURVE",
"261 -68 LINE",
"237 -83 OFFCURVE",
"181 -141 OFFCURVE",
"181 -213 CURVE SMOOTH",
"181 -299 OFFCURVE",
"266 -372 OFFCURVE",
"416 -372 CURVE SMOOTH",
"536 -372 OFFCURVE",
"604 -284 OFFCURVE",
"604 -194 CURVE SMOOTH",
"604 -88 LINE SMOOTH",
"604 -23 OFFCURVE",
"581 35 OFFCURVE",
"509 35 CURVE",
"509 37 LINE",
"558 68 OFFCURVE",
"609 123 OFFCURVE",
"609 209 CURVE SMOOTH",
"609 297 OFFCURVE",
"538 362 OFFCURVE",
"450 362 CURVE SMOOTH",
"389 362 OFFCURVE",
"350 337 OFFCURVE",
"320 307 CURVE",
"318 307 LINE",
"290 341 OFFCURVE",
"250 362 OFFCURVE",
"203 362 CURVE SMOOTH",
"109 362 OFFCURVE",
"42 284 OFFCURVE",
"42 175 CURVE SMOOTH"
);
},
{
closed = 1;
nodes = (
"102 265 OFFCURVE",
"149 316 OFFCURVE",
"203 316 CURVE SMOOTH",
"257 316 OFFCURVE",
"304 265 OFFCURVE",
"304 174 CURVE SMOOTH",
"304 88 OFFCURVE",
"257 34 OFFCURVE",
"203 34 CURVE SMOOTH",
"149 34 OFFCURVE",
"102 88 OFFCURVE",
"102 174 CURVE SMOOTH"
);
}
);
};
backgroundImage = {
crop = "{{0, 0}, {498, 187}}";
imagePath = venuri_symb/21_phar.jpg;
locked = "1";
transform = "{7, 0, 0, 7, -702, -480}";
};
guideLines = (
{
angle = 90;
position = "{604, -124}";
}
);
layerId = "9F5B1694-2A59-45B7-91CA-438A6316E2AD";
paths = (
{
closed = 1;
nodes = (
"40 72 OFFCURVE",
"98 -12 OFFCURVE",
"201 -12 CURVE",
"304 -12 OFFCURVE",
"362 72 OFFCURVE",
"362 175 CURVE SMOOTH",
"362 281 OFFCURVE",
"304 362 OFFCURVE",
"201 362 CURVE",
"100 362 OFFCURVE",
"40 284 OFFCURVE",
"40 175 CURVE SMOOTH"
);
},
{
closed = 1;
nodes = (
"97 261 OFFCURVE",
"134 319 OFFCURVE",
"201 319 CURVE SMOOTH",
"268 319 OFFCURVE",
"305 261 OFFCURVE",
"305 174 CURVE SMOOTH",
"305 92 OFFCURVE",
"268 31 OFFCURVE",
"201 31 CURVE SMOOTH",
"134 31 OFFCURVE",
"97 92 OFFCURVE",
"97 174 CURVE SMOOTH"
);
},
{
closed = 1;
nodes = (
"337 264 LINE",
"359 292 OFFCURVE",
"393 316 OFFCURVE",
"443 316 CURVE SMOOTH",
"508 316 OFFCURVE",
"548 262 OFFCURVE",
"548 181 CURVE SMOOTH",
"548 98 OFFCURVE",
"494 46 OFFCURVE",
"441 46 CURVE SMOOTH",
"421 46 LINE",
"421 0 LINE",
"435 0 LINE SMOOTH",
"502 0 OFFCURVE",
"548 -42 OFFCURVE",
"548 -105 CURVE SMOOTH",
"548 -158 LINE SMOOTH",
"548 -277 OFFCURVE",
"472 -326 OFFCURVE",
"396 -326 CURVE SMOOTH",
"317 -326 OFFCURVE",
"236 -282 OFFCURVE",
"236 -190 CURVE SMOOTH",
"236 -167 OFFCURVE",
"243 -141 OFFCURVE",
"255 -119 CURVE",
"215 -93 LINE",
"193 -118 OFFCURVE",
"178 -154 OFFCURVE",
"178 -193 CURVE SMOOTH",
"178 -299 OFFCURVE",
"273 -372 OFFCURVE",
"396 -372 CURVE SMOOTH",
"516 -372 OFFCURVE",
"604 -291 OFFCURVE",
"604 -164 CURVE SMOOTH",
"604 -105 LINE SMOOTH",
"604 -27 OFFCURVE",
"547 18 OFFCURVE",
"507 27 CURVE",
"507 29 LINE",
"554 47 OFFCURVE",
"604 104 OFFCURVE",
"604 199 CURVE SMOOTH",
"604 287 OFFCURVE",
"538 362 OFFCURVE",
"450 362 CURVE SMOOTH",
"385 362 OFFCURVE",
"344 333 OFFCURVE",
"314 300 CURVE"
);
}
);
width = 669;
},
{
associatedMasterId = "9F5B1694-2A59-45B7-91CA-438A6316E2AD";
background = {
paths = (
{
closed = 1;
nodes = (
"477 4 OFFCURVE",
"581 65 OFFCURVE",
"581 193 CURVE SMOOTH",
"581 277 OFFCURVE",
"514 362 OFFCURVE",
"423 362 CURVE SMOOTH",
"357 362 OFFCURVE",
"312 332 OFFCURVE",
"282 297 CURVE",
"303 257 LINE",
"326 287 OFFCURVE",
"364 316 OFFCURVE",
"416 316 CURVE SMOOTH",
"474 316 OFFCURVE",
"521 265 OFFCURVE",
"521 184 CURVE SMOOTH",
"521 88 OFFCURVE",
"437 40 OFFCURVE",
"394 18 CURVE",
"394 4 LINE"
);
}
);
};
backgroundImage = {
crop = "{{0, 0}, {498, 187}}";
imagePath = venuri_symb/21_phar.jpg;
transform = "{7, 0, 0, 7, -730, -480}";
};
layerId = "90745175-5BE8-443F-BEBD-A3981CBF75F7";
name = "Regular Apr 22 16, 17:27";
paths = (
{
closed = 1;
nodes = (
"40 76 OFFCURVE",
"107 -12 OFFCURVE",
"201 -12 CURVE SMOOTH",
"295 -12 OFFCURVE",
"362 72 OFFCURVE",
"362 175 CURVE SMOOTH",
"362 211 OFFCURVE",
"354 243 OFFCURVE",
"341 271 CURVE",
"363 296 OFFCURVE",
"395 316 OFFCURVE",
"441 316 CURVE SMOOTH",
"506 316 OFFCURVE",
"547 272 OFFCURVE",
"547 191 CURVE SMOOTH",
"547 95 OFFCURVE",
"463 40 OFFCURVE",
"420 18 CURVE",
"420 4 LINE",
"494 4 OFFCURVE",
"546 -11 OFFCURVE",
"546 -78 CURVE SMOOTH",
"546 -188 LINE SMOOTH",
"546 -270 OFFCURVE",
"490 -326 OFFCURVE",
"414 -326 CURVE SMOOTH",
"308 -326 OFFCURVE",
"237 -282 OFFCURVE",
"237 -196 CURVE SMOOTH",
"237 -143 OFFCURVE",
"263 -110 OFFCURVE",
"285 -89 CURVE",
"259 -68 LINE",
"235 -83 OFFCURVE",
"179 -141 OFFCURVE",
"179 -213 CURVE SMOOTH",
"179 -299 OFFCURVE",
"264 -372 OFFCURVE",
"414 -372 CURVE SMOOTH",
"534 -372 OFFCURVE",
"602 -284 OFFCURVE",
"602 -194 CURVE SMOOTH",
"602 -88 LINE SMOOTH",
"602 -23 OFFCURVE",
"579 35 OFFCURVE",
"507 35 CURVE",
"507 37 LINE",
"556 68 OFFCURVE",
"607 123 OFFCURVE",
"607 209 CURVE SMOOTH",
"607 297 OFFCURVE",
"536 362 OFFCURVE",
"448 362 CURVE SMOOTH",
"387 362 OFFCURVE",
"348 337 OFFCURVE",
"318 307 CURVE",
"316 307 LINE",
"288 341 OFFCURVE",
"248 362 OFFCURVE",
"201 362 CURVE SMOOTH",
"107 362 OFFCURVE",
"40 284 OFFCURVE",
"40 175 CURVE SMOOTH"
);
},
{
closed = 1;
nodes = (
"100 265 OFFCURVE",
"147 316 OFFCURVE",
"201 316 CURVE SMOOTH",
"255 316 OFFCURVE",
"302 265 OFFCURVE",
"302 174 CURVE SMOOTH",
"302 88 OFFCURVE",
"255 34 OFFCURVE",
"201 34 CURVE SMOOTH",
"147 34 OFFCURVE",
"100 88 OFFCURVE",
"100 174 CURVE SMOOTH"
);
}
);
width = 600;
},
{
associatedMasterId = "9F5B1694-2A59-45B7-91CA-438A6316E2AD";
background = {
paths = (
{
closed = 1;
nodes = (
"40 72 OFFCURVE",
"107 -12 OFFCURVE",
"201 -12 CURVE SMOOTH",
"295 -12 OFFCURVE",
"362 72 OFFCURVE",
"362 175 CURVE SMOOTH",
"362 211 OFFCURVE",
"354 243 OFFCURVE",
"341 271 CURVE",
"363 296 OFFCURVE",
"395 316 OFFCURVE",
"441 316 CURVE SMOOTH",
"496 316 OFFCURVE",
"547 265 OFFCURVE",
"547 184 CURVE SMOOTH",
"547 88 OFFCURVE",
"463 40 OFFCURVE",
"420 18 CURVE",
"420 4 LINE",
"484 4 OFFCURVE",
"546 -6 OFFCURVE",
"546 -58 CURVE SMOOTH",
"546 -188 LINE SMOOTH",
"546 -270 OFFCURVE",
"490 -326 OFFCURVE",
"414 -326 CURVE SMOOTH",
"308 -326 OFFCURVE",
"237 -282 OFFCURVE",
"237 -196 CURVE SMOOTH",
"237 -143 OFFCURVE",
"263 -110 OFFCURVE",
"285 -89 CURVE",
"259 -68 LINE",
"235 -83 OFFCURVE",
"179 -141 OFFCURVE",
"179 -213 CURVE SMOOTH",
"179 -299 OFFCURVE",
"264 -372 OFFCURVE",
"414 -372 CURVE SMOOTH",
"534 -372 OFFCURVE",
"602 -284 OFFCURVE",
"602 -194 CURVE SMOOTH",
"602 -58 LINE SMOOTH",
"602 -21 OFFCURVE",
"594 36 OFFCURVE",
"507 35 CURVE",
"557 66 OFFCURVE",
"607 122 OFFCURVE",
"607 209 CURVE SMOOTH",
"607 297 OFFCURVE",
"536 362 OFFCURVE",
"448 362 CURVE SMOOTH",
"386 362 OFFCURVE",
"347 338 OFFCURVE",
"317 307 CURVE",
"289 341 OFFCURVE",
"248 362 OFFCURVE",
"201 362 CURVE SMOOTH",
"107 362 OFFCURVE",
"40 284 OFFCURVE",
"40 175 CURVE SMOOTH"
);
},
{
closed = 1;
nodes = (
"100 265 OFFCURVE",
"147 316 OFFCURVE",
"201 316 CURVE SMOOTH",
"255 316 OFFCURVE",
"302 265 OFFCURVE",
"302 174 CURVE SMOOTH",
"302 88 OFFCURVE",
"255 34 OFFCURVE",
"201 34 CURVE SMOOTH",
"147 34 OFFCURVE",
"100 88 OFFCURVE",
"100 174 CURVE SMOOTH"
);
}
);
};
backgroundImage = {
crop = "{{0, 0}, {498, 187}}";
imagePath = venuri_symb/21_phar.jpg;
locked = "1";
transform = "{7, 0, 0, 7, -704, -480}";
};
guideLines = (
{
angle = 90;
position = "{602, -124}";
}
);
layerId = "8B15E1E8-588C-4397-978E-3B7D99BCD474";
name = "Regular May 17 16, 20:51";
paths = (
{
closed = 1;
nodes = (
"40 76 OFFCURVE",
"107 -12 OFFCURVE",
"201 -12 CURVE SMOOTH",
"295 -12 OFFCURVE",
"362 72 OFFCURVE",
"362 175 CURVE SMOOTH",
"362 211 OFFCURVE",
"354 243 OFFCURVE",
"341 271 CURVE",
"363 296 OFFCURVE",
"395 316 OFFCURVE",
"441 316 CURVE SMOOTH",
"506 316 OFFCURVE",
"547 272 OFFCURVE",
"547 191 CURVE SMOOTH",
"547 95 OFFCURVE",
"463 40 OFFCURVE",
"420 18 CURVE",
"420 4 LINE",
"494 4 OFFCURVE",
"546 -11 OFFCURVE",
"546 -78 CURVE SMOOTH",
"546 -188 LINE SMOOTH",
"546 -270 OFFCURVE",
"490 -326 OFFCURVE",
"414 -326 CURVE SMOOTH",
"308 -326 OFFCURVE",
"237 -282 OFFCURVE",
"237 -196 CURVE SMOOTH",
"237 -143 OFFCURVE",
"263 -110 OFFCURVE",
"285 -89 CURVE",
"259 -68 LINE",
"235 -83 OFFCURVE",
"179 -141 OFFCURVE",
"179 -213 CURVE SMOOTH",
"179 -299 OFFCURVE",
"264 -372 OFFCURVE",
"414 -372 CURVE SMOOTH",
"534 -372 OFFCURVE",
"602 -284 OFFCURVE",
"602 -194 CURVE SMOOTH",
"602 -88 LINE SMOOTH",
"602 -23 OFFCURVE",
"579 35 OFFCURVE",
"507 35 CURVE",
"507 37 LINE",
"556 68 OFFCURVE",
"607 123 OFFCURVE",
"607 209 CURVE SMOOTH",
"607 297 OFFCURVE",
"536 362 OFFCURVE",
"448 362 CURVE SMOOTH",
"387 362 OFFCURVE",
"348 337 OFFCURVE",
"318 307 CURVE",
"316 307 LINE",
"288 341 OFFCURVE",
"248 362 OFFCURVE",
"201 362 CURVE SMOOTH",
"107 362 OFFCURVE",
"40 284 OFFCURVE",
"40 175 CURVE SMOOTH"
);
},
{
closed = 1;
nodes = (
"100 265 OFFCURVE",
"147 316 OFFCURVE",
"201 316 CURVE SMOOTH",
"255 316 OFFCURVE",
"302 265 OFFCURVE",
"302 174 CURVE SMOOTH",
"302 88 OFFCURVE",
"255 34 OFFCURVE",
"201 34 CURVE SMOOTH",
"147 34 OFFCURVE",
"100 88 OFFCURVE",
"100 174 CURVE SMOOTH"
);
}
);
width = 667;
}
);
unicode = 10E4;
},
{
glyphname = "khar-georgian";
lastChange = "2016-05-17 22:04:46 +0000";
layers = (
{
backgroundImage = {
crop = "{{0, 0}, {363.83999999999997, 176.88}}";
imagePath = venuri_symb/22_khar.jpg;
locked = "1";
transform = "{7, 0, 0, 7, -683, -456}";
};
layerId = "9F5B1694-2A59-45B7-91CA-438A6316E2AD";
paths = (
{
closed = 1;
nodes = (
"30 -299 OFFCURVE",
"105 -372 OFFCURVE",
"228 -372 CURVE SMOOTH",
"348 -372 OFFCURVE",
"416 -284 OFFCURVE",
"416 -194 CURVE SMOOTH",
"416 710 LINE",
"380 710 LINE",
"195 554 LINE",
"221 514 LINE",
"225 514 LINE",
"356 630 LINE",
"360 630 LINE",
"360 221 LINE",
"244 221 LINE SMOOTH",
"174 221 OFFCURVE",
"133 187 OFFCURVE",
"133 133 CURVE SMOOTH",
"133 90 OFFCURVE",
"156 60 OFFCURVE",
"170 49 CURVE",
"210 70 LINE",
"195 90 OFFCURVE",
"188 112 OFFCURVE",
"188 129 CURVE SMOOTH",
"188 157 OFFCURVE",
"209 175 OFFCURVE",
"257 175 CURVE SMOOTH",
"360 175 LINE",
"360 -188 LINE SMOOTH",
"360 -270 OFFCURVE",
"304 -326 OFFCURVE",
"228 -326 CURVE SMOOTH",
"149 -326 OFFCURVE",
"88 -282 OFFCURVE",
"88 -192 CURVE SMOOTH",
"88 -150 OFFCURVE",
"105 -119 OFFCURVE",
"126 -93 CURVE",
"91 -63 LINE",
"61 -90 OFFCURVE",
"30 -136 OFFCURVE",
"30 -203 CURVE SMOOTH"
);
}
);
width = 496;
},
{
associatedMasterId = "9F5B1694-2A59-45B7-91CA-438A6316E2AD";
backgroundImage = {
crop = "{{0, 0}, {363.83999999999997, 176.88}}";
imagePath = venuri_symb/22_khar.jpg;
locked = "1";
transform = "{7, 0, 0, 7, -663, -456}";
};
layerId = "E26234DF-4999-4D5C-B1EB-D78703AF1912";
name = "Regular May 17 16, 15:00";
paths = (
{
closed = 1;
nodes = (
"402 710 LINE",
"194 512 LINE",
"196 504 LINE",
"232 504 LINE",
"378 643 LINE",
"382 643 LINE",
"382 -188 LINE SMOOTH",
"382 -270 OFFCURVE",
"331 -326 OFFCURVE",
"245 -326 CURVE SMOOTH",
"159 -326 OFFCURVE",
"98 -282 OFFCURVE",
"98 -176 CURVE SMOOTH",
"98 -113 OFFCURVE",
"124 -70 OFFCURVE",
"146 -49 CURVE",
"120 -28 LINE",
"96 -43 OFFCURVE",
"40 -111 OFFCURVE",
"40 -193 CURVE SMOOTH",
"40 -299 OFFCURVE",
"115 -372 OFFCURVE",
"245 -372 CURVE SMOOTH",
"375 -372 OFFCURVE",
"438 -284 OFFCURVE",
"438 -194 CURVE SMOOTH",
"438 710 LINE"
);
},
{
closed = 1;
nodes = (
"391 201 LINE",
"386 201 OFFCURVE",
"292 201 OFFCURVE",
"261 201 CURVE SMOOTH",
"191 201 OFFCURVE",
"150 174 OFFCURVE",
"150 120 CURVE SMOOTH",
"150 77 OFFCURVE",
"177 47 OFFCURVE",
"196 38 CURVE",
"232 59 LINE",
"219 69 OFFCURVE",
"208 89 OFFCURVE",
"208 110 CURVE SMOOTH",
"208 144 OFFCURVE",
"237 155 OFFCURVE",
"279 155 CURVE SMOOTH",
"300 155 OFFCURVE",
"386 155 OFFCURVE",
"391 155 CURVE"
);
}
);
width = 498;
}
);
unicode = 10E5;
},
{
glyphname = "ghan-georgian";
lastChange = "2016-04-19 18:49:39 +0000";
layers = (
{
background = {
paths = (
{
closed = 1;
nodes = (
"36 56 OFFCURVE",
"87 -64 OFFCURVE",
"182 -127 CURVE",
"182 -129 LINE",
"155 -129 OFFCURVE",
"110 -135 OFFCURVE",
"85 -141 CURVE",
"85 -195 LINE",
"121 -184 OFFCURVE",
"162 -179 OFFCURVE",
"215 -179 CURVE SMOOTH",
"321 -179 OFFCURVE",
"430 -248 OFFCURVE",
"493 -372 CURVE",
"537 -340 LINE",
"459 -206 OFFCURVE",
"385 -177 OFFCURVE",
"271 -127 CURVE SMOOTH",
"159 -78 OFFCURVE",
"96 23 OFFCURVE",
"96 154 CURVE SMOOTH",
"96 275 OFFCURVE",
"151 316 OFFCURVE",
"214 316 CURVE SMOOTH",
"275 316 OFFCURVE",
"330 259 OFFCURVE",
"330 185 CURVE SMOOTH",
"330 90 LINE",
"386 90 LINE",
"386 185 LINE SMOOTH",
"386 259 OFFCURVE",
"428 316 OFFCURVE",
"495 316 CURVE SMOOTH",
"562 316 OFFCURVE",
"609 275 OFFCURVE",
"609 205 CURVE SMOOTH",
"609 144 OFFCURVE",
"586 99 OFFCURVE",
"567 76 CURVE",
"612 60 LINE",
"633 80 OFFCURVE",
"669 138 OFFCURVE",
"669 206 CURVE SMOOTH",
"669 294 OFFCURVE",
"600 362 OFFCURVE",
"495 362 CURVE SMOOTH",
"431 362 OFFCURVE",
"391 327 OFFCURVE",
"359 275 CURVE",
"357 275 LINE",
"328 328 OFFCURVE",
"281 362 OFFCURVE",
"216 362 CURVE SMOOTH",
"111 362 OFFCURVE",
"36 294 OFFCURVE",
"36 155 CURVE SMOOTH"
);
}
);
};
backgroundImage = {
crop = "{{0, 0}, {379.68000000000001, 178.56}}";
imagePath = venuri_symb/23_ghan.jpg;
locked = "1";
transform = "{7, 0, 0, 7, -934, -466}";
};
layerId = "9F5B1694-2A59-45B7-91CA-438A6316E2AD";
paths = (
{
closed = 1;
nodes = (
"30 24 OFFCURVE",
"93 -83 OFFCURVE",
"191 -141 CURVE",
"191 -143 LINE",
"164 -143 OFFCURVE",
"119 -149 OFFCURVE",
"94 -155 CURVE",
"94 -209 LINE",
"130 -198 OFFCURVE",
"171 -189 OFFCURVE",
"212 -189 CURVE SMOOTH",
"329 -189 OFFCURVE",
"435 -277 OFFCURVE",
"494 -372 CURVE",
"538 -340 LINE",
"475 -241 OFFCURVE",
"399 -191 OFFCURVE",
"288 -144 CURVE SMOOTH",
"169 -94 OFFCURVE",
"90 3 OFFCURVE",
"90 147 CURVE SMOOTH",
"90 265 OFFCURVE",
"133 316 OFFCURVE",
"197 316 CURVE SMOOTH",
"263 316 OFFCURVE",
"309 265 OFFCURVE",
"309 185 CURVE SMOOTH",
"309 90 LINE",
"359 90 LINE",
"359 185 LINE SMOOTH",
"359 265 OFFCURVE",
"404 316 OFFCURVE",
"470 316 CURVE SMOOTH",
"537 316 OFFCURVE",
"584 265 OFFCURVE",
"584 184 CURVE SMOOTH",
"584 136 OFFCURVE",
"562 86 OFFCURVE",
"539 58 CURVE",
"586 34 LINE",
"615 69 OFFCURVE",
"644 132 OFFCURVE",
"644 193 CURVE SMOOTH",
"644 278 OFFCURVE",
"577 362 OFFCURVE",
"477 362 CURVE SMOOTH",
"411 362 OFFCURVE",
"357 328 OFFCURVE",
"335 270 CURVE",
"333 270 LINE",
"310 328 OFFCURVE",
"257 362 OFFCURVE",
"190 362 CURVE SMOOTH",
"93 362 OFFCURVE",
"30 278 OFFCURVE",
"30 148 CURVE SMOOTH"
);
}
);
width = 674;
},
{
associatedMasterId = "9F5B1694-2A59-45B7-91CA-438A6316E2AD";
background = {
paths = (
{
closed = 1;
nodes = (
"586 67 LINE",
"607 87 OFFCURVE",
"663 138 OFFCURVE",
"663 206 CURVE SMOOTH",
"663 294 OFFCURVE",
"594 362 OFFCURVE",
"489 362 CURVE SMOOTH",
"424 362 OFFCURVE",
"383 337 OFFCURVE",
"353 297 CURVE",
"351 297 LINE",
"322 337 OFFCURVE",
"275 362 OFFCURVE",
"210 362 CURVE SMOOTH",
"105 362 OFFCURVE",
"30 294 OFFCURVE",
"30 155 CURVE SMOOTH",
"30 -17 OFFCURVE",
"156 -122 OFFCURVE",
"241 -180 CURVE",
"217 -182 OFFCURVE",
"189 -190 OFFCURVE",
"164 -198 CURVE",
"166 -254 LINE",
"202 -243 OFFCURVE",
"239 -237 OFFCURVE",
"277 -237 CURVE SMOOTH",
"389 -237 OFFCURVE",
"504 -290 OFFCURVE",
"582 -383 CURVE",
"623 -337 LINE",
"560 -258 OFFCURVE",
"465 -217 OFFCURVE",
"382 -193 CURVE SMOOTH",
"269 -160 OFFCURVE",
"90 -48 OFFCURVE",
"90 154 CURVE SMOOTH",
"90 275 OFFCURVE",
"145 316 OFFCURVE",
"208 316 CURVE SMOOTH",
"269 316 OFFCURVE",
"324 269 OFFCURVE",
"324 222 CURVE",
"324 90 LINE",
"380 90 LINE",
"380 222 LINE",
"380 269 OFFCURVE",
"422 316 OFFCURVE",
"489 316 CURVE SMOOTH",
"556 316 OFFCURVE",
"603 275 OFFCURVE",
"603 205 CURVE SMOOTH",
"603 144 OFFCURVE",
"561 107 OFFCURVE",
"541 83 CURVE"
);
}
);
};
backgroundImage = {
crop = "{{0, 0}, {379.68000000000001, 178.56}}";
imagePath = venuri_symb/23_ghan.jpg;
locked = "1";
transform = "{7, 0, 0, 7, -940, -466}";
};
layerId = "8D57A9A6-B54F-4808-A945-0E0B1057B6E5";
name = "Regular Apr 13 16, 14:02";
paths = (
{
closed = 1;
nodes = (
"606 60 LINE",
"627 80 OFFCURVE",
"663 138 OFFCURVE",
"663 206 CURVE SMOOTH",
"663 294 OFFCURVE",
"594 362 OFFCURVE",
"489 362 CURVE SMOOTH",
"425 362 OFFCURVE",
"385 327 OFFCURVE",
"353 275 CURVE",
"351 275 LINE",
"322 328 OFFCURVE",
"275 362 OFFCURVE",
"210 362 CURVE SMOOTH",
"105 362 OFFCURVE",
"30 294 OFFCURVE",
"30 155 CURVE SMOOTH",
"30 -16 OFFCURVE",
"156 -121 OFFCURVE",
"241 -179 CURVE",
"241 -181 LINE",
"217 -183 OFFCURVE",
"189 -190 OFFCURVE",
"164 -198 CURVE",
"166 -254 LINE",
"202 -243 OFFCURVE",
"239 -237 OFFCURVE",
"277 -237 CURVE SMOOTH",
"389 -237 OFFCURVE",
"504 -290 OFFCURVE",
"582 -383 CURVE",
"623 -337 LINE",
"560 -258 OFFCURVE",
"465 -217 OFFCURVE",
"382 -193 CURVE SMOOTH",
"269 -160 OFFCURVE",
"90 -48 OFFCURVE",
"90 154 CURVE SMOOTH",
"90 275 OFFCURVE",
"145 316 OFFCURVE",
"208 316 CURVE SMOOTH",
"269 316 OFFCURVE",
"324 259 OFFCURVE",
"324 185 CURVE",
"324 90 LINE",
"380 90 LINE",
"380 185 LINE",
"380 259 OFFCURVE",
"422 316 OFFCURVE",
"489 316 CURVE SMOOTH",
"556 316 OFFCURVE",
"603 275 OFFCURVE",
"603 205 CURVE SMOOTH",
"603 144 OFFCURVE",
"580 99 OFFCURVE",
"561 76 CURVE"
);
}
);
width = 693;
},
{
associatedMasterId = "9F5B1694-2A59-45B7-91CA-438A6316E2AD";
background = {
paths = (
{
closed = 1;
nodes = (
"586 67 LINE",
"607 87 OFFCURVE",
"663 138 OFFCURVE",
"663 206 CURVE SMOOTH",
"663 294 OFFCURVE",
"594 362 OFFCURVE",
"489 362 CURVE SMOOTH",
"424 362 OFFCURVE",
"383 337 OFFCURVE",
"353 297 CURVE",
"351 297 LINE",
"322 337 OFFCURVE",
"275 362 OFFCURVE",
"210 362 CURVE SMOOTH",
"105 362 OFFCURVE",
"30 294 OFFCURVE",
"30 155 CURVE SMOOTH",
"30 -17 OFFCURVE",
"156 -122 OFFCURVE",
"241 -180 CURVE",
"217 -182 OFFCURVE",
"189 -190 OFFCURVE",
"164 -198 CURVE",
"166 -254 LINE",
"202 -243 OFFCURVE",
"239 -237 OFFCURVE",
"277 -237 CURVE SMOOTH",
"389 -237 OFFCURVE",
"504 -290 OFFCURVE",
"582 -383 CURVE",
"623 -337 LINE",
"560 -258 OFFCURVE",
"465 -217 OFFCURVE",
"382 -193 CURVE SMOOTH",
"269 -160 OFFCURVE",
"90 -48 OFFCURVE",
"90 154 CURVE SMOOTH",
"90 275 OFFCURVE",
"145 316 OFFCURVE",
"208 316 CURVE SMOOTH",
"269 316 OFFCURVE",
"324 269 OFFCURVE",
"324 222 CURVE",
"324 90 LINE",
"380 90 LINE",
"380 222 LINE",
"380 269 OFFCURVE",
"422 316 OFFCURVE",
"489 316 CURVE SMOOTH",
"556 316 OFFCURVE",
"603 275 OFFCURVE",
"603 205 CURVE SMOOTH",
"603 144 OFFCURVE",
"561 107 OFFCURVE",
"541 83 CURVE"
);
}
);
};
backgroundImage = {
crop = "{{0, 0}, {379.68000000000001, 178.56}}";
imagePath = venuri_symb/23_ghan.jpg;
locked = "1";
transform = "{7, 0, 0, 7, -940, -466}";
};
layerId = "906FA993-9BE6-4248-9BAB-E92BBBFC0DE7";
name = "Regular Apr 13 16, 14:02";
paths = (
{
closed = 1;
nodes = (
"30 56 OFFCURVE",
"81 -64 OFFCURVE",
"176 -127 CURVE",
"176 -129 LINE",
"149 -129 OFFCURVE",
"104 -135 OFFCURVE",
"79 -141 CURVE",
"79 -195 LINE",
"115 -184 OFFCURVE",
"156 -179 OFFCURVE",
"209 -179 CURVE SMOOTH",
"315 -179 OFFCURVE",
"424 -248 OFFCURVE",
"487 -372 CURVE",
"531 -340 LINE",
"453 -206 OFFCURVE",
"379 -177 OFFCURVE",
"265 -127 CURVE SMOOTH",
"153 -78 OFFCURVE",
"90 23 OFFCURVE",
"90 154 CURVE SMOOTH",
"90 275 OFFCURVE",
"145 316 OFFCURVE",
"208 316 CURVE SMOOTH",
"269 316 OFFCURVE",
"324 259 OFFCURVE",
"324 185 CURVE SMOOTH",
"324 90 LINE",
"380 90 LINE",
"380 185 LINE SMOOTH",
"380 259 OFFCURVE",
"422 316 OFFCURVE",
"489 316 CURVE SMOOTH",
"556 316 OFFCURVE",
"603 275 OFFCURVE",
"603 205 CURVE SMOOTH",
"603 144 OFFCURVE",
"580 99 OFFCURVE",
"561 76 CURVE",
"606 60 LINE",
"627 80 OFFCURVE",
"663 138 OFFCURVE",
"663 206 CURVE SMOOTH",
"663 294 OFFCURVE",
"594 362 OFFCURVE",
"489 362 CURVE SMOOTH",
"425 362 OFFCURVE",
"385 327 OFFCURVE",
"353 275 CURVE",
"351 275 LINE",
"322 328 OFFCURVE",
"275 362 OFFCURVE",
"210 362 CURVE SMOOTH",
"105 362 OFFCURVE",
"30 294 OFFCURVE",
"30 155 CURVE SMOOTH"
);
}
);
width = 693;
}
);
unicode = 10E6;
},
{
glyphname = "qar-georgian";
lastChange = "2016-05-17 22:04:57 +0000";
layers = (
{
backgroundImage = {
crop = "{{0, 0}, {346.07999999999998, 183.59999999999999}}";
imagePath = venuri_symb/24_qar.jpg;
locked = "1";
transform = "{7, 0, 0, 7, -1892, -448}";
};
layerId = "9F5B1694-2A59-45B7-91CA-438A6316E2AD";
paths = (
{
closed = 1;
nodes = (
"30 -299 OFFCURVE",
"105 -372 OFFCURVE",
"228 -372 CURVE SMOOTH",
"348 -372 OFFCURVE",
"416 -284 OFFCURVE",
"416 -194 CURVE SMOOTH",
"416 350 LINE",
"360 350 LINE",
"360 289 LINE SMOOTH",
"360 198 OFFCURVE",
"312 147 OFFCURVE",
"246 147 CURVE SMOOTH",
"194 147 OFFCURVE",
"142 178 OFFCURVE",
"142 249 CURVE SMOOTH",
"142 288 OFFCURVE",
"152 322 OFFCURVE",
"167 350 CURVE",
"111 350 LINE",
"94 323 OFFCURVE",
"82 287 OFFCURVE",
"82 249 CURVE SMOOTH",
"82 166 OFFCURVE",
"154 101 OFFCURVE",
"239 101 CURVE SMOOTH",
"289 101 OFFCURVE",
"331 121 OFFCURVE",
"358 160 CURVE",
"360 160 LINE",
"360 -188 LINE SMOOTH",
"360 -270 OFFCURVE",
"304 -326 OFFCURVE",
"228 -326 CURVE SMOOTH",
"149 -326 OFFCURVE",
"88 -282 OFFCURVE",
"88 -192 CURVE SMOOTH",
"88 -150 OFFCURVE",
"105 -119 OFFCURVE",
"126 -93 CURVE",
"91 -63 LINE",
"61 -90 OFFCURVE",
"30 -136 OFFCURVE",
"30 -203 CURVE SMOOTH"
);
}
);
width = 486;
},
{
associatedMasterId = "9F5B1694-2A59-45B7-91CA-438A6316E2AD";
backgroundImage = {
crop = "{{0, 0}, {346.07999999999998, 183.59999999999999}}";
imagePath = venuri_symb/24_qar.jpg;
locked = "1";
transform = "{7, 0, 0, 7, 29, -448}";
};
layerId = "80D55642-99A8-4E83-B3E9-5DA25245EA09";
name = "Regular Apr 22 16, 13:54";
paths = (
{
closed = 1;
nodes = (
"418 350 LINE",
"418 259 OFFCURVE",
"350 159 OFFCURVE",
"280 159 CURVE SMOOTH",
"233 159 OFFCURVE",
"193 179 OFFCURVE",
"193 244 CURVE SMOOTH",
"193 271 OFFCURVE",
"199 306 OFFCURVE",
"214 350 CURVE",
"154 350 LINE",
"142 312 OFFCURVE",
"137 278 OFFCURVE",
"137 250 CURVE SMOOTH",
"137 156 OFFCURVE",
"194 113 OFFCURVE",
"270 113 CURVE SMOOTH",
"353 113 OFFCURVE",
"389 168 OFFCURVE",
"416 207 CURVE",
"418 207 LINE",
"418 -188 LINE SMOOTH",
"418 -270 OFFCURVE",
"367 -326 OFFCURVE",
"291 -326 CURVE SMOOTH",
"215 -326 OFFCURVE",
"168 -269 OFFCURVE",
"168 -209 CURVE SMOOTH",
"168 -166 OFFCURVE",
"187 -133 OFFCURVE",
"202 -109 CURVE",
"156 -88 LINE",
"132 -113 OFFCURVE",
"110 -157 OFFCURVE",
"110 -212 CURVE SMOOTH",
"110 -287 OFFCURVE",
"171 -372 OFFCURVE",
"291 -372 CURVE SMOOTH",
"411 -372 OFFCURVE",
"474 -284 OFFCURVE",
"474 -194 CURVE SMOOTH",
"474 350 LINE"
);
}
);
width = 600;
},
{
associatedMasterId = "9F5B1694-2A59-45B7-91CA-438A6316E2AD";
backgroundImage = {
crop = "{{0, 0}, {346.07999999999998, 183.59999999999999}}";
imagePath = venuri_symb/24_qar.jpg;
locked = "1";
transform = "{7, 0, 0, 7, -1861, -448}";
};
layerId = "559A0094-EF4B-42ED-AACF-11E07A23F054";
name = "Regular May 17 16, 13:54";
paths = (
{
closed = 1;
nodes = (
"392 350 LINE",
"392 259 OFFCURVE",
"324 153 OFFCURVE",
"254 153 CURVE SMOOTH",
"207 153 OFFCURVE",
"167 179 OFFCURVE",
"167 244 CURVE SMOOTH",
"167 271 OFFCURVE",
"173 306 OFFCURVE",
"188 350 CURVE",
"128 350 LINE",
"116 312 OFFCURVE",
"111 278 OFFCURVE",
"111 250 CURVE SMOOTH",
"111 156 OFFCURVE",
"168 107 OFFCURVE",
"244 107 CURVE SMOOTH",
"327 107 OFFCURVE",
"363 168 OFFCURVE",
"390 207 CURVE",
"392 207 LINE",
"392 -188 LINE SMOOTH",
"392 -270 OFFCURVE",
"331 -326 OFFCURVE",
"255 -326 CURVE SMOOTH",
"169 -326 OFFCURVE",
"98 -282 OFFCURVE",
"98 -166 CURVE SMOOTH",
"98 -103 OFFCURVE",
"124 -60 OFFCURVE",
"146 -39 CURVE",
"120 -18 LINE",
"96 -33 OFFCURVE",
"40 -101 OFFCURVE",
"40 -183 CURVE SMOOTH",
"40 -299 OFFCURVE",
"125 -372 OFFCURVE",
"255 -372 CURVE SMOOTH",
"375 -372 OFFCURVE",
"448 -284 OFFCURVE",
"448 -194 CURVE SMOOTH",
"448 350 LINE"
);
}
);
width = 508;
},
{
associatedMasterId = "9F5B1694-2A59-45B7-91CA-438A6316E2AD";
backgroundImage = {
crop = "{{0, 0}, {346.07999999999998, 183.59999999999999}}";
imagePath = venuri_symb/24_qar.jpg;
locked = "1";
transform = "{7, 0, 0, 7, -1861, -448}";
};
layerId = "F5B34978-7721-4C71-B936-9EAE046ABC02";
name = "Regular May 17 16, 14:02";
paths = (
{
closed = 1;
nodes = (
"51 -283 OFFCURVE",
"122 -368 OFFCURVE",
"242 -368 CURVE",
"362 -368 OFFCURVE",
"445 -280 OFFCURVE",
"445 -190 CURVE",
"445 351 LINE",
"389 351 LINE",
"389 300 LINE",
"389 209 OFFCURVE",
"341 158 OFFCURVE",
"275 158 CURVE",
"208 158 OFFCURVE",
"171 179 OFFCURVE",
"171 270 CURVE",
"171 289 OFFCURVE",
"193 336 OFFCURVE",
"197 351 CURVE",
"137 351 LINE",
"133 334 OFFCURVE",
"111 287 OFFCURVE",
"111 269 CURVE",
"111 166 OFFCURVE",
"168 112 OFFCURVE",
"268 112 CURVE",
"318 112 OFFCURVE",
"360 132 OFFCURVE",
"387 171 CURVE",
"389 171 LINE",
"389 -184 LINE",
"389 -266 OFFCURVE",
"318 -322 OFFCURVE",
"242 -322 CURVE",
"166 -322 OFFCURVE",
"109 -265 OFFCURVE",
"109 -205 CURVE",
"109 -162 OFFCURVE",
"128 -79 OFFCURVE",
"143 -55 CURVE",
"97 -34 LINE",
"73 -59 OFFCURVE",
"51 -153 OFFCURVE",
"51 -208 CURVE"
);
}
);
width = 508;
}
);
unicode = 10E7;
},
{
glyphname = "shin-georgian";
lastChange = "2016-05-17 22:05:31 +0000";
layers = (
{
backgroundImage = {
crop = "{{0, 0}, {414.47999999999996, 117.36}}";
imagePath = venuri_symb/25_shin.jpg;
locked = "1";
transform = "{7, 0, 0, 7, -2334, -43}";
};
guideLines = (
{
angle = 90;
position = "{-24, 576}";
}
);
layerId = "9F5B1694-2A59-45B7-91CA-438A6316E2AD";
paths = (
{
closed = 1;
nodes = (
"10 517 OFFCURVE",
"38 468 OFFCURVE",
"62 441 CURVE",
"102 466 LINE",
"78 499 OFFCURVE",
"66 540 OFFCURVE",
"66 580 CURVE SMOOTH",
"66 637 OFFCURVE",
"95 680 OFFCURVE",
"154 680 CURVE SMOOTH",
"210 680 OFFCURVE",
"249 639 OFFCURVE",
"249 569 CURVE SMOOTH",
"249 474 LINE",
"299 474 LINE",
"299 569 LINE SMOOTH",
"299 639 OFFCURVE",
"337 680 OFFCURVE",
"391 680 CURVE SMOOTH",
"435 680 OFFCURVE",
"481 656 OFFCURVE",
"481 576 CURVE SMOOTH",
"481 303 LINE",
"479 303 LINE",
"452 342 OFFCURVE",
"410 362 OFFCURVE",
"360 362 CURVE SMOOTH",
"260 362 OFFCURVE",
"193 278 OFFCURVE",
"193 175 CURVE SMOOTH",
"193 72 OFFCURVE",
"260 -12 OFFCURVE",
"366 -12 CURVE SMOOTH",
"472 -12 OFFCURVE",
"537 72 OFFCURVE",
"537 175 CURVE SMOOTH",
"537 576 LINE SMOOTH",
"537 668 OFFCURVE",
"475 726 OFFCURVE",
"398 726 CURVE SMOOTH",
"343 726 OFFCURVE",
"294 697 OFFCURVE",
"275 639 CURVE",
"273 639 LINE",
"251 697 OFFCURVE",
"203 726 OFFCURVE",
"147 726 CURVE SMOOTH",
"64 726 OFFCURVE",
"10 658 OFFCURVE",
"10 578 CURVE SMOOTH"
);
},
{
closed = 1;
nodes = (
"253 265 OFFCURVE",
"300 316 OFFCURVE",
"367 316 CURVE SMOOTH",
"433 316 OFFCURVE",
"481 265 OFFCURVE",
"481 174 CURVE SMOOTH",
"481 88 OFFCURVE",
"433 34 OFFCURVE",
"367 34 CURVE SMOOTH",
"300 34 OFFCURVE",
"253 88 OFFCURVE",
"253 174 CURVE SMOOTH"
);
}
);
width = 597;
},
{
associatedMasterId = "9F5B1694-2A59-45B7-91CA-438A6316E2AD";
backgroundImage = {
crop = "{{0, 0}, {414.47999999999996, 117.36}}";
imagePath = venuri_symb/25_shin.jpg;
locked = "1";
transform = "{7, 0, 0, 7, -2270, -43}";
};
layerId = "BCD07FC5-DFE4-4D05-9504-D7E26D05FF0A";
name = "Regular Apr 13 16, 15:06";
paths = (
{
closed = 1;
nodes = (
"40 498 OFFCURVE",
"96 447 OFFCURVE",
"117 427 CURVE",
"162 443 LINE",
"142 467 OFFCURVE",
"100 504 OFFCURVE",
"100 565 CURVE SMOOTH",
"100 635 OFFCURVE",
"143 676 OFFCURVE",
"203 676 CURVE SMOOTH",
"265 676 OFFCURVE",
"305 626 OFFCURVE",
"305 582 CURVE SMOOTH",
"305 450 LINE",
"361 450 LINE",
"361 582 LINE SMOOTH",
"361 626 OFFCURVE",
"390 676 OFFCURVE",
"447 676 CURVE SMOOTH",
"504 676 OFFCURVE",
"545 644 OFFCURVE",
"545 582 CURVE SMOOTH",
"545 303 LINE",
"543 303 LINE",
"516 342 OFFCURVE",
"474 362 OFFCURVE",
"424 362 CURVE SMOOTH",
"324 362 OFFCURVE",
"257 278 OFFCURVE",
"257 175 CURVE SMOOTH",
"257 72 OFFCURVE",
"324 -12 OFFCURVE",
"430 -12 CURVE SMOOTH",
"536 -12 OFFCURVE",
"601 72 OFFCURVE",
"601 175 CURVE SMOOTH",
"601 582 LINE SMOOTH",
"601 662 OFFCURVE",
"550 722 OFFCURVE",
"459 722 CURVE SMOOTH",
"394 722 OFFCURVE",
"363 697 OFFCURVE",
"334 657 CURVE",
"332 657 LINE",
"302 697 OFFCURVE",
"263 722 OFFCURVE",
"203 722 CURVE SMOOTH",
"105 722 OFFCURVE",
"40 654 OFFCURVE",
"40 566 CURVE SMOOTH"
);
},
{
closed = 1;
nodes = (
"317 265 OFFCURVE",
"364 316 OFFCURVE",
"431 316 CURVE SMOOTH",
"497 316 OFFCURVE",
"545 265 OFFCURVE",
"545 174 CURVE SMOOTH",
"545 88 OFFCURVE",
"497 34 OFFCURVE",
"431 34 CURVE SMOOTH",
"364 34 OFFCURVE",
"317 88 OFFCURVE",
"317 174 CURVE SMOOTH"
);
}
);
width = 661;
}
);
unicode = 10E8;
},
{
glyphname = "chin-georgian";
lastChange = "2016-05-17 22:05:26 +0000";
layers = (
{
background = {
paths = (
{
closed = 0;
nodes = (
"364 175 LINE",
"364 278 OFFCURVE",
"317 362 OFFCURVE",
"217 362 CURVE SMOOTH",
"177 362 OFFCURVE",
"137 337 OFFCURVE",
"118 303 CURVE",
"116 303 LINE",
"116 538 LINE SMOOTH",
"116 620 OFFCURVE",
"167 676 OFFCURVE",
"243 676 CURVE SMOOTH",
"319 676 OFFCURVE",
"366 619 OFFCURVE",
"366 559 CURVE SMOOTH",
"366 516 OFFCURVE",
"347 483 OFFCURVE",
"332 459 CURVE",
"378 438 LINE",
"402 463 OFFCURVE",
"424 507 OFFCURVE",
"424 562 CURVE SMOOTH",
"424 637 OFFCURVE",
"363 722 OFFCURVE",
"243 722 CURVE SMOOTH",
"123 722 OFFCURVE",
"60 634 OFFCURVE",
"60 544 CURVE SMOOTH",
"60 0 LINE",
"116 0 LINE",
"116 174 LINE",
"116 265 OFFCURVE",
"154 316 OFFCURVE",
"210 316 CURVE SMOOTH",
"277 316 OFFCURVE",
"304 265 OFFCURVE",
"304 174 CURVE"
);
}
);
};
backgroundImage = {
crop = "{{0, 0}, {302.39999999999998, 172.31999999999999}}";
imagePath = venuri_symb/26_chin.jpg;
locked = "1";
transform = "{7, 0, 0, 7, -701, -399}";
};
layerId = "9F5B1694-2A59-45B7-91CA-438A6316E2AD";
paths = (
{
closed = 1;
nodes = (
"116 0 LINE",
"116 174 LINE SMOOTH",
"116 265 OFFCURVE",
"164 316 OFFCURVE",
"220 316 CURVE SMOOTH",
"275 316 OFFCURVE",
"325 275 OFFCURVE",
"325 187 CURVE SMOOTH",
"325 121 OFFCURVE",
"313 77 OFFCURVE",
"285 0 CURVE",
"341 0 LINE",
"371 70 OFFCURVE",
"384 113 OFFCURVE",
"384 183 CURVE SMOOTH",
"384 297 OFFCURVE",
"309 362 OFFCURVE",
"227 362 CURVE SMOOTH",
"177 362 OFFCURVE",
"137 334 OFFCURVE",
"118 300 CURVE",
"116 300 LINE",
"116 429 LINE",
"172 445 OFFCURVE",
"294 495 OFFCURVE",
"294 604 CURVE SMOOTH",
"294 675 OFFCURVE",
"242 722 OFFCURVE",
"177 722 CURVE SMOOTH",
"112 722 OFFCURVE",
"60 678 OFFCURVE",
"60 604 CURVE SMOOTH",
"60 0 LINE"
);
},
{
closed = 1;
nodes = (
"116 598 LINE SMOOTH",
"116 647 OFFCURVE",
"141 676 OFFCURVE",
"177 676 CURVE SMOOTH",
"213 676 OFFCURVE",
"238 647 OFFCURVE",
"238 598 CURVE SMOOTH",
"238 501 OFFCURVE",
"146 475 OFFCURVE",
"116 469 CURVE"
);
}
);
width = 404;
},
{
associatedMasterId = "9F5B1694-2A59-45B7-91CA-438A6316E2AD";
background = {
paths = (
{
closed = 0;
nodes = (
"344 175 LINE",
"344 278 OFFCURVE",
"297 362 OFFCURVE",
"197 362 CURVE SMOOTH",
"157 362 OFFCURVE",
"117 337 OFFCURVE",
"98 303 CURVE",
"96 303 LINE",
"96 538 LINE SMOOTH",
"96 620 OFFCURVE",
"147 676 OFFCURVE",
"223 676 CURVE SMOOTH",
"299 676 OFFCURVE",
"346 619 OFFCURVE",
"346 559 CURVE SMOOTH",
"346 516 OFFCURVE",
"327 483 OFFCURVE",
"312 459 CURVE",
"358 438 LINE",
"382 463 OFFCURVE",
"404 507 OFFCURVE",
"404 562 CURVE SMOOTH",
"404 637 OFFCURVE",
"343 722 OFFCURVE",
"223 722 CURVE SMOOTH",
"103 722 OFFCURVE",
"40 634 OFFCURVE",
"40 544 CURVE SMOOTH",
"40 0 LINE",
"96 0 LINE",
"96 174 LINE",
"96 265 OFFCURVE",
"134 316 OFFCURVE",
"190 316 CURVE SMOOTH",
"257 316 OFFCURVE",
"284 265 OFFCURVE",
"284 174 CURVE"
);
}
);
};
backgroundImage = {
crop = "{{0, 0}, {302.39999999999998, 172.31999999999999}}";
imagePath = venuri_symb/26_chin.jpg;
locked = "1";
transform = "{7, 0, 0, 7, -721, -399}";
};
layerId = "90C8B3A3-E52C-4E15-B57C-9C62C6E089BA";
name = "Regular May 17 16, 15:12";
paths = (
{
closed = 1;
nodes = (
"96 0 LINE",
"96 174 LINE SMOOTH",
"96 265 OFFCURVE",
"134 316 OFFCURVE",
"190 316 CURVE SMOOTH",
"245 316 OFFCURVE",
"285 275 OFFCURVE",
"285 187 CURVE SMOOTH",
"285 139 OFFCURVE",
"273 77 OFFCURVE",
"245 0 CURVE",
"301 0 LINE",
"331 70 OFFCURVE",
"344 131 OFFCURVE",
"344 183 CURVE SMOOTH",
"344 297 OFFCURVE",
"279 362 OFFCURVE",
"197 362 CURVE SMOOTH",
"157 362 OFFCURVE",
"117 337 OFFCURVE",
"98 303 CURVE",
"96 303 LINE",
"96 429 LINE",
"152 445 OFFCURVE",
"254 495 OFFCURVE",
"254 604 CURVE SMOOTH",
"254 675 OFFCURVE",
"212 722 OFFCURVE",
"147 722 CURVE SMOOTH",
"82 722 OFFCURVE",
"40 678 OFFCURVE",
"40 604 CURVE SMOOTH",
"40 0 LINE"
);
},
{
closed = 1;
nodes = (
"96 598 LINE SMOOTH",
"96 647 OFFCURVE",
"111 676 OFFCURVE",
"147 676 CURVE SMOOTH",
"183 676 OFFCURVE",
"198 647 OFFCURVE",
"198 598 CURVE SMOOTH",
"198 501 OFFCURVE",
"126 475 OFFCURVE",
"96 469 CURVE"
);
}
);
width = 384;
}
);
unicode = 10E9;
},
{
glyphname = "can-georgian";
lastChange = "2016-05-17 22:05:49 +0000";
layers = (
{
background = {
paths = (
{
closed = 1;
nodes = (
"588 45 OFFCURVE",
"643 72 OFFCURVE",
"643 149 CURVE SMOOTH",
"643 220 OFFCURVE",
"601 253 OFFCURVE",
"551 279 CURVE SMOOTH",
"503 304 OFFCURVE",
"489 327 OFFCURVE",
"481 362 CURVE",
"449 356 LINE",
"449 330 OFFCURVE",
"461 283 OFFCURVE",
"494 263 CURVE SMOOTH",
"531 240 OFFCURVE",
"587 226 OFFCURVE",
"587 149 CURVE SMOOTH",
"587 86 OFFCURVE",
"549 56 OFFCURVE",
"483 48 CURVE",
"483 34 LINE",
"510 23 OFFCURVE",
"592 31 OFFCURVE",
"592 -126 CURVE",
"592 -283 OFFCURVE",
"477 -327 OFFCURVE",
"381 -327 CURVE SMOOTH",
"227 -327 OFFCURVE",
"100 -176 OFFCURVE",
"100 10 CURVE",
"100 179 OFFCURVE",
"170 274 OFFCURVE",
"220 321 CURVE",
"185 350 LINE",
"139 310 OFFCURVE",
"40 223 OFFCURVE",
"40 10 CURVE SMOOTH",
"40 -220 OFFCURVE",
"201 -373 OFFCURVE",
"381 -373 CURVE SMOOTH",
"546 -373 OFFCURVE",
"652 -272 OFFCURVE",
"652 -123 CURVE",
"652 -12 OFFCURVE",
"582 34 OFFCURVE",
"561 39 CURVE",
"561 41 LINE"
);
}
);
};
backgroundImage = {
crop = "{{0, 0}, {420, 175.44}}";
imagePath = venuri_symb/27_can.jpg;
locked = "1";
transform = "{7, 0, 0, 7, -11, -438}";
};
guideLines = (
{
position = "{337, 40}";
},
{
angle = 90;
position = "{513, 46}";
}
);
layerId = "9F5B1694-2A59-45B7-91CA-438A6316E2AD";
paths = (
{
closed = 1;
nodes = (
"583 43 OFFCURVE",
"643 72 OFFCURVE",
"643 149 CURVE SMOOTH",
"643 223 OFFCURVE",
"583 253 OFFCURVE",
"534 285 CURVE SMOOTH",
"512 299 OFFCURVE",
"487 326 OFFCURVE",
"479 362 CURVE",
"438 350 LINE",
"438 294 OFFCURVE",
"483 260 OFFCURVE",
"521 235 CURVE SMOOTH",
"551 215 OFFCURVE",
"587 195 OFFCURVE",
"587 149 CURVE SMOOTH",
"587 96 OFFCURVE",
"548 63 OFFCURVE",
"503 63 CURVE",
"463 63 LINE",
"463 18 LINE",
"478 18 LINE",
"523 18 OFFCURVE",
"592 -9 OFFCURVE",
"592 -126 CURVE",
"592 -273 OFFCURVE",
"477 -327 OFFCURVE",
"381 -327 CURVE SMOOTH",
"227 -327 OFFCURVE",
"120 -186 OFFCURVE",
"120 0 CURVE",
"120 179 OFFCURVE",
"200 279 OFFCURVE",
"249 333 CURVE",
"212 362 LINE",
"166 322 OFFCURVE",
"60 203 OFFCURVE",
"60 0 CURVE SMOOTH",
"60 -230 OFFCURVE",
"201 -373 OFFCURVE",
"381 -373 CURVE SMOOTH",
"546 -373 OFFCURVE",
"652 -262 OFFCURVE",
"652 -123 CURVE",
"652 -12 OFFCURVE",
"577 32 OFFCURVE",
"556 37 CURVE",
"556 39 LINE"
);
}
);
width = 712;
},
{
associatedMasterId = "9F5B1694-2A59-45B7-91CA-438A6316E2AD";
backgroundImage = {
crop = "{{0, 0}, {420, 175.44}}";
imagePath = venuri_symb/27_can.jpg;
locked = "1";
transform = "{7, 0, 0, 7, -13, -438}";
};
guideLines = (
{
position = "{335, 40}";
}
);
layerId = "373E5F24-5C9A-4EF2-AB00-66C5A609F27B";
name = "Regular May 17 16, 15:13";
paths = (
{
closed = 1;
nodes = (
"586 45 OFFCURVE",
"641 72 OFFCURVE",
"641 149 CURVE SMOOTH",
"641 220 OFFCURVE",
"599 253 OFFCURVE",
"549 279 CURVE SMOOTH",
"501 304 OFFCURVE",
"487 327 OFFCURVE",
"479 362 CURVE",
"447 356 LINE",
"447 330 OFFCURVE",
"459 283 OFFCURVE",
"492 263 CURVE SMOOTH",
"529 240 OFFCURVE",
"585 226 OFFCURVE",
"585 149 CURVE SMOOTH",
"585 86 OFFCURVE",
"547 56 OFFCURVE",
"481 48 CURVE",
"481 34 LINE",
"508 23 OFFCURVE",
"590 31 OFFCURVE",
"590 -126 CURVE",
"590 -283 OFFCURVE",
"475 -327 OFFCURVE",
"379 -327 CURVE SMOOTH",
"225 -327 OFFCURVE",
"98 -176 OFFCURVE",
"98 10 CURVE",
"98 179 OFFCURVE",
"168 274 OFFCURVE",
"218 321 CURVE",
"183 350 LINE",
"137 310 OFFCURVE",
"38 223 OFFCURVE",
"38 10 CURVE SMOOTH",
"38 -220 OFFCURVE",
"199 -373 OFFCURVE",
"379 -373 CURVE SMOOTH",
"544 -373 OFFCURVE",
"650 -272 OFFCURVE",
"650 -123 CURVE",
"650 -12 OFFCURVE",
"580 34 OFFCURVE",
"559 39 CURVE",
"559 41 LINE"
);
}
);
width = 700;
}
);
unicode = 10EA;
},
{
glyphname = "jil-georgian";
lastChange = "2016-04-12 18:57:34 +0000";
layers = (
{
backgroundImage = {
crop = "{{0, 0}, {452.39999999999998, 174.72}}";
imagePath = venuri_symb/28_jil.jpg;
locked = "1";
transform = "{7, 0, 0, 7, -14, -397}";
};
layerId = "9F5B1694-2A59-45B7-91CA-438A6316E2AD";
paths = (
{
closed = 1;
nodes = (
"328 710 LINE",
"328 303 LINE",
"326 303 LINE",
"299 342 OFFCURVE",
"257 362 OFFCURVE",
"207 362 CURVE SMOOTH",
"107 362 OFFCURVE",
"40 278 OFFCURVE",
"40 175 CURVE SMOOTH",
"40 72 OFFCURVE",
"107 -12 OFFCURVE",
"213 -12 CURVE SMOOTH",
"319 -12 OFFCURVE",
"384 72 OFFCURVE",
"384 175 CURVE SMOOTH",
"384 710 LINE"
);
},
{
closed = 1;
nodes = (
"100 265 OFFCURVE",
"147 316 OFFCURVE",
"214 316 CURVE SMOOTH",
"280 316 OFFCURVE",
"328 265 OFFCURVE",
"328 174 CURVE SMOOTH",
"328 88 OFFCURVE",
"280 34 OFFCURVE",
"214 34 CURVE SMOOTH",
"147 34 OFFCURVE",
"100 88 OFFCURVE",
"100 174 CURVE SMOOTH"
);
}
);
width = 444;
}
);
unicode = 10EB;
},
{
glyphname = "cil-georgian";
lastChange = "2016-05-17 22:06:00 +0000";
layers = (
{
backgroundImage = {
crop = "{{0, 0}, {346.80000000000001, 183.59999999999999}}";
imagePath = venuri_symb/29_cil.jpg;
locked = "1";
transform = "{7, 0, 0, 7, -1302, -417}";
};
layerId = "9F5B1694-2A59-45B7-91CA-438A6316E2AD";
paths = (
{
closed = 1;
nodes = (
"147 304 LINE",
"392 304 LINE",
"392 165 OFFCURVE",
"361 -31 OFFCURVE",
"300 -206 CURVE SMOOTH",
"297 -215 OFFCURVE",
"286 -248 OFFCURVE",
"284 -260 CURVE",
"282 -260 LINE",
"284 -243 OFFCURVE",
"286 -224 OFFCURVE",
"286 -213 CURVE SMOOTH",
"286 13 OFFCURVE",
"96 439 OFFCURVE",
"96 576 CURVE",
"96 656 OFFCURVE",
"132 680 OFFCURVE",
"176 680 CURVE SMOOTH",
"220 680 OFFCURVE",
"252 639 OFFCURVE",
"252 569 CURVE SMOOTH",
"252 494 LINE",
"302 494 LINE",
"302 569 LINE SMOOTH",
"302 639 OFFCURVE",
"336 680 OFFCURVE",
"382 680 CURVE SMOOTH",
"431 680 OFFCURVE",
"465 647 OFFCURVE",
"465 590 CURVE SMOOTH",
"465 550 OFFCURVE",
"450 508 OFFCURVE",
"430 480 CURVE",
"470 462 LINE",
"489 479 OFFCURVE",
"521 527 OFFCURVE",
"521 588 CURVE SMOOTH",
"521 668 OFFCURVE",
"462 726 OFFCURVE",
"389 726 CURVE SMOOTH",
"343 726 OFFCURVE",
"300 697 OFFCURVE",
"278 639 CURVE",
"276 639 LINE",
"257 697 OFFCURVE",
"218 726 OFFCURVE",
"173 726 CURVE SMOOTH",
"96 726 OFFCURVE",
"40 677 OFFCURVE",
"40 576 CURVE",
"40 409 OFFCURVE",
"252 -40 OFFCURVE",
"252 -360 CURVE",
"279 -360 LINE",
"335 -237 OFFCURVE",
"453 9 OFFCURVE",
"453 350 CURVE",
"131 350 LINE"
);
}
);
width = 561;
},
{
associatedMasterId = "9F5B1694-2A59-45B7-91CA-438A6316E2AD";
backgroundImage = {
crop = "{{0, 0}, {346.80000000000001, 183.59999999999999}}";
imagePath = venuri_symb/29_cil.jpg;
locked = "1";
transform = "{7, 0, 0, 7, -1306, -417}";
};
layerId = "5104E72E-1307-4D06-8BCA-E88F9EE718B1";
name = "Regular May 17 16, 15:21";
paths = (
{
closed = 1;
nodes = (
"275 -320 LINE",
"331 -197 OFFCURVE",
"444 -5 OFFCURVE",
"444 336 CURVE",
"155 336 LINE",
"131 400 OFFCURVE",
"96 499 OFFCURVE",
"96 576 CURVE",
"96 656 OFFCURVE",
"128 680 OFFCURVE",
"172 680 CURVE SMOOTH",
"216 680 OFFCURVE",
"248 639 OFFCURVE",
"248 569 CURVE SMOOTH",
"248 494 LINE",
"298 494 LINE",
"298 569 LINE SMOOTH",
"298 639 OFFCURVE",
"332 680 OFFCURVE",
"378 680 CURVE SMOOTH",
"427 680 OFFCURVE",
"461 647 OFFCURVE",
"461 590 CURVE SMOOTH",
"461 550 OFFCURVE",
"446 508 OFFCURVE",
"426 480 CURVE",
"452 462 LINE",
"477 476 OFFCURVE",
"517 527 OFFCURVE",
"517 588 CURVE SMOOTH",
"517 668 OFFCURVE",
"458 726 OFFCURVE",
"385 726 CURVE SMOOTH",
"339 726 OFFCURVE",
"296 697 OFFCURVE",
"274 639 CURVE",
"272 639 LINE",
"253 697 OFFCURVE",
"214 726 OFFCURVE",
"169 726 CURVE SMOOTH",
"92 726 OFFCURVE",
"40 677 OFFCURVE",
"40 576 CURVE",
"40 409 OFFCURVE",
"253 0 OFFCURVE",
"253 -320 CURVE"
);
},
{
closed = 1;
nodes = (
"289 -63 OFFCURVE",
"219 154 OFFCURVE",
"174 290 CURVE",
"383 290 LINE",
"383 143 OFFCURVE",
"360 10 OFFCURVE",
"292 -172 CURVE",
"289 -172 LINE"
);
}
);
width = 557;
}
);
unicode = 10EC;
},
{
glyphname = "char-georgian";
lastChange = "2016-05-17 22:06:21 +0000";
layers = (
{
backgroundImage = {
crop = "{{0, 0}, {372, 187.19999999999999}}";
imagePath = venuri_symb/30_char.jpg;
locked = "1";
transform = "{7, 0, 0, 7, -348, -433}";
};
layerId = "9F5B1694-2A59-45B7-91CA-438A6316E2AD";
paths = (
{
closed = 1;
nodes = (
"30 -299 OFFCURVE",
"105 -372 OFFCURVE",
"228 -372 CURVE SMOOTH",
"358 -372 OFFCURVE",
"428 -264 OFFCURVE",
"428 -174 CURVE SMOOTH",
"428 -31 OFFCURVE",
"347 96 OFFCURVE",
"331 187 CURVE",
"335 187 LINE",
"364 148 OFFCURVE",
"407 116 OFFCURVE",
"414 110 CURVE",
"442 137 LINE",
"434 143 OFFCURVE",
"392 172 OFFCURVE",
"358 205 CURVE",
"395 231 OFFCURVE",
"440 277 OFFCURVE",
"446 284 CURVE",
"414 312 LINE",
"409 306 OFFCURVE",
"371 256 OFFCURVE",
"335 224 CURVE",
"331 224 LINE",
"337 300 OFFCURVE",
"366 405 OFFCURVE",
"366 513 CURVE SMOOTH",
"366 589 OFFCURVE",
"314 614 OFFCURVE",
"281 634 CURVE SMOOTH",
"153 710 LINE",
"117 710 LINE",
"117 642 OFFCURVE",
"115 561 OFFCURVE",
"109 493 CURVE",
"160 493 LINE",
"164 545 OFFCURVE",
"164 609 OFFCURVE",
"164 643 CURVE",
"168 643 LINE",
"259 586 LINE SMOOTH",
"284 570 OFFCURVE",
"308 555 OFFCURVE",
"308 508 CURVE SMOOTH",
"308 422 OFFCURVE",
"296 325 OFFCURVE",
"291 257 CURVE",
"275 277 OFFCURVE",
"246 302 OFFCURVE",
"214 302 CURVE SMOOTH",
"154 302 OFFCURVE",
"119 264 OFFCURVE",
"119 207 CURVE SMOOTH",
"119 150 OFFCURVE",
"154 112 OFFCURVE",
"214 112 CURVE SMOOTH",
"248 112 OFFCURVE",
"274 132 OFFCURVE",
"294 155 CURVE",
"310 60 OFFCURVE",
"368 -45 OFFCURVE",
"368 -168 CURVE SMOOTH",
"368 -250 OFFCURVE",
"314 -326 OFFCURVE",
"228 -326 CURVE SMOOTH",
"149 -326 OFFCURVE",
"88 -282 OFFCURVE",
"88 -192 CURVE SMOOTH",
"88 -150 OFFCURVE",
"105 -119 OFFCURVE",
"126 -93 CURVE",
"91 -63 LINE",
"61 -90 OFFCURVE",
"30 -136 OFFCURVE",
"30 -203 CURVE SMOOTH"
);
},
{
closed = 1;
nodes = (
"165 234 OFFCURVE",
"179 258 OFFCURVE",
"215 258 CURVE SMOOTH",
"245 258 OFFCURVE",
"271 237 OFFCURVE",
"291 218 CURVE",
"291 195 LINE",
"270 175 OFFCURVE",
"245 156 OFFCURVE",
"215 156 CURVE SMOOTH",
"179 156 OFFCURVE",
"165 180 OFFCURVE",
"165 207 CURVE SMOOTH"
);
}
);
width = 486;
},
{
associatedMasterId = "9F5B1694-2A59-45B7-91CA-438A6316E2AD";
backgroundImage = {
crop = "{{0, 0}, {372, 187.19999999999999}}";
imagePath = venuri_symb/30_char.jpg;
locked = "1";
transform = "{7, 0, 0, 7, -312, -433}";
};
layerId = "E51C2635-237B-4D57-B2D2-AC572C841427";
name = "Regular May 17 16, 15:29";
paths = (
{
closed = 1;
nodes = (
"374 297 OFFCURVE",
"403 383 OFFCURVE",
"403 523 CURVE SMOOTH",
"403 589 OFFCURVE",
"349 612 OFFCURVE",
"318 634 CURVE SMOOTH",
"210 710 LINE",
"174 710 LINE",
"174 642 OFFCURVE",
"172 541 OFFCURVE",
"166 473 CURVE",
"217 473 LINE",
"221 525 OFFCURVE",
"221 609 OFFCURVE",
"221 643 CURVE",
"225 643 LINE",
"296 586 LINE SMOOTH",
"319 568 OFFCURVE",
"345 555 OFFCURVE",
"345 518 CURVE SMOOTH",
"345 387 OFFCURVE",
"328 297 OFFCURVE",
"328 207 CURVE SMOOTH",
"328 108 OFFCURVE",
"402 -30 OFFCURVE",
"402 -188 CURVE SMOOTH",
"402 -270 OFFCURVE",
"351 -326 OFFCURVE",
"265 -326 CURVE SMOOTH",
"179 -326 OFFCURVE",
"98 -259 OFFCURVE",
"98 -163 CURVE SMOOTH",
"98 -100 OFFCURVE",
"123 -55 OFFCURVE",
"136 -39 CURVE",
"110 -18 LINE",
"83 -40 OFFCURVE",
"40 -98 OFFCURVE",
"40 -180 CURVE SMOOTH",
"40 -276 OFFCURVE",
"135 -372 OFFCURVE",
"265 -372 CURVE SMOOTH",
"395 -372 OFFCURVE",
"458 -284 OFFCURVE",
"458 -194 CURVE SMOOTH",
"458 -30 OFFCURVE",
"374 107 OFFCURVE",
"374 207 CURVE SMOOTH"
);
},
{
closed = 1;
nodes = (
"166 150 OFFCURVE",
"208 122 OFFCURVE",
"258 122 CURVE SMOOTH",
"356 122 OFFCURVE",
"471 260 OFFCURVE",
"486 280 CURVE",
"454 308 LINE",
"439 288 OFFCURVE",
"333 166 OFFCURVE",
"259 166 CURVE SMOOTH",
"233 166 OFFCURVE",
"212 180 OFFCURVE",
"212 207 CURVE",
"212 234 OFFCURVE",
"233 248 OFFCURVE",
"259 248 CURVE SMOOTH",
"333 248 OFFCURVE",
"439 126 OFFCURVE",
"454 106 CURVE",
"486 134 LINE",
"471 154 OFFCURVE",
"356 292 OFFCURVE",
"258 292 CURVE SMOOTH",
"208 292 OFFCURVE",
"166 264 OFFCURVE",
"166 207 CURVE"
);
}
);
width = 526;
}
);
unicode = 10ED;
},
{
glyphname = "xan-georgian";
lastChange = "2016-04-19 18:53:54 +0000";
layers = (
{
backgroundImage = {
crop = "{{0, 0}, {368.39999999999998, 178.79999999999998}}";
imagePath = venuri_symb/31_xan.jpg;
locked = "1";
transform = "{7, 0, 0, 7, -712, -421}";
};
layerId = "9F5B1694-2A59-45B7-91CA-438A6316E2AD";
paths = (
{
closed = 1;
nodes = (
"60 72 OFFCURVE",
"125 -12 OFFCURVE",
"231 -12 CURVE SMOOTH",
"337 -12 OFFCURVE",
"404 72 OFFCURVE",
"404 175 CURVE SMOOTH",
"404 278 OFFCURVE",
"337 362 OFFCURVE",
"247 362 CURVE SMOOTH",
"228 362 OFFCURVE",
"211 360 OFFCURVE",
"195 352 CURVE",
"194 354 LINE",
"216 395 OFFCURVE",
"266 452 OFFCURVE",
"302 486 CURVE",
"262 518 LINE",
"209 461 OFFCURVE",
"163 392 OFFCURVE",
"118 303 CURVE",
"116 303 LINE",
"116 710 LINE",
"60 710 LINE",
"60 175 LINE SMOOTH"
);
},
{
closed = 1;
nodes = (
"116 265 OFFCURVE",
"164 316 OFFCURVE",
"230 316 CURVE SMOOTH",
"297 316 OFFCURVE",
"344 265 OFFCURVE",
"344 174 CURVE SMOOTH",
"344 88 OFFCURVE",
"297 34 OFFCURVE",
"230 34 CURVE SMOOTH",
"164 34 OFFCURVE",
"116 88 OFFCURVE",
"116 174 CURVE SMOOTH"
);
}
);
width = 444;
},
{
associatedMasterId = "9F5B1694-2A59-45B7-91CA-438A6316E2AD";
backgroundImage = {
crop = "{{0, 0}, {368.39999999999998, 178.79999999999998}}";
imagePath = venuri_symb/31_xan.jpg;
locked = "1";
transform = "{7, 0, 0, 7, -712, -421}";
};
layerId = "D4CB5881-70FD-415F-9A67-B5905BD02974";
name = "Regular Apr 13 16, 14:39";
paths = (
{
closed = 1;
nodes = (
"147 295 LINE",
"208 394 OFFCURVE",
"238 429 OFFCURVE",
"302 486 CURVE",
"268 523 LINE",
"200 462 OFFCURVE",
"153 395 OFFCURVE",
"118 303 CURVE"
);
},
{
closed = 1;
nodes = (
"60 175 LINE SMOOTH",
"60 72 OFFCURVE",
"125 -12 OFFCURVE",
"231 -12 CURVE SMOOTH",
"337 -12 OFFCURVE",
"404 72 OFFCURVE",
"404 175 CURVE SMOOTH",
"404 278 OFFCURVE",
"337 362 OFFCURVE",
"237 362 CURVE SMOOTH",
"187 362 OFFCURVE",
"145 342 OFFCURVE",
"118 303 CURVE",
"116 303 LINE",
"116 710 LINE",
"60 710 LINE"
);
},
{
closed = 1;
nodes = (
"344 88 OFFCURVE",
"297 34 OFFCURVE",
"230 34 CURVE SMOOTH",
"164 34 OFFCURVE",
"116 88 OFFCURVE",
"116 174 CURVE SMOOTH",
"116 265 OFFCURVE",
"164 316 OFFCURVE",
"230 316 CURVE SMOOTH",
"297 316 OFFCURVE",
"344 265 OFFCURVE",
"344 174 CURVE SMOOTH"
);
}
);
width = 444;
}
);
unicode = 10EE;
},
{
glyphname = "jhan-georgian";
lastChange = "2016-05-17 22:06:38 +0000";
layers = (
{
background = {
paths = (
{
closed = 0;
nodes = (
"130 -120 LINE",
"113 -154 LINE",
"144 -174 OFFCURVE",
"219 -196 OFFCURVE",
"219 -269 CURVE",
"219 -319 OFFCURVE",
"197 -342 OFFCURVE",
"162 -342 CURVE SMOOTH",
"125 -342 OFFCURVE",
"94 -312 OFFCURVE",
"89 -262 CURVE",
"46 -269 LINE",
"46 -329 OFFCURVE",
"88 -383 OFFCURVE",
"162 -383 CURVE SMOOTH",
"235 -383 OFFCURVE",
"269 -328 OFFCURVE",
"269 -269 CURVE SMOOTH",
"269 -221 OFFCURVE",
"238 -182 OFFCURVE",
"205 -161 CURVE",
"205 -159 LINE"
);
}
);
};
backgroundImage = {
crop = "{{0, 0}, {413.75999999999999, 183.84}}";
imagePath = venuri_symb/32_jhan.jpg;
locked = "1";
transform = "{7, -0, 0, 7, -47, -477}";
};
guideLines = (
{
angle = 90;
position = "{969, -67}";
}
);
layerId = "9F5B1694-2A59-45B7-91CA-438A6316E2AD";
paths = (
{
closed = 1;
nodes = (
"53 214 OFFCURVE",
"71 173 OFFCURVE",
"111 146 CURVE",
"146 177 LINE",
"122 198 OFFCURVE",
"107 229 OFFCURVE",
"107 257 CURVE SMOOTH",
"107 289 OFFCURVE",
"125 317 OFFCURVE",
"163 317 CURVE SMOOTH",
"185 317 OFFCURVE",
"204 304 OFFCURVE",
"221 270 CURVE SMOOTH",
"454 -203 LINE SMOOTH",
"479 -254 OFFCURVE",
"522 -271 OFFCURVE",
"560 -271 CURVE SMOOTH",
"612 -271 OFFCURVE",
"664 -238 OFFCURVE",
"664 -172 CURVE SMOOTH",
"664 -123 OFFCURVE",
"639 -94 OFFCURVE",
"608 -65 CURVE",
"570 -91 LINE",
"589 -113 OFFCURVE",
"612 -142 OFFCURVE",
"612 -171 CURVE SMOOTH",
"612 -197 OFFCURVE",
"591 -226 OFFCURVE",
"559 -226 CURVE SMOOTH",
"539 -226 OFFCURVE",
"513 -212 OFFCURVE",
"498 -181 CURVE SMOOTH",
"264 294 LINE SMOOTH",
"239 344 OFFCURVE",
"201 362 OFFCURVE",
"162 362 CURVE SMOOTH",
"93 362 OFFCURVE",
"53 311 OFFCURVE",
"53 253 CURVE SMOOTH"
);
},
{
closed = 1;
nodes = (
"38 -342 OFFCURVE",
"82 -385 OFFCURVE",
"153 -385 CURVE SMOOTH",
"230 -385 OFFCURVE",
"280 -334 OFFCURVE",
"280 -263 CURVE SMOOTH",
"280 -192 OFFCURVE",
"217 -142 OFFCURVE",
"152 -134 CURVE",
"530 166 LINE SMOOTH",
"562 192 OFFCURVE",
"577 226 OFFCURVE",
"577 259 CURVE SMOOTH",
"577 312 OFFCURVE",
"539 362 OFFCURVE",
"474 362 CURVE SMOOTH",
"426 362 OFFCURVE",
"386 341 OFFCURVE",
"364 307 CURVE",
"391 271 LINE",
"414 305 OFFCURVE",
"441 316 OFFCURVE",
"470 316 CURVE SMOOTH",
"498 316 OFFCURVE",
"522 294 OFFCURVE",
"522 263 CURVE SMOOTH",
"522 236 OFFCURVE",
"516 214 OFFCURVE",
"483 188 CURVE SMOOTH",
"87 -131 LINE",
"87 -136 LINE",
"113 -165 LINE",
"174 -165 OFFCURVE",
"228 -208 OFFCURVE",
"228 -266 CURVE SMOOTH",
"228 -312 OFFCURVE",
"203 -344 OFFCURVE",
"153 -344 CURVE SMOOTH",
"106 -344 OFFCURVE",
"83 -311 OFFCURVE",
"74 -258 CURVE",
"30 -272 LINE"
);
}
);
width = 684;
},
{
associatedMasterId = "9F5B1694-2A59-45B7-91CA-438A6316E2AD";
backgroundImage = {
crop = "{{0, 0}, {413.75999999999999, 183.84}}";
imagePath = venuri_symb/32_jhan.jpg;
locked = "1";
transform = "{7, -0, 0, 7, -39, -477}";
};
guideLines = (
{
angle = 90;
position = "{977, -67}";
}
);
layerId = "A1E922D9-1364-4459-8287-BA3BE4104AC6";
name = "Regular May 17 16, 15:34";
paths = (
{
closed = 1;
nodes = (
"269 302 LINE SMOOTH",
"249 340 OFFCURVE",
"210 362 OFFCURVE",
"171 362 CURVE SMOOTH",
"112 362 OFFCURVE",
"64 313 OFFCURVE",
"64 254 CURVE SMOOTH",
"64 212 OFFCURVE",
"92 166 OFFCURVE",
"128 144 CURVE",
"160 176 LINE",
"140 190 OFFCURVE",
"113 225 OFFCURVE",
"113 254 CURVE SMOOTH",
"113 284 OFFCURVE",
"136 313 OFFCURVE",
"172 313 CURVE SMOOTH",
"194 313 OFFCURVE",
"214 300 OFFCURVE",
"226 278 CURVE SMOOTH",
"487 -211 LINE SMOOTH",
"508 -250 OFFCURVE",
"546 -273 OFFCURVE",
"584 -273 CURVE SMOOTH",
"636 -273 OFFCURVE",
"680 -230 OFFCURVE",
"680 -172 CURVE SMOOTH",
"680 -131 OFFCURVE",
"659 -97 OFFCURVE",
"628 -62 CURVE",
"589 -91 LINE",
"608 -113 OFFCURVE",
"631 -142 OFFCURVE",
"631 -171 CURVE SMOOTH",
"631 -197 OFFCURVE",
"615 -223 OFFCURVE",
"583 -223 CURVE SMOOTH",
"563 -223 OFFCURVE",
"542 -210 OFFCURVE",
"530 -188 CURVE SMOOTH"
);
},
{
closed = 1;
nodes = (
"71 -162 LINE",
"138 -184 OFFCURVE",
"234 -204 OFFCURVE",
"234 -277 CURVE SMOOTH",
"234 -311 OFFCURVE",
"214 -337 OFFCURVE",
"179 -337 CURVE SMOOTH",
"133 -337 OFFCURVE",
"94 -298 OFFCURVE",
"76 -241 CURVE",
"40 -262 LINE",
"57 -329 OFFCURVE",
"108 -383 OFFCURVE",
"180 -383 CURVE SMOOTH",
"235 -383 OFFCURVE",
"291 -352 OFFCURVE",
"291 -284 CURVE SMOOTH",
"291 -203 OFFCURVE",
"223 -167 OFFCURVE",
"149 -145 CURVE",
"149 -143 LINE",
"544 166 LINE",
"572 188 OFFCURVE",
"588 221 OFFCURVE",
"588 255 CURVE SMOOTH",
"588 312 OFFCURVE",
"539 362 OFFCURVE",
"481 362 CURVE SMOOTH",
"433 362 OFFCURVE",
"381 324 OFFCURVE",
"365 279 CURVE",
"401 252 LINE",
"412 277 OFFCURVE",
"447 313 OFFCURVE",
"480 313 CURVE SMOOTH",
"513 313 OFFCURVE",
"539 287 OFFCURVE",
"539 255 CURVE SMOOTH",
"539 236 OFFCURVE",
"530 218 OFFCURVE",
"514 205 CURVE",
"67 -144 LINE"
);
}
);
width = 720;
}
);
unicode = 10EF;
},
{
glyphname = "hae-georgian";
lastChange = "2016-05-17 21:59:58 +0000";
layers = (
{
backgroundImage = {
crop = "{{0, 0}, {470.88, 187.19999999999999}}";
imagePath = venuri_symb/33_hae.jpg;
locked = "1";
transform = "{7, 0, 0, 7, -1837, -470}";
};
guideLines = (
{
angle = 90;
position = "{341, 0}";
},
{
angle = 90;
position = "{331, 0}";
},
{
angle = 90;
position = "{311, 0}";
},
{
angle = 90;
position = "{229, 230}";
},
{
angle = 90;
position = "{101, 245}";
},
{
angle = 90;
position = "{147, 200}";
}
);
layerId = "9F5B1694-2A59-45B7-91CA-438A6316E2AD";
paths = (
{
closed = 1;
nodes = (
"17 53 OFFCURVE",
"69 -12 OFFCURVE",
"171 -12 CURVE SMOOTH",
"281 -12 OFFCURVE",
"341 63 OFFCURVE",
"341 135 CURVE SMOOTH",
"341 215 OFFCURVE",
"281 257 OFFCURVE",
"240 265 CURVE",
"240 267 LINE",
"292 273 OFFCURVE",
"331 311 OFFCURVE",
"331 364 CURVE SMOOTH",
"331 413 OFFCURVE",
"292 453 OFFCURVE",
"239 459 CURVE",
"239 461 LINE",
"281 473 OFFCURVE",
"311 500 OFFCURVE",
"311 549 CURVE SMOOTH",
"311 668 OFFCURVE",
"156 649 OFFCURVE",
"139 722 CURVE",
"99 710 LINE",
"99 615 OFFCURVE",
"255 635 OFFCURVE",
"255 548 CURVE SMOOTH",
"255 503 OFFCURVE",
"229 483 OFFCURVE",
"178 483 CURVE SMOOTH",
"127 483 LINE",
"127 437 LINE",
"178 437 LINE SMOOTH",
"239 437 OFFCURVE",
"275 410 OFFCURVE",
"275 364 CURVE SMOOTH",
"275 317 OFFCURVE",
"239 289 OFFCURVE",
"178 289 CURVE SMOOTH",
"127 289 LINE",
"127 243 LINE",
"171 243 LINE SMOOTH",
"249 243 OFFCURVE",
"285 189 OFFCURVE",
"285 135 CURVE SMOOTH",
"285 71 OFFCURVE",
"237 34 OFFCURVE",
"171 34 CURVE SMOOTH",
"106 34 OFFCURVE",
"66 76 OFFCURVE",
"53 146 CURVE",
"6 131 LINE"
);
}
);
width = 381;
},
{
associatedMasterId = "9F5B1694-2A59-45B7-91CA-438A6316E2AD";
backgroundImage = {
crop = "{{0, 0}, {470.88, 187.19999999999999}}";
imagePath = venuri_symb/33_hae.jpg;
locked = "1";
transform = "{7, 0, 0, 7, -1837, -470}";
};
guideLines = (
{
angle = 90;
position = "{341, 0}";
},
{
angle = 90;
position = "{331, 0}";
},
{
angle = 90;
position = "{181, 366}";
},
{
angle = 90;
position = "{311, 0}";
},
{
angle = 90;
position = "{229, 230}";
},
{
angle = 90;
position = "{101, 245}";
},
{
angle = 90;
position = "{127, 200}";
},
{
angle = 90;
position = "{147, 200}";
},
{
angle = 90;
position = "{201, 200}";
}
);
layerId = "4478E51C-1092-4459-9AA1-D9615C57BCA0";
name = "Regular May 10 16, 13:43";
paths = (
{
closed = 1;
nodes = (
"285 480 OFFCURVE",
"311 517 OFFCURVE",
"311 566 CURVE SMOOTH",
"311 625 OFFCURVE",
"256 651 OFFCURVE",
"216 663 CURVE SMOOTH",
"193 670 OFFCURVE",
"157 673 OFFCURVE",
"139 722 CURVE",
"107 716 LINE",
"107 690 OFFCURVE",
"119 668 OFFCURVE",
"152 648 CURVE SMOOTH",
"189 625 OFFCURVE",
"255 630 OFFCURVE",
"255 566 CURVE SMOOTH",
"255 521 OFFCURVE",
"232 484 OFFCURVE",
"181 484 CURVE SMOOTH",
"154 484 OFFCURVE",
"127 495 OFFCURVE",
"116 504 CURVE",
"101 468 LINE",
"147 427 OFFCURVE",
"275 441 OFFCURVE",
"275 357 CURVE SMOOTH",
"275 308 OFFCURVE",
"243 289 OFFCURVE",
"201 289 CURVE SMOOTH",
"163 289 OFFCURVE",
"127 303 OFFCURVE",
"116 311 CURVE",
"101 275 LINE",
"147 234 OFFCURVE",
"285 245 OFFCURVE",
"285 129 CURVE SMOOTH",
"285 67 OFFCURVE",
"256 34 OFFCURVE",
"200 34 CURVE SMOOTH",
"127 34 OFFCURVE",
"82 85 OFFCURVE",
"72 147 CURVE",
"40 137 LINE",
"40 27 OFFCURVE",
"119 -12 OFFCURVE",
"200 -12 CURVE SMOOTH",
"300 -12 OFFCURVE",
"341 53 OFFCURVE",
"341 129 CURVE SMOOTH",
"341 205 OFFCURVE",
"290 241 OFFCURVE",
"234 260 CURVE",
"234 262 LINE",
"302 265 OFFCURVE",
"331 308 OFFCURVE",
"331 357 CURVE SMOOTH",
"331 417 OFFCURVE",
"282 442 OFFCURVE",
"229 459 CURVE",
"229 461 LINE"
);
}
);
width = 381;
}
);
unicode = 10F0;
},
{
glyphname = "he-georgian";
lastChange = "2016-05-17 13:53:23 +0000";
layers = (
{
background = {
paths = (
{
closed = 1;
nodes = (
"211 402 OFFCURVE",
"290 522 OFFCURVE",
"290 619 CURVE SMOOTH",
"290 679 OFFCURVE",
"268 725 OFFCURVE",
"212 725 CURVE",
"125 725 OFFCURVE",
"86 584 OFFCURVE",
"86 450 CURVE SMOOTH",
"86 182 OFFCURVE",
"213 -12 OFFCURVE",
"387 -12 CURVE SMOOTH",
"559 -12 OFFCURVE",
"628 132 OFFCURVE",
"628 218 CURVE SMOOTH",
"628 336 OFFCURVE",
"572 373 OFFCURVE",
"532 405 CURVE",
"532 407 LINE",
"579 421 OFFCURVE",
"606 450 OFFCURVE",
"606 512 CURVE SMOOTH",
"606 625 OFFCURVE",
"434 620 OFFCURVE",
"434 710 CURVE",
"405 710 LINE",
"405 662 OFFCURVE",
"422 636 OFFCURVE",
"469 606 CURVE SMOOTH",
"522 572 OFFCURVE",
"546 552 OFFCURVE",
"546 511 CURVE SMOOTH",
"546 468 OFFCURVE",
"526 433 OFFCURVE",
"481 433 CURVE",
"469 402 LINE",
"483 389 OFFCURVE",
"572 336 OFFCURVE",
"572 218 CURVE SMOOTH",
"572 146 OFFCURVE",
"515 34 OFFCURVE",
"387 34 CURVE SMOOTH",
"250 34 OFFCURVE",
"146 231 OFFCURVE",
"146 358 CURVE"
);
},
{
closed = 1;
nodes = (
"131 404 LINE",
"131 563 OFFCURVE",
"163 679 OFFCURVE",
"209 679 CURVE",
"234 679 OFFCURVE",
"244 652 OFFCURVE",
"244 619 CURVE SMOOTH",
"244 538 OFFCURVE",
"188 454 OFFCURVE",
"133 404 CURVE"
);
}
);
};
backgroundImage = {
crop = "{{0, 0}, {451.44, 132.24000000000001}}";
imagePath = venuri_symb/34_he.jpg;
locked = "1";
transform = "{7, 0, 0, 7, -2406, -117}";
};
guideLines = (
{
angle = 90;
position = "{146, 375}";
}
);
layerId = "9F5B1694-2A59-45B7-91CA-438A6316E2AD";
paths = (
{
closed = 1;
nodes = (
"211 402 OFFCURVE",
"290 522 OFFCURVE",
"290 619 CURVE SMOOTH",
"290 679 OFFCURVE",
"268 725 OFFCURVE",
"212 725 CURVE",
"125 725 OFFCURVE",
"86 584 OFFCURVE",
"86 450 CURVE SMOOTH",
"86 182 OFFCURVE",
"213 -12 OFFCURVE",
"387 -12 CURVE SMOOTH",
"559 -12 OFFCURVE",
"628 132 OFFCURVE",
"628 228 CURVE SMOOTH",
"628 346 OFFCURVE",
"570 386 OFFCURVE",
"532 405 CURVE",
"532 407 LINE",
"575 421 OFFCURVE",
"606 458 OFFCURVE",
"606 512 CURVE SMOOTH",
"606 591 OFFCURVE",
"524 617 OFFCURVE",
"473 653 CURVE SMOOTH",
"451 669 OFFCURVE",
"437 693 OFFCURVE",
"434 710 CURVE",
"401 702 LINE",
"401 669 OFFCURVE",
"422 636 OFFCURVE",
"469 606 CURVE SMOOTH",
"522 572 OFFCURVE",
"546 552 OFFCURVE",
"546 511 CURVE SMOOTH",
"546 473 OFFCURVE",
"531 429 OFFCURVE",
"482 429 CURVE SMOOTH",
"461 429 LINE",
"461 384 LINE",
"474 384 LINE SMOOTH",
"512 384 OFFCURVE",
"572 327 OFFCURVE",
"572 228 CURVE SMOOTH",
"572 146 OFFCURVE",
"515 34 OFFCURVE",
"387 34 CURVE SMOOTH",
"250 34 OFFCURVE",
"146 231 OFFCURVE",
"146 358 CURVE"
);
},
{
closed = 1;
nodes = (
"131 404 LINE",
"131 563 OFFCURVE",
"163 679 OFFCURVE",
"209 679 CURVE",
"234 679 OFFCURVE",
"244 652 OFFCURVE",
"244 619 CURVE SMOOTH",
"244 538 OFFCURVE",
"188 454 OFFCURVE",
"133 404 CURVE"
);
}
);
width = 600;
},
{
associatedMasterId = "9F5B1694-2A59-45B7-91CA-438A6316E2AD";
backgroundImage = {
crop = "{{0, 0}, {451.44, 132.24000000000001}}";
imagePath = venuri_symb/34_he.jpg;
locked = "1";
transform = "{7, 0, 0, 7, -2406, -117}";
};
guideLines = (
{
angle = 90;
position = "{146, 375}";
}
);
layerId = "30C84AE8-855D-4777-BAE6-E95074C8B78E";
name = "Regular May 17 16, 16:02";
paths = (
{
closed = 1;
nodes = (
"211 402 OFFCURVE",
"290 522 OFFCURVE",
"290 619 CURVE SMOOTH",
"290 679 OFFCURVE",
"268 725 OFFCURVE",
"212 725 CURVE",
"125 725 OFFCURVE",
"86 584 OFFCURVE",
"86 450 CURVE SMOOTH",
"86 182 OFFCURVE",
"213 -12 OFFCURVE",
"387 -12 CURVE SMOOTH",
"559 -12 OFFCURVE",
"628 132 OFFCURVE",
"628 218 CURVE SMOOTH",
"628 336 OFFCURVE",
"572 373 OFFCURVE",
"532 405 CURVE",
"532 407 LINE",
"579 421 OFFCURVE",
"606 450 OFFCURVE",
"606 512 CURVE SMOOTH",
"606 625 OFFCURVE",
"434 620 OFFCURVE",
"434 710 CURVE",
"405 710 LINE",
"405 662 OFFCURVE",
"422 636 OFFCURVE",
"469 606 CURVE SMOOTH",
"522 572 OFFCURVE",
"546 552 OFFCURVE",
"546 511 CURVE SMOOTH",
"546 468 OFFCURVE",
"526 433 OFFCURVE",
"481 433 CURVE",
"469 402 LINE",
"483 389 OFFCURVE",
"572 336 OFFCURVE",
"572 218 CURVE SMOOTH",
"572 146 OFFCURVE",
"515 34 OFFCURVE",
"387 34 CURVE SMOOTH",
"250 34 OFFCURVE",
"146 231 OFFCURVE",
"146 358 CURVE"
);
},
{
closed = 1;
nodes = (
"131 404 LINE",
"131 563 OFFCURVE",
"163 679 OFFCURVE",
"209 679 CURVE",
"234 679 OFFCURVE",
"244 652 OFFCURVE",
"244 619 CURVE SMOOTH",
"244 538 OFFCURVE",
"188 454 OFFCURVE",
"133 404 CURVE"
);
}
);
width = 600;
}
);
unicode = 10F1;
},
{
glyphname = "hie-georgian";
lastChange = "2016-05-17 13:55:47 +0000";
layers = (
{
background = {
paths = (
{
closed = 1;
nodes = (
"77 1 OFFCURVE",
"128 -11 OFFCURVE",
"182 -11 CURVE SMOOTH",
"231 -11 OFFCURVE",
"279 0 OFFCURVE",
"320 19 CURVE",
"361 0 OFFCURVE",
"409 -11 OFFCURVE",
"458 -11 CURVE SMOOTH",
"512 -11 OFFCURVE",
"563 1 OFFCURVE",
"600 22 CURVE",
"584 62 LINE",
"549 46 OFFCURVE",
"507 36 OFFCURVE",
"463 36 CURVE SMOOTH",
"431 36 OFFCURVE",
"401 41 OFFCURVE",
"373 51 CURVE",
"428 93 OFFCURVE",
"463 153 OFFCURVE",
"463 224 CURVE SMOOTH",
"463 306 OFFCURVE",
"400 362 OFFCURVE",
"320 362 CURVE SMOOTH",
"240 362 OFFCURVE",
"177 306 OFFCURVE",
"177 224 CURVE SMOOTH",
"177 153 OFFCURVE",
"212 93 OFFCURVE",
"267 51 CURVE",
"239 41 OFFCURVE",
"209 36 OFFCURVE",
"177 36 CURVE SMOOTH",
"133 36 OFFCURVE",
"91 46 OFFCURVE",
"56 62 CURVE",
"40 22 LINE"
);
},
{
closed = 1;
nodes = (
"237 281 OFFCURVE",
"273 316 OFFCURVE",
"320 316 CURVE SMOOTH",
"367 316 OFFCURVE",
"403 281 OFFCURVE",
"403 224 CURVE SMOOTH",
"403 160 OFFCURVE",
"370 109 OFFCURVE",
"320 76 CURVE",
"270 109 OFFCURVE",
"237 160 OFFCURVE",
"237 224 CURVE SMOOTH"
);
}
);
};
backgroundImage = {
crop = "{{0, 0}, {476.88, 163.91999999999999}}";
imagePath = venuri_symb/35_hie.jpg;
locked = "1";
transform = "{7, 0, 0, 7, -2626, -214}";
};
layerId = "9F5B1694-2A59-45B7-91CA-438A6316E2AD";
paths = (
{
closed = 1;
nodes = (
"234 -11 OFFCURVE",
"279 3 OFFCURVE",
"320 22 CURVE",
"361 3 OFFCURVE",
"406 -11 OFFCURVE",
"455 -11 CURVE SMOOTH",
"509 -11 OFFCURVE",
"563 4 OFFCURVE",
"600 32 CURVE",
"584 72 LINE",
"549 49 OFFCURVE",
"504 36 OFFCURVE",
"460 36 CURVE SMOOTH",
"428 36 OFFCURVE",
"398 40 OFFCURVE",
"370 50 CURVE",
"370 52 LINE",
"442 89 OFFCURVE",
"483 143 OFFCURVE",
"483 214 CURVE SMOOTH",
"483 306 OFFCURVE",
"400 362 OFFCURVE",
"320 362 CURVE",
"240 362 OFFCURVE",
"157 306 OFFCURVE",
"157 214 CURVE SMOOTH",
"157 143 OFFCURVE",
"196 89 OFFCURVE",
"270 52 CURVE",
"270 50 LINE",
"242 40 OFFCURVE",
"212 36 OFFCURVE",
"180 36 CURVE SMOOTH",
"136 36 OFFCURVE",
"91 49 OFFCURVE",
"56 72 CURVE",
"40 32 LINE",
"77 4 OFFCURVE",
"131 -11 OFFCURVE",
"185 -11 CURVE SMOOTH"
);
},
{
closed = 1;
nodes = (
"247 108 OFFCURVE",
"217 150 OFFCURVE",
"217 214 CURVE SMOOTH",
"217 280 OFFCURVE",
"273 316 OFFCURVE",
"320 316 CURVE",
"367 316 OFFCURVE",
"423 280 OFFCURVE",
"423 214 CURVE SMOOTH",
"423 150 OFFCURVE",
"391 108 OFFCURVE",
"321 73 CURVE",
"319 73 LINE"
);
}
);
width = 640;
},
{
associatedMasterId = "9F5B1694-2A59-45B7-91CA-438A6316E2AD";
backgroundImage = {
crop = "{{0, 0}, {476.88, 163.91999999999999}}";
imagePath = venuri_symb/35_hie.jpg;
locked = "1";
transform = "{7, 0, 0, 7, -2649, -214}";
};
layerId = "71AB7F0F-CECF-4B0E-B887-C55BF8ECCAF8";
name = "Regular Apr 30 16, 11:15";
paths = (
{
closed = 1;
nodes = (
"344 316 OFFCURVE",
"380 281 OFFCURVE",
"380 224 CURVE SMOOTH",
"380 110 OFFCURVE",
"275 36 OFFCURVE",
"154 36 CURVE SMOOTH",
"110 36 OFFCURVE",
"68 46 OFFCURVE",
"33 62 CURVE",
"17 22 LINE",
"54 1 OFFCURVE",
"105 -11 OFFCURVE",
"159 -11 CURVE SMOOTH",
"308 -11 OFFCURVE",
"440 87 OFFCURVE",
"440 224 CURVE SMOOTH",
"440 306 OFFCURVE",
"377 362 OFFCURVE",
"297 362 CURVE",
"217 362 OFFCURVE",
"154 306 OFFCURVE",
"154 224 CURVE SMOOTH",
"154 87 OFFCURVE",
"286 -11 OFFCURVE",
"435 -11 CURVE SMOOTH",
"489 -11 OFFCURVE",
"540 1 OFFCURVE",
"577 22 CURVE",
"561 62 LINE",
"526 46 OFFCURVE",
"484 36 OFFCURVE",
"440 36 CURVE SMOOTH",
"319 36 OFFCURVE",
"214 110 OFFCURVE",
"214 224 CURVE SMOOTH",
"214 281 OFFCURVE",
"250 316 OFFCURVE",
"297 316 CURVE"
);
}
);
width = 600;
},
{
associatedMasterId = "9F5B1694-2A59-45B7-91CA-438A6316E2AD";
background = {
paths = (
{
closed = 1;
nodes = (
"54 1 OFFCURVE",
"105 -11 OFFCURVE",
"159 -11 CURVE SMOOTH",
"208 -11 OFFCURVE",
"256 0 OFFCURVE",
"297 19 CURVE",
"338 0 OFFCURVE",
"386 -11 OFFCURVE",
"435 -11 CURVE SMOOTH",
"489 -11 OFFCURVE",
"540 1 OFFCURVE",
"577 22 CURVE",
"561 62 LINE",
"526 46 OFFCURVE",
"484 36 OFFCURVE",
"440 36 CURVE SMOOTH",
"408 36 OFFCURVE",
"378 41 OFFCURVE",
"350 51 CURVE",
"405 93 OFFCURVE",
"440 153 OFFCURVE",
"440 224 CURVE SMOOTH",
"440 306 OFFCURVE",
"377 362 OFFCURVE",
"297 362 CURVE SMOOTH",
"217 362 OFFCURVE",
"154 306 OFFCURVE",
"154 224 CURVE SMOOTH",
"154 153 OFFCURVE",
"189 93 OFFCURVE",
"244 51 CURVE",
"216 41 OFFCURVE",
"186 36 OFFCURVE",
"154 36 CURVE SMOOTH",
"110 36 OFFCURVE",
"68 46 OFFCURVE",
"33 62 CURVE",
"17 22 LINE"
);
},
{
closed = 1;
nodes = (
"214 281 OFFCURVE",
"250 316 OFFCURVE",
"297 316 CURVE SMOOTH",
"344 316 OFFCURVE",
"380 281 OFFCURVE",
"380 224 CURVE SMOOTH",
"380 160 OFFCURVE",
"347 109 OFFCURVE",
"297 76 CURVE",
"247 109 OFFCURVE",
"214 160 OFFCURVE",
"214 224 CURVE SMOOTH"
);
}
);
};
backgroundImage = {
crop = "{{0, 0}, {476.88, 163.91999999999999}}";
imagePath = venuri_symb/35_hie.jpg;
locked = "1";
transform = "{7, 0, 0, 7, -2649, -214}";
};
layerId = "94F5CF7C-576F-4F93-A8AD-D95A05062C91";
name = "Regular Apr 30 16, 11:19";
paths = (
{
closed = 1;
nodes = (
"54 1 OFFCURVE",
"105 -11 OFFCURVE",
"159 -11 CURVE SMOOTH",
"208 -11 OFFCURVE",
"256 0 OFFCURVE",
"297 19 CURVE",
"338 0 OFFCURVE",
"386 -11 OFFCURVE",
"435 -11 CURVE SMOOTH",
"489 -11 OFFCURVE",
"540 1 OFFCURVE",
"577 22 CURVE",
"561 62 LINE",
"526 46 OFFCURVE",
"484 36 OFFCURVE",
"440 36 CURVE SMOOTH",
"408 36 OFFCURVE",
"378 41 OFFCURVE",
"350 51 CURVE",
"405 93 OFFCURVE",
"440 153 OFFCURVE",
"440 224 CURVE SMOOTH",
"440 306 OFFCURVE",
"377 362 OFFCURVE",
"297 362 CURVE SMOOTH",
"217 362 OFFCURVE",
"154 306 OFFCURVE",
"154 224 CURVE SMOOTH",
"154 153 OFFCURVE",
"189 93 OFFCURVE",
"244 51 CURVE",
"216 41 OFFCURVE",
"186 36 OFFCURVE",
"154 36 CURVE SMOOTH",
"110 36 OFFCURVE",
"68 46 OFFCURVE",
"33 62 CURVE",
"17 22 LINE"
);
},
{
closed = 1;
nodes = (
"214 280 OFFCURVE",
"250 316 OFFCURVE",
"297 316 CURVE SMOOTH",
"344 316 OFFCURVE",
"380 281 OFFCURVE",
"380 224 CURVE SMOOTH",
"380 160 OFFCURVE",
"347 109 OFFCURVE",
"298 76 CURVE",
"296 76 LINE",
"246 111 OFFCURVE",
"214 160 OFFCURVE",
"214 224 CURVE SMOOTH"
);
}
);
width = 600;
},
{
associatedMasterId = "9F5B1694-2A59-45B7-91CA-438A6316E2AD";
background = {
paths = (
{
closed = 1;
nodes = (
"77 1 OFFCURVE",
"128 -11 OFFCURVE",
"182 -11 CURVE SMOOTH",
"231 -11 OFFCURVE",
"279 0 OFFCURVE",
"320 19 CURVE",
"361 0 OFFCURVE",
"409 -11 OFFCURVE",
"458 -11 CURVE SMOOTH",
"512 -11 OFFCURVE",
"563 1 OFFCURVE",
"600 22 CURVE",
"584 62 LINE",
"549 46 OFFCURVE",
"507 36 OFFCURVE",
"463 36 CURVE SMOOTH",
"431 36 OFFCURVE",
"401 41 OFFCURVE",
"373 51 CURVE",
"428 93 OFFCURVE",
"463 153 OFFCURVE",
"463 224 CURVE SMOOTH",
"463 306 OFFCURVE",
"400 362 OFFCURVE",
"320 362 CURVE SMOOTH",
"240 362 OFFCURVE",
"177 306 OFFCURVE",
"177 224 CURVE SMOOTH",
"177 153 OFFCURVE",
"212 93 OFFCURVE",
"267 51 CURVE",
"239 41 OFFCURVE",
"209 36 OFFCURVE",
"177 36 CURVE SMOOTH",
"133 36 OFFCURVE",
"91 46 OFFCURVE",
"56 62 CURVE",
"40 22 LINE"
);
},
{
closed = 1;
nodes = (
"237 281 OFFCURVE",
"273 316 OFFCURVE",
"320 316 CURVE SMOOTH",
"367 316 OFFCURVE",
"403 281 OFFCURVE",
"403 224 CURVE SMOOTH",
"403 160 OFFCURVE",
"370 109 OFFCURVE",
"320 76 CURVE",
"270 109 OFFCURVE",
"237 160 OFFCURVE",
"237 224 CURVE SMOOTH"
);
}
);
};
backgroundImage = {
crop = "{{0, 0}, {476.88, 163.91999999999999}}";
imagePath = venuri_symb/35_hie.jpg;
locked = "1";
transform = "{7, 0, 0, 7, -2626, -214}";
};
layerId = "FBC3501B-A3C1-4267-B163-BFA421B1890E";
name = "Regular May 17 16, 16:55";
paths = (
{
closed = 1;
nodes = (
"234 -11 OFFCURVE",
"279 0 OFFCURVE",
"320 19 CURVE",
"361 0 OFFCURVE",
"406 -11 OFFCURVE",
"455 -11 CURVE SMOOTH",
"509 -11 OFFCURVE",
"563 4 OFFCURVE",
"600 32 CURVE",
"584 72 LINE",
"549 49 OFFCURVE",
"504 36 OFFCURVE",
"460 36 CURVE SMOOTH",
"428 36 OFFCURVE",
"401 40 OFFCURVE",
"373 50 CURVE",
"373 52 LINE",
"425 89 OFFCURVE",
"463 153 OFFCURVE",
"463 224 CURVE SMOOTH",
"463 306 OFFCURVE",
"400 362 OFFCURVE",
"320 362 CURVE",
"240 362 OFFCURVE",
"177 306 OFFCURVE",
"177 224 CURVE SMOOTH",
"177 153 OFFCURVE",
"215 89 OFFCURVE",
"267 52 CURVE",
"267 50 LINE",
"239 40 OFFCURVE",
"212 36 OFFCURVE",
"180 36 CURVE SMOOTH",
"136 36 OFFCURVE",
"91 49 OFFCURVE",
"56 72 CURVE",
"40 32 LINE",
"77 4 OFFCURVE",
"131 -11 OFFCURVE",
"185 -11 CURVE SMOOTH"
);
},
{
closed = 1;
nodes = (
"269 111 OFFCURVE",
"237 160 OFFCURVE",
"237 224 CURVE SMOOTH",
"237 280 OFFCURVE",
"273 316 OFFCURVE",
"320 316 CURVE",
"367 316 OFFCURVE",
"403 280 OFFCURVE",
"403 224 CURVE SMOOTH",
"403 160 OFFCURVE",
"371 111 OFFCURVE",
"321 76 CURVE",
"319 76 LINE"
);
}
);
width = 640;
}
);
unicode = 10F2;
},
{
glyphname = "we-georgian";
lastChange = "2016-05-21 11:47:36 +0000";
layers = (
{
background = {
paths = (
{
closed = 1;
nodes = (
"321 102 LINE",
"393 102 OFFCURVE",
"446 43 OFFCURVE",
"446 -38 CURVE SMOOTH",
"446 -194 LINE SMOOTH",
"446 -284 OFFCURVE",
"378 -372 OFFCURVE",
"258 -372 CURVE SMOOTH",
"135 -372 OFFCURVE",
"50 -299 OFFCURVE",
"50 -213 CURVE SMOOTH",
"50 -141 OFFCURVE",
"106 -83 OFFCURVE",
"130 -68 CURVE",
"156 -89 LINE",
"134 -110 OFFCURVE",
"108 -143 OFFCURVE",
"108 -196 CURVE SMOOTH",
"108 -282 OFFCURVE",
"179 -326 OFFCURVE",
"258 -326 CURVE SMOOTH",
"334 -326 OFFCURVE",
"390 -270 OFFCURVE",
"390 -188 CURVE SMOOTH",
"390 -39 LINE SMOOTH",
"390 25 OFFCURVE",
"351 68 OFFCURVE",
"295 68 CURVE SMOOTH",
"279 68 OFFCURVE",
"261 65 OFFCURVE",
"242 57 CURVE",
"237 73 LINE",
"280 95 OFFCURVE",
"343 151 OFFCURVE",
"343 280 CURVE",
"343 314 OFFCURVE",
"343 338 OFFCURVE",
"315 383 CURVE",
"334 406 LINE",
"357 390 OFFCURVE",
"403 362 OFFCURVE",
"403 280 CURVE",
"403 242 OFFCURVE",
"399 173 OFFCURVE",
"321 104 CURVE"
);
}
);
};
backgroundImage = {
crop = "{{0, 0}, {453.35999999999996, 175.44}}";
imagePath = venuri_symb/36_we.jpg;
locked = "1";
transform = "{7, 0, 0, 7, -928, -568}";
};
layerId = "9F5B1694-2A59-45B7-91CA-438A6316E2AD";
paths = (
{
closed = 1;
nodes = (
"378 -372 OFFCURVE",
"446 -284 OFFCURVE",
"446 -194 CURVE",
"446 -65 LINE",
"446 32 OFFCURVE",
"391 93 OFFCURVE",
"267 93 CURVE",
"266 95 LINE",
"455 338 LINE",
"455 350 LINE",
"108 350 LINE",
"108 304 LINE",
"375 304 LINE",
"210 88 LINE",
"210 54 LINE",
"261 54 LINE",
"348 54 OFFCURVE",
"390 23 OFFCURVE",
"390 -66 CURVE",
"390 -188 LINE",
"390 -270 OFFCURVE",
"334 -326 OFFCURVE",
"258 -326 CURVE SMOOTH",
"179 -326 OFFCURVE",
"118 -282 OFFCURVE",
"118 -192 CURVE",
"118 -127 OFFCURVE",
"160 -87 OFFCURVE",
"190 -56 CURVE",
"190 -122 LINE",
"90 -37 LINE",
"154 -40 LINE",
"122 -56 OFFCURVE",
"60 -109 OFFCURVE",
"60 -203 CURVE",
"60 -299 OFFCURVE",
"135 -372 OFFCURVE",
"258 -372 CURVE SMOOTH"
);
}
);
width = 525;
},
{
associatedMasterId = "9F5B1694-2A59-45B7-91CA-438A6316E2AD";
background = {
paths = (
{
closed = 1;
nodes = (
"321 102 LINE",
"393 102 OFFCURVE",
"446 43 OFFCURVE",
"446 -38 CURVE SMOOTH",
"446 -194 LINE SMOOTH",
"446 -284 OFFCURVE",
"378 -372 OFFCURVE",
"258 -372 CURVE SMOOTH",
"135 -372 OFFCURVE",
"50 -299 OFFCURVE",
"50 -213 CURVE SMOOTH",
"50 -141 OFFCURVE",
"106 -83 OFFCURVE",
"130 -68 CURVE",
"156 -89 LINE",
"134 -110 OFFCURVE",
"108 -143 OFFCURVE",
"108 -196 CURVE SMOOTH",
"108 -282 OFFCURVE",
"179 -326 OFFCURVE",
"258 -326 CURVE SMOOTH",
"334 -326 OFFCURVE",
"390 -270 OFFCURVE",
"390 -188 CURVE SMOOTH",
"390 -39 LINE SMOOTH",
"390 25 OFFCURVE",
"351 68 OFFCURVE",
"295 68 CURVE SMOOTH",
"279 68 OFFCURVE",
"261 65 OFFCURVE",
"242 57 CURVE",
"237 73 LINE",
"280 95 OFFCURVE",
"343 151 OFFCURVE",
"343 280 CURVE",
"343 314 OFFCURVE",
"343 338 OFFCURVE",
"315 383 CURVE",
"334 406 LINE",
"357 390 OFFCURVE",
"403 362 OFFCURVE",
"403 280 CURVE",
"403 242 OFFCURVE",
"399 173 OFFCURVE",
"321 104 CURVE"
);
}
);
};
backgroundImage = {
crop = "{{0, 0}, {453.35999999999996, 175.44}}";
imagePath = venuri_symb/36_we.jpg;
locked = "1";
transform = "{7, 0, 0, 7, -928, -568}";
};
layerId = "984B00AE-6C52-49E3-A358-EB91D686B275";
name = "Regular May 17 16, 16:58";
paths = (
{
closed = 1;
nodes = (
"283 96 LINE",
"284 94 LINE",
"297 98 OFFCURVE",
"311 100 OFFCURVE",
"326 100 CURVE SMOOTH",
"383 100 OFFCURVE",
"446 66 OFFCURVE",
"446 -38 CURVE SMOOTH",
"446 -194 LINE SMOOTH",
"446 -284 OFFCURVE",
"373 -372 OFFCURVE",
"253 -372 CURVE SMOOTH",
"130 -372 OFFCURVE",
"40 -299 OFFCURVE",
"40 -213 CURVE SMOOTH",
"40 -141 OFFCURVE",
"96 -83 OFFCURVE",
"120 -68 CURVE",
"146 -89 LINE",
"124 -110 OFFCURVE",
"98 -143 OFFCURVE",
"98 -196 CURVE SMOOTH",
"98 -282 OFFCURVE",
"174 -326 OFFCURVE",
"253 -326 CURVE SMOOTH",
"329 -326 OFFCURVE",
"390 -270 OFFCURVE",
"390 -188 CURVE SMOOTH",
"390 -39 LINE SMOOTH",
"390 50 OFFCURVE",
"340 68 OFFCURVE",
"299 68 CURVE SMOOTH",
"265 68 OFFCURVE",
"228 54 OFFCURVE",
"208 41 CURVE",
"198 51 LINE",
"375 304 LINE",
"108 304 LINE",
"108 350 LINE",
"465 350 LINE"
);
}
);
width = 525;
}
);
unicode = 10F3;
},
{
glyphname = "har-georgian";
lastChange = "2016-05-21 12:58:48 +0000";
layers = (
{
backgroundImage = {
crop = "{{0, 0}, {321.36000000000001, 175.68000000000001}}";
imagePath = venuri_symb/37_har.jpg;
locked = "1";
transform = "{7, 0, 0, 7, -38, -478}";
};
guideLines = (
{
position = "{148, 22}";
}
);
layerId = "9F5B1694-2A59-45B7-91CA-438A6316E2AD";
paths = (
{
closed = 1;
nodes = (
"413 586 LINE",
"410 526 LINE",
"387 549 OFFCURVE",
"353 566 OFFCURVE",
"314 566 CURVE SMOOTH",
"224 566 OFFCURVE",
"162 502 OFFCURVE",
"162 417 CURVE",
"162 262 OFFCURVE",
"339 296 OFFCURVE",
"339 157 CURVE SMOOTH",
"339 102 OFFCURVE",
"298 57 OFFCURVE",
"239 57 CURVE SMOOTH",
"201 57 LINE",
"201 11 LINE",
"246 11 LINE SMOOTH",
"307 11 OFFCURVE",
"366 -36 OFFCURVE",
"366 -127 CURVE",
"366 -178 LINE SMOOTH",
"366 -270 OFFCURVE",
"310 -326 OFFCURVE",
"234 -326 CURVE SMOOTH",
"155 -326 OFFCURVE",
"94 -282 OFFCURVE",
"94 -192 CURVE SMOOTH",
"94 -150 OFFCURVE",
"111 -119 OFFCURVE",
"132 -93 CURVE",
"97 -63 LINE",
"67 -90 OFFCURVE",
"36 -136 OFFCURVE",
"36 -203 CURVE SMOOTH",
"36 -299 OFFCURVE",
"111 -372 OFFCURVE",
"234 -372 CURVE SMOOTH",
"354 -372 OFFCURVE",
"422 -284 OFFCURVE",
"422 -184 CURVE SMOOTH",
"422 -126 LINE",
"422 -29 OFFCURVE",
"360 27 OFFCURVE",
"309 34 CURVE",
"309 36 LINE",
"360 56 OFFCURVE",
"395 93 OFFCURVE",
"395 164 CURVE SMOOTH",
"395 324 OFFCURVE",
"212 304 OFFCURVE",
"212 417 CURVE",
"212 473 OFFCURVE",
"247 520 OFFCURVE",
"314 520 CURVE SMOOTH",
"346 520 OFFCURVE",
"367 510 OFFCURVE",
"387 494 CURVE",
"340 471 LINE"
);
}
);
width = 486;
},
{
associatedMasterId = "9F5B1694-2A59-45B7-91CA-438A6316E2AD";
backgroundImage = {
crop = "{{0, 0}, {321.36000000000001, 175.68000000000001}}";
imagePath = venuri_symb/37_har.jpg;
locked = "1";
transform = "{7, 0, 0, 7, -38, -478}";
};
layerId = "D5388052-66FB-4043-91D6-24E2D982E69B";
name = "Regular May 21 16, 14:50";
paths = (
{
closed = 1;
nodes = (
"426 -23 OFFCURVE",
"372 40 OFFCURVE",
"324 40 CURVE",
"323 42 LINE",
"363 56 OFFCURVE",
"411 98 OFFCURVE",
"411 152 CURVE SMOOTH",
"411 265 OFFCURVE",
"249 260 OFFCURVE",
"249 350 CURVE",
"220 350 LINE",
"220 302 OFFCURVE",
"237 276 OFFCURVE",
"284 246 CURVE SMOOTH",
"337 212 OFFCURVE",
"351 192 OFFCURVE",
"351 151 CURVE SMOOTH",
"351 108 OFFCURVE",
"319 69 OFFCURVE",
"237 28 CURVE",
"251 16 LINE",
"260 18 OFFCURVE",
"268 19 OFFCURVE",
"276 19 CURVE SMOOTH",
"338 19 OFFCURVE",
"370 -47 OFFCURVE",
"370 -110 CURVE SMOOTH",
"370 -187 LINE SMOOTH",
"370 -269 OFFCURVE",
"319 -325 OFFCURVE",
"243 -325 CURVE SMOOTH",
"164 -325 OFFCURVE",
"98 -281 OFFCURVE",
"98 -195 CURVE SMOOTH",
"98 -142 OFFCURVE",
"124 -109 OFFCURVE",
"146 -88 CURVE",
"120 -67 LINE",
"96 -82 OFFCURVE",
"40 -140 OFFCURVE",
"40 -212 CURVE SMOOTH",
"40 -298 OFFCURVE",
"120 -371 OFFCURVE",
"243 -371 CURVE SMOOTH",
"363 -371 OFFCURVE",
"426 -283 OFFCURVE",
"426 -193 CURVE SMOOTH",
"426 -123 LINE"
);
}
);
width = 486;
}
);
unicode = 10F4;
},
{
glyphname = "hoe-georgian";
lastChange = "2016-05-17 14:05:45 +0000";
layers = (
{
backgroundImage = {
crop = "{{0, 0}, {466.31999999999999, 191}}";
imagePath = venuri_symb/38_hoe.jpg;
locked = "1";
transform = "{7, 0, 0, 7, -2327, -462}";
};
layerId = "9F5B1694-2A59-45B7-91CA-438A6316E2AD";
paths = (
{
closed = 1;
nodes = (
"76 635 OFFCURVE",
"111 676 OFFCURVE",
"153 676 CURVE",
"195 676 OFFCURVE",
"222 654 OFFCURVE",
"222 576 CURVE",
"222 434 LINE",
"159 434 LINE",
"117 434 OFFCURVE",
"76 476 OFFCURVE",
"76 556 CURVE"
);
},
{
closed = 1;
nodes = (
"278 276 LINE",
"445 276 LINE",
"445 322 LINE",
"278 322 LINE",
"278 388 LINE",
"445 388 LINE",
"445 434 LINE",
"278 434 LINE",
"278 594 LINE",
"278 678 OFFCURVE",
"228 722 OFFCURVE",
"152 722 CURVE",
"80 722 OFFCURVE",
"20 665 OFFCURVE",
"20 555 CURVE",
"20 445 OFFCURVE",
"84 388 OFFCURVE",
"152 388 CURVE",
"222 388 LINE",
"222 322 LINE",
"152 322 LINE",
"84 322 OFFCURVE",
"20 265 OFFCURVE",
"20 155 CURVE",
"20 45 OFFCURVE",
"80 -12 OFFCURVE",
"152 -12 CURVE",
"228 -12 OFFCURVE",
"278 32 OFFCURVE",
"278 116 CURVE"
);
},
{
closed = 1;
nodes = (
"222 56 OFFCURVE",
"195 34 OFFCURVE",
"153 34 CURVE",
"111 34 OFFCURVE",
"76 75 OFFCURVE",
"76 154 CURVE",
"76 234 OFFCURVE",
"117 276 OFFCURVE",
"159 276 CURVE",
"222 276 LINE",
"222 134 LINE"
);
}
);
width = 485;
},
{
associatedMasterId = "9F5B1694-2A59-45B7-91CA-438A6316E2AD";
backgroundImage = {
crop = "{{0, 0}, {466.31999999999999, 191}}";
imagePath = venuri_symb/38_hoe.jpg;
locked = "1";
transform = "{7, 0, 0, 7, -2327, -462}";
};
layerId = "40B2937B-2C1D-469F-8DD5-44C2955B4CE2";
name = "Regular May 17 16, 17:03";
paths = (
{
closed = 1;
nodes = (
"96 635 OFFCURVE",
"117 676 OFFCURVE",
"159 676 CURVE SMOOTH",
"201 676 OFFCURVE",
"222 635 OFFCURVE",
"222 556 CURVE",
"222 434 LINE",
"159 434 LINE",
"117 434 OFFCURVE",
"96 476 OFFCURVE",
"96 556 CURVE SMOOTH"
);
},
{
closed = 1;
nodes = (
"96 234 OFFCURVE",
"117 276 OFFCURVE",
"159 276 CURVE",
"222 276 LINE",
"222 154 LINE",
"222 75 OFFCURVE",
"201 34 OFFCURVE",
"159 34 CURVE SMOOTH",
"117 34 OFFCURVE",
"96 75 OFFCURVE",
"96 154 CURVE SMOOTH"
);
},
{
closed = 1;
nodes = (
"222 322 LINE",
"152 322 LINE",
"84 322 OFFCURVE",
"40 265 OFFCURVE",
"40 155 CURVE SMOOTH",
"40 45 OFFCURVE",
"86 -12 OFFCURVE",
"158 -12 CURVE SMOOTH",
"234 -12 OFFCURVE",
"278 40 OFFCURVE",
"278 125 CURVE",
"278 585 LINE",
"278 670 OFFCURVE",
"234 722 OFFCURVE",
"158 722 CURVE SMOOTH",
"86 722 OFFCURVE",
"40 665 OFFCURVE",
"40 555 CURVE SMOOTH",
"40 445 OFFCURVE",
"84 388 OFFCURVE",
"152 388 CURVE",
"222 388 LINE"
);
},
{
closed = 1;
nodes = (
"251 388 LINE",
"445 388 LINE",
"445 434 LINE",
"251 434 LINE"
);
},
{
closed = 1;
nodes = (
"251 276 LINE",
"445 276 LINE",
"445 322 LINE",
"251 322 LINE"
);
}
);
width = 485;
}
);
unicode = 10F5;
},
{
glyphname = "fi-georgian";
lastChange = "2016-05-21 11:50:01 +0000";
layers = (
{
background = {
paths = (
{
closed = 1;
nodes = (
"231 44 OFFCURVE",
"262 86 OFFCURVE",
"262 196 CURVE SMOOTH",
"262 275 OFFCURVE",
"231 316 OFFCURVE",
"189 316 CURVE SMOOTH",
"147 316 OFFCURVE",
"116 275 OFFCURVE",
"116 196 CURVE SMOOTH",
"116 86 OFFCURVE",
"147 44 OFFCURVE",
"189 44 CURVE SMOOTH"
);
},
{
closed = 1;
nodes = (
"433 44 OFFCURVE",
"464 86 OFFCURVE",
"464 196 CURVE SMOOTH",
"464 275 OFFCURVE",
"433 316 OFFCURVE",
"391 316 CURVE SMOOTH",
"349 316 OFFCURVE",
"318 275 OFFCURVE",
"318 196 CURVE SMOOTH",
"318 86 OFFCURVE",
"349 44 OFFCURVE",
"391 44 CURVE SMOOTH"
);
},
{
closed = 1;
nodes = (
"262 37 LINE",
"260 37 LINE",
"243 12 OFFCURVE",
"208 -2 OFFCURVE",
"182 -2 CURVE SMOOTH",
"114 -2 OFFCURVE",
"60 55 OFFCURVE",
"60 195 CURVE SMOOTH",
"60 305 OFFCURVE",
"117 362 OFFCURVE",
"189 362 CURVE SMOOTH",
"232 362 OFFCURVE",
"267 344 OFFCURVE",
"290 309 CURVE",
"313 344 OFFCURVE",
"348 362 OFFCURVE",
"391 362 CURVE SMOOTH",
"463 362 OFFCURVE",
"520 305 OFFCURVE",
"520 195 CURVE SMOOTH",
"520 85 OFFCURVE",
"466 -2 OFFCURVE",
"398 -2 CURVE SMOOTH",
"372 -2 OFFCURVE",
"337 12 OFFCURVE",
"320 37 CURVE",
"318 37 LINE",
"318 -239 LINE SMOOTH",
"318 -291 OFFCURVE",
"293 -346 OFFCURVE",
"211 -346 CURVE SMOOTH",
"152 -346 OFFCURVE",
"104 -313 OFFCURVE",
"104 -246 CURVE SMOOTH",
"104 -224 OFFCURVE",
"109 -200 OFFCURVE",
"119 -172 CURVE",
"164 -181 LINE",
"157 -201 OFFCURVE",
"154 -220 OFFCURVE",
"154 -236 CURVE SMOOTH",
"154 -278 OFFCURVE",
"177 -300 OFFCURVE",
"211 -300 CURVE SMOOTH",
"259 -300 OFFCURVE",
"262 -263 OFFCURVE",
"262 -228 CURVE SMOOTH"
);
}
);
};
backgroundImage = {
crop = "{{0, 0}, {433, 147.84}}";
imagePath = venuri_symb/39_fi.jpg;
locked = "1";
transform = "{7, 0, 0, 7, -1396, -179}";
};
guideLines = (
{
position = "{674, 200}";
},
{
position = "{669, 512}";
}
);
layerId = "9F5B1694-2A59-45B7-91CA-438A6316E2AD";
paths = (
{
closed = 1;
nodes = (
"147 44 OFFCURVE",
"116 86 OFFCURVE",
"116 196 CURVE",
"116 274 OFFCURVE",
"147 316 OFFCURVE",
"189 316 CURVE SMOOTH",
"231 316 OFFCURVE",
"262 274 OFFCURVE",
"262 196 CURVE",
"262 86 OFFCURVE",
"231 44 OFFCURVE",
"189 44 CURVE SMOOTH"
);
},
{
closed = 0;
nodes = (
"317 196 LINE"
);
},
{
closed = 1;
nodes = (
"350 44 OFFCURVE",
"319 86 OFFCURVE",
"319 196 CURVE",
"319 274 OFFCURVE",
"350 316 OFFCURVE",
"392 316 CURVE SMOOTH",
"434 316 OFFCURVE",
"465 274 OFFCURVE",
"465 196 CURVE",
"465 86 OFFCURVE",
"434 44 OFFCURVE",
"392 44 CURVE SMOOTH"
);
},
{
closed = 1;
nodes = (
"262 323 LINE",
"260 323 LINE",
"243 348 OFFCURVE",
"208 362 OFFCURVE",
"182 362 CURVE SMOOTH",
"114 362 OFFCURVE",
"60 294 OFFCURVE",
"60 196 CURVE",
"60 56 OFFCURVE",
"114 -2 OFFCURVE",
"182 -2 CURVE SMOOTH",
"208 -2 OFFCURVE",
"243 12 OFFCURVE",
"260 37 CURVE",
"262 37 LINE",
"262 -228 LINE SMOOTH",
"262 -263 OFFCURVE",
"259 -300 OFFCURVE",
"211 -300 CURVE SMOOTH",
"177 -300 OFFCURVE",
"154 -278 OFFCURVE",
"154 -236 CURVE SMOOTH",
"154 -211 OFFCURVE",
"158 -180 OFFCURVE",
"178 -148 CURVE",
"208 -190 LINE",
"77 -162 LINE",
"139 -134 LINE",
"113 -177 OFFCURVE",
"104 -215 OFFCURVE",
"104 -246 CURVE SMOOTH",
"104 -313 OFFCURVE",
"152 -346 OFFCURVE",
"211 -346 CURVE SMOOTH",
"293 -346 OFFCURVE",
"318 -291 OFFCURVE",
"318 -239 CURVE SMOOTH",
"318 37 LINE",
"321 37 LINE",
"338 12 OFFCURVE",
"373 -2 OFFCURVE",
"399 -2 CURVE SMOOTH",
"467 -2 OFFCURVE",
"521 56 OFFCURVE",
"521 196 CURVE",
"521 294 OFFCURVE",
"467 362 OFFCURVE",
"399 362 CURVE SMOOTH",
"373 362 OFFCURVE",
"338 348 OFFCURVE",
"321 323 CURVE",
"318 323 LINE",
"318 604 LINE",
"318 639 OFFCURVE",
"321 676 OFFCURVE",
"369 676 CURVE SMOOTH",
"403 676 OFFCURVE",
"426 654 OFFCURVE",
"426 612 CURVE SMOOTH",
"426 587 OFFCURVE",
"422 556 OFFCURVE",
"402 524 CURVE",
"372 566 LINE",
"503 538 LINE",
"441 510 LINE",
"467 553 OFFCURVE",
"476 591 OFFCURVE",
"476 622 CURVE SMOOTH",
"476 689 OFFCURVE",
"428 722 OFFCURVE",
"369 722 CURVE SMOOTH",
"287 722 OFFCURVE",
"262 667 OFFCURVE",
"262 615 CURVE"
);
}
);
width = 580;
},
{
associatedMasterId = "9F5B1694-2A59-45B7-91CA-438A6316E2AD";
backgroundImage = {
crop = "{{0, 0}, {433, 147.84}}";
imagePath = venuri_symb/39_fi.jpg;
locked = "1";
transform = "{7, 0, 0, 7, -2361, -187}";
};
guideLines = (
{
position = "{405, 200}";
},
{
position = "{405, 512}";
}
);
layerId = "4A1083BC-0F9B-4FE5-9889-D0DA33394040";
name = "Regular Apr 30 16, 12:20";
paths = (
{
closed = 1;
nodes = (
"300 276 OFFCURVE",
"315 207 OFFCURVE",
"315 150 CURVE SMOOTH",
"315 74 OFFCURVE",
"284 20 OFFCURVE",
"248 20 CURVE SMOOTH",
"218 20 OFFCURVE",
"217 46 OFFCURVE",
"217 59 CURVE",
"160 54 LINE",
"160 20 OFFCURVE",
"184 -12 OFFCURVE",
"243 -12 CURVE SMOOTH",
"312 -12 OFFCURVE",
"372 63 OFFCURVE",
"372 178 CURVE SMOOTH",
"372 233 OFFCURVE",
"357 299 OFFCURVE",
"318 369 CURVE SMOOTH",
"281 435 OFFCURVE",
"265 503 OFFCURVE",
"265 560 CURVE SMOOTH",
"265 636 OFFCURVE",
"296 690 OFFCURVE",
"332 690 CURVE SMOOTH",
"362 690 OFFCURVE",
"363 664 OFFCURVE",
"363 651 CURVE",
"420 656 LINE",
"420 690 OFFCURVE",
"396 722 OFFCURVE",
"337 722 CURVE SMOOTH",
"268 722 OFFCURVE",
"208 647 OFFCURVE",
"208 532 CURVE SMOOTH",
"208 477 OFFCURVE",
"222 410 OFFCURVE",
"262 341 CURVE SMOOTH"
);
},
{
closed = 1;
nodes = (
"600 266 OFFCURVE",
"662 199 OFFCURVE",
"744 199 CURVE",
"826 199 OFFCURVE",
"888 266 OFFCURVE",
"888 356 CURVE SMOOTH",
"888 446 OFFCURVE",
"826 513 OFFCURVE",
"744 513 CURVE",
"662 513 OFFCURVE",
"600 446 OFFCURVE",
"600 356 CURVE SMOOTH"
);
},
{
closed = 1;
nodes = (
"660 419 OFFCURVE",
"696 467 OFFCURVE",
"744 467 CURVE SMOOTH",
"792 467 OFFCURVE",
"828 419 OFFCURVE",
"828 355 CURVE SMOOTH",
"828 292 OFFCURVE",
"792 245 OFFCURVE",
"744 245 CURVE SMOOTH",
"696 245 OFFCURVE",
"660 292 OFFCURVE",
"660 355 CURVE SMOOTH"
);
}
);
width = 600;
},
{
associatedMasterId = "9F5B1694-2A59-45B7-91CA-438A6316E2AD";
backgroundImage = {
crop = "{{0, 0}, {433, 147.84}}";
imagePath = venuri_symb/39_fi.jpg;
locked = "1";
transform = "{7, 0, 0, 7, -2361, -187}";
};
guideLines = (
{
position = "{405, 200}";
},
{
position = "{405, 512}";
}
);
layerId = "02127348-FC92-44CA-B14A-CA37BCEDD9AF";
name = "Regular Apr 30 16, 12:23";
paths = (
{
closed = 1;
nodes = (
"300 276 OFFCURVE",
"315 207 OFFCURVE",
"315 150 CURVE SMOOTH",
"315 74 OFFCURVE",
"284 20 OFFCURVE",
"248 20 CURVE SMOOTH",
"218 20 OFFCURVE",
"217 46 OFFCURVE",
"217 59 CURVE",
"160 54 LINE",
"160 20 OFFCURVE",
"184 -12 OFFCURVE",
"243 -12 CURVE SMOOTH",
"312 -12 OFFCURVE",
"372 63 OFFCURVE",
"372 178 CURVE SMOOTH",
"372 233 OFFCURVE",
"357 299 OFFCURVE",
"318 369 CURVE SMOOTH",
"281 435 OFFCURVE",
"265 503 OFFCURVE",
"265 560 CURVE SMOOTH",
"265 636 OFFCURVE",
"296 690 OFFCURVE",
"332 690 CURVE SMOOTH",
"362 690 OFFCURVE",
"363 664 OFFCURVE",
"363 651 CURVE",
"420 656 LINE",
"420 690 OFFCURVE",
"396 722 OFFCURVE",
"337 722 CURVE SMOOTH",
"268 722 OFFCURVE",
"208 647 OFFCURVE",
"208 532 CURVE SMOOTH",
"208 477 OFFCURVE",
"222 410 OFFCURVE",
"262 341 CURVE SMOOTH"
);
},
{
closed = 1;
nodes = (
"274 275 OFFCURVE",
"346 199 OFFCURVE",
"433 199 CURVE",
"510 199 OFFCURVE",
"564 258 OFFCURVE",
"564 339 CURVE SMOOTH",
"564 437 OFFCURVE",
"493 513 OFFCURVE",
"406 513 CURVE",
"329 513 OFFCURVE",
"274 454 OFFCURVE",
"274 373 CURVE SMOOTH"
);
},
{
closed = 1;
nodes = (
"334 425 OFFCURVE",
"365 467 OFFCURVE",
"410 467 CURVE SMOOTH",
"462 467 OFFCURVE",
"504 411 OFFCURVE",
"504 340 CURVE SMOOTH",
"504 285 OFFCURVE",
"473 245 OFFCURVE",
"429 245 CURVE SMOOTH",
"378 245 OFFCURVE",
"334 299 OFFCURVE",
"334 368 CURVE SMOOTH"
);
},
{
closed = 1;
nodes = (
"14 275 OFFCURVE",
"86 199 OFFCURVE",
"173 199 CURVE",
"250 199 OFFCURVE",
"304 258 OFFCURVE",
"304 339 CURVE SMOOTH",
"304 437 OFFCURVE",
"233 513 OFFCURVE",
"146 513 CURVE",
"69 513 OFFCURVE",
"14 454 OFFCURVE",
"14 373 CURVE SMOOTH"
);
},
{
closed = 1;
nodes = (
"74 425 OFFCURVE",
"105 467 OFFCURVE",
"150 467 CURVE SMOOTH",
"202 467 OFFCURVE",
"244 411 OFFCURVE",
"244 340 CURVE SMOOTH",
"244 285 OFFCURVE",
"213 245 OFFCURVE",
"169 245 CURVE SMOOTH",
"118 245 OFFCURVE",
"74 299 OFFCURVE",
"74 368 CURVE SMOOTH"
);
}
);
width = 600;
},
{
associatedMasterId = "9F5B1694-2A59-45B7-91CA-438A6316E2AD";
background = {
paths = (
{
closed = 1;
nodes = (
"40 255 OFFCURVE",
"110 179 OFFCURVE",
"197 179 CURVE SMOOTH",
"247 179 OFFCURVE",
"285 220 OFFCURVE",
"301 274 CURVE",
"316 231 OFFCURVE",
"323 188 OFFCURVE",
"323 150 CURVE SMOOTH",
"323 74 OFFCURVE",
"292 20 OFFCURVE",
"256 20 CURVE SMOOTH",
"226 20 OFFCURVE",
"225 46 OFFCURVE",
"225 59 CURVE",
"168 54 LINE",
"168 20 OFFCURVE",
"192 -12 OFFCURVE",
"251 -12 CURVE SMOOTH",
"320 -12 OFFCURVE",
"380 63 OFFCURVE",
"380 178 CURVE SMOOTH",
"380 190 OFFCURVE",
"379 203 OFFCURVE",
"377 217 CURVE",
"395 206 OFFCURVE",
"415 199 OFFCURVE",
"437 199 CURVE SMOOTH",
"509 199 OFFCURVE",
"563 258 OFFCURVE",
"563 339 CURVE SMOOTH",
"563 437 OFFCURVE",
"493 513 OFFCURVE",
"406 513 CURVE SMOOTH",
"357 513 OFFCURVE",
"319 472 OFFCURVE",
"302 419 CURVE",
"282 468 OFFCURVE",
"273 517 OFFCURVE",
"273 560 CURVE SMOOTH",
"273 636 OFFCURVE",
"304 690 OFFCURVE",
"340 690 CURVE SMOOTH",
"370 690 OFFCURVE",
"371 664 OFFCURVE",
"371 651 CURVE",
"428 656 LINE",
"428 690 OFFCURVE",
"404 722 OFFCURVE",
"345 722 CURVE SMOOTH",
"276 722 OFFCURVE",
"216 647 OFFCURVE",
"216 532 CURVE SMOOTH",
"216 515 OFFCURVE",
"217 497 OFFCURVE",
"220 478 CURVE",
"204 487 OFFCURVE",
"186 493 OFFCURVE",
"166 493 CURVE SMOOTH",
"94 493 OFFCURVE",
"40 434 OFFCURVE",
"40 353 CURVE SMOOTH"
);
},
{
closed = 1;
nodes = (
"100 407 OFFCURVE",
"131 447 OFFCURVE",
"175 447 CURVE SMOOTH",
"226 447 OFFCURVE",
"270 393 OFFCURVE",
"270 324 CURVE SMOOTH",
"270 267 OFFCURVE",
"239 225 OFFCURVE",
"194 225 CURVE SMOOTH",
"142 225 OFFCURVE",
"100 281 OFFCURVE",
"100 352 CURVE SMOOTH"
);
},
{
closed = 1;
nodes = (
"333 425 OFFCURVE",
"364 467 OFFCURVE",
"409 467 CURVE SMOOTH",
"461 467 OFFCURVE",
"503 411 OFFCURVE",
"503 340 CURVE SMOOTH",
"503 285 OFFCURVE",
"472 245 OFFCURVE",
"428 245 CURVE SMOOTH",
"377 245 OFFCURVE",
"333 299 OFFCURVE",
"333 368 CURVE SMOOTH"
);
}
);
};
backgroundImage = {
crop = "{{0, 0}, {433, 147.84}}";
imagePath = venuri_symb/39_fi.jpg;
locked = "1";
transform = "{7, 0, 0, 7, -1383, -179}";
};
guideLines = (
{
position = "{687, 200}";
},
{
position = "{682, 512}";
}
);
layerId = "17F96FD7-3389-4DB4-A4C4-A602DCB7A99C";
name = "Regular May 17 16, 20:38";
paths = (
{
closed = 1;
nodes = (
"40 255 OFFCURVE",
"110 179 OFFCURVE",
"197 179 CURVE SMOOTH",
"257 179 OFFCURVE",
"291 220 OFFCURVE",
"300 274 CURVE",
"302 274 LINE",
"317 231 OFFCURVE",
"323 188 OFFCURVE",
"323 150 CURVE SMOOTH",
"323 74 OFFCURVE",
"292 20 OFFCURVE",
"256 20 CURVE SMOOTH",
"226 20 OFFCURVE",
"225 46 OFFCURVE",
"225 59 CURVE",
"168 54 LINE",
"168 20 OFFCURVE",
"192 -12 OFFCURVE",
"251 -12 CURVE SMOOTH",
"320 -12 OFFCURVE",
"380 63 OFFCURVE",
"380 178 CURVE SMOOTH",
"380 190 OFFCURVE",
"379 204 OFFCURVE",
"376 216 CURVE",
"378 217 LINE",
"394 207 OFFCURVE",
"415 199 OFFCURVE",
"437 199 CURVE SMOOTH",
"509 199 OFFCURVE",
"563 258 OFFCURVE",
"563 339 CURVE SMOOTH",
"563 437 OFFCURVE",
"493 513 OFFCURVE",
"406 513 CURVE SMOOTH",
"347 513 OFFCURVE",
"312 471 OFFCURVE",
"303 419 CURVE",
"301 419 LINE",
"282 466 OFFCURVE",
"273 517 OFFCURVE",
"273 560 CURVE SMOOTH",
"273 636 OFFCURVE",
"304 690 OFFCURVE",
"340 690 CURVE SMOOTH",
"370 690 OFFCURVE",
"371 664 OFFCURVE",
"371 651 CURVE",
"428 656 LINE",
"428 690 OFFCURVE",
"404 722 OFFCURVE",
"345 722 CURVE SMOOTH",
"276 722 OFFCURVE",
"216 647 OFFCURVE",
"216 532 CURVE SMOOTH",
"216 515 OFFCURVE",
"217 496 OFFCURVE",
"221 479 CURVE",
"219 478 LINE",
"207 486 OFFCURVE",
"186 493 OFFCURVE",
"166 493 CURVE SMOOTH",
"94 493 OFFCURVE",
"40 435 OFFCURVE",
"40 353 CURVE SMOOTH"
);
},
{
closed = 1;
nodes = (
"100 407 OFFCURVE",
"131 447 OFFCURVE",
"175 447 CURVE SMOOTH",
"226 447 OFFCURVE",
"270 393 OFFCURVE",
"270 324 CURVE SMOOTH",
"270 267 OFFCURVE",
"239 225 OFFCURVE",
"194 225 CURVE SMOOTH",
"142 225 OFFCURVE",
"100 281 OFFCURVE",
"100 352 CURVE SMOOTH"
);
},
{
closed = 1;
nodes = (
"333 425 OFFCURVE",
"364 467 OFFCURVE",
"409 467 CURVE SMOOTH",
"461 467 OFFCURVE",
"503 411 OFFCURVE",
"503 340 CURVE SMOOTH",
"503 285 OFFCURVE",
"472 245 OFFCURVE",
"428 245 CURVE SMOOTH",
"377 245 OFFCURVE",
"333 299 OFFCURVE",
"333 368 CURVE SMOOTH"
);
}
);
width = 603;
}
);
unicode = 10F6;
},
{
glyphname = "yn-georgian";
lastChange = "2016-05-21 12:34:53 +0000";
layers = (
{
guideLines = (
{
position = "{200, 213}";
}
);
layerId = "9F5B1694-2A59-45B7-91CA-438A6316E2AD";
paths = (
{
closed = 1;
nodes = (
"103 -82 OFFCURVE",
"145 -42 OFFCURVE",
"201 -11 CURVE SMOOTH",
"281 34 OFFCURVE",
"399 71 OFFCURVE",
"399 213 CURVE",
"399 298 OFFCURVE",
"332 362 OFFCURVE",
"242 362 CURVE SMOOTH",
"152 362 OFFCURVE",
"85 298 OFFCURVE",
"85 213 CURVE",
"85 139 OFFCURVE",
"141 85 OFFCURVE",
"149 78 CURVE",
"95 78 LINE",
"217 139 LINE",
"196 94 LINE",
"165 129 OFFCURVE",
"145 166 OFFCURVE",
"145 213 CURVE SMOOTH",
"145 269 OFFCURVE",
"175 316 OFFCURVE",
"242 316 CURVE SMOOTH",
"309 316 OFFCURVE",
"339 269 OFFCURVE",
"339 213 CURVE SMOOTH",
"339 104 OFFCURVE",
"251 73 OFFCURVE",
"176 32 CURVE SMOOTH",
"108 -5 OFFCURVE",
"43 -64 OFFCURVE",
"43 -157 CURVE",
"43 -315 OFFCURVE",
"171 -372 OFFCURVE",
"264 -372 CURVE SMOOTH",
"357 -372 OFFCURVE",
"485 -315 OFFCURVE",
"485 -157 CURVE",
"485 -27 OFFCURVE",
"382 19 OFFCURVE",
"375 24 CURVE",
"435 27 LINE",
"336 -55 LINE",
"344 -2 LINE",
"359 -22 OFFCURVE",
"425 -47 OFFCURVE",
"425 -158 CURVE",
"425 -282 OFFCURVE",
"328 -326 OFFCURVE",
"264 -326 CURVE SMOOTH",
"199 -326 OFFCURVE",
"103 -282 OFFCURVE",
"103 -158 CURVE"
);
}
);
width = 600;
}
);
unicode = 10F7;
},
{
glyphname = "elifi-georgian";
lastChange = "2016-05-21 11:45:09 +0000";
layers = (
{
layerId = "9F5B1694-2A59-45B7-91CA-438A6316E2AD";
paths = (
{
closed = 1;
nodes = (
"426 -136 OFFCURVE",
"395 -90 OFFCURVE",
"365 -63 CURVE",
"330 -93 LINE",
"351 -119 OFFCURVE",
"368 -150 OFFCURVE",
"368 -192 CURVE SMOOTH",
"368 -282 OFFCURVE",
"307 -326 OFFCURVE",
"228 -326 CURVE SMOOTH",
"152 -326 OFFCURVE",
"96 -270 OFFCURVE",
"96 -188 CURVE SMOOTH",
"96 160 LINE",
"98 160 LINE",
"125 121 OFFCURVE",
"167 101 OFFCURVE",
"217 101 CURVE SMOOTH",
"302 101 OFFCURVE",
"374 166 OFFCURVE",
"374 249 CURVE SMOOTH",
"374 287 OFFCURVE",
"362 323 OFFCURVE",
"345 350 CURVE",
"289 350 LINE",
"304 322 OFFCURVE",
"314 288 OFFCURVE",
"314 249 CURVE SMOOTH",
"314 178 OFFCURVE",
"262 147 OFFCURVE",
"210 147 CURVE SMOOTH",
"144 147 OFFCURVE",
"96 198 OFFCURVE",
"96 289 CURVE SMOOTH",
"96 350 LINE",
"40 350 LINE",
"40 -194 LINE SMOOTH",
"40 -284 OFFCURVE",
"108 -372 OFFCURVE",
"228 -372 CURVE SMOOTH",
"351 -372 OFFCURVE",
"426 -299 OFFCURVE",
"426 -203 CURVE SMOOTH"
);
}
);
width = 486;
},
{
associatedMasterId = "9F5B1694-2A59-45B7-91CA-438A6316E2AD";
layerId = "1D8203B2-CD7B-49CB-834A-380147CF0B23";
name = "Regular May 21 16, 14:44";
paths = (
{
closed = 1;
nodes = (
"98 170 LINE",
"125 131 OFFCURVE",
"167 111 OFFCURVE",
"217 111 CURVE",
"302 111 OFFCURVE",
"374 175 OFFCURVE",
"374 258 CURVE",
"374 304 OFFCURVE",
"357 339 OFFCURVE",
"348 350 CURVE",
"292 350 LINE",
"300 339 OFFCURVE",
"314 300 OFFCURVE",
"314 259 CURVE",
"314 188 OFFCURVE",
"262 157 OFFCURVE",
"210 157 CURVE",
"144 157 OFFCURVE",
"96 208 OFFCURVE",
"96 299 CURVE",
"96 350 LINE",
"40 350 LINE",
"40 -194 LINE",
"40 -284 OFFCURVE",
"108 -372 OFFCURVE",
"228 -372 CURVE SMOOTH",
"351 -372 OFFCURVE",
"436 -299 OFFCURVE",
"436 -203 CURVE",
"436 -124 OFFCURVE",
"394 -81 OFFCURVE",
"375 -66 CURVE",
"340 -93 LINE",
"356 -110 OFFCURVE",
"378 -139 OFFCURVE",
"378 -192 CURVE",
"378 -282 OFFCURVE",
"307 -326 OFFCURVE",
"228 -326 CURVE SMOOTH",
"152 -326 OFFCURVE",
"96 -270 OFFCURVE",
"96 -188 CURVE",
"96 170 LINE"
);
}
);
width = 496;
}
);
unicode = 10F8;
},
{
glyphname = "turnedgan-georgian";
lastChange = "2016-05-21 11:44:31 +0000";
layers = (
{
layerId = "9F5B1694-2A59-45B7-91CA-438A6316E2AD";
paths = (
{
closed = 1;
nodes = (
"158 362 OFFCURVE",
"30 305 OFFCURVE",
"30 147 CURVE",
"30 -1 OFFCURVE",
"180 -76 OFFCURVE",
"190 -84 CURVE",
"190 -239 LINE",
"190 -311 OFFCURVE",
"244 -372 OFFCURVE",
"333 -372 CURVE SMOOTH",
"410 -372 OFFCURVE",
"485 -321 OFFCURVE",
"485 -233 CURVE",
"485 -173 OFFCURVE",
"456 -133 OFFCURVE",
"439 -118 CURVE",
"397 -139 LINE",
"418 -167 OFFCURVE",
"429 -197 OFFCURVE",
"429 -233 CURVE SMOOTH",
"429 -278 OFFCURVE",
"402 -326 OFFCURVE",
"335 -326 CURVE SMOOTH",
"282 -326 OFFCURVE",
"246 -294 OFFCURVE",
"246 -221 CURVE SMOOTH",
"246 -98 LINE",
"286 -74 OFFCURVE",
"472 -21 OFFCURVE",
"472 147 CURVE",
"472 305 OFFCURVE",
"344 362 OFFCURVE",
"251 362 CURVE SMOOTH"
);
},
{
closed = 1;
nodes = (
"316 316 OFFCURVE",
"412 272 OFFCURVE",
"412 148 CURVE",
"412 7 OFFCURVE",
"248 -40 OFFCURVE",
"227 -52 CURVE",
"209 -37 OFFCURVE",
"90 31 OFFCURVE",
"90 148 CURVE",
"90 272 OFFCURVE",
"187 316 OFFCURVE",
"251 316 CURVE SMOOTH"
);
}
);
width = 515;
},
{
associatedMasterId = "9F5B1694-2A59-45B7-91CA-438A6316E2AD";
layerId = "E3B646E0-AF11-4C39-AFD8-244B65095D07";
name = "Regular May 21 16, 14:44";
paths = (
{
closed = 1;
nodes = (
"168 362 OFFCURVE",
"40 305 OFFCURVE",
"40 147 CURVE",
"40 -1 OFFCURVE",
"190 -76 OFFCURVE",
"200 -84 CURVE",
"200 -239 LINE",
"200 -311 OFFCURVE",
"254 -372 OFFCURVE",
"337 -372 CURVE SMOOTH",
"420 -372 OFFCURVE",
"495 -311 OFFCURVE",
"495 -213 CURVE",
"495 -153 OFFCURVE",
"473 -113 OFFCURVE",
"449 -98 CURVE",
"407 -119 LINE",
"428 -147 OFFCURVE",
"439 -173 OFFCURVE",
"439 -213 CURVE SMOOTH",
"439 -268 OFFCURVE",
"412 -326 OFFCURVE",
"339 -326 CURVE SMOOTH",
"292 -326 OFFCURVE",
"256 -294 OFFCURVE",
"256 -221 CURVE SMOOTH",
"256 -98 LINE",
"296 -74 OFFCURVE",
"482 -21 OFFCURVE",
"482 147 CURVE",
"482 305 OFFCURVE",
"354 362 OFFCURVE",
"261 362 CURVE SMOOTH"
);
},
{
closed = 1;
nodes = (
"326 316 OFFCURVE",
"422 272 OFFCURVE",
"422 148 CURVE",
"422 7 OFFCURVE",
"258 -40 OFFCURVE",
"237 -52 CURVE",
"219 -37 OFFCURVE",
"100 31 OFFCURVE",
"100 148 CURVE",
"100 272 OFFCURVE",
"197 316 OFFCURVE",
"261 316 CURVE SMOOTH"
);
}
);
width = 535;
}
);
unicode = 10F9;
},
{
glyphname = "ain-georgian";
lastChange = "2016-05-21 12:33:22 +0000";
layers = (
{
guideLines = (
{
position = "{263, 244}";
}
);
layerId = "9F5B1694-2A59-45B7-91CA-438A6316E2AD";
paths = (
{
closed = 1;
nodes = (
"125 362 OFFCURVE",
"60 278 OFFCURVE",
"60 191 CURVE SMOOTH",
"60 72 OFFCURVE",
"129 -7 OFFCURVE",
"191 -48 CURVE",
"191 -50 LINE",
"164 -50 OFFCURVE",
"137 -54 OFFCURVE",
"112 -60 CURVE",
"112 -107 LINE",
"153 -94 OFFCURVE",
"172 -88 OFFCURVE",
"206 -88 CURVE SMOOTH",
"270 -88 OFFCURVE",
"300 -113 OFFCURVE",
"342 -169 CURVE",
"386 -137 LINE",
"342 -70 OFFCURVE",
"291 -54 OFFCURVE",
"243 -27 CURVE SMOOTH",
"173 12 OFFCURVE",
"116 85 OFFCURVE",
"116 184 CURVE SMOOTH",
"116 265 OFFCURVE",
"169 316 OFFCURVE",
"235 316 CURVE",
"301 316 OFFCURVE",
"354 265 OFFCURVE",
"354 184 CURVE SMOOTH",
"354 125 OFFCURVE",
"324 67 OFFCURVE",
"296 40 CURVE",
"267 82 LINE",
"393 16 LINE",
"337 21 LINE",
"372 50 OFFCURVE",
"414 121 OFFCURVE",
"414 193 CURVE SMOOTH",
"414 278 OFFCURVE",
"345 362 OFFCURVE",
"235 362 CURVE"
);
}
);
width = 474;
},
{
associatedMasterId = "9F5B1694-2A59-45B7-91CA-438A6316E2AD";
layerId = "E3B60A72-4EA2-4B9D-971C-6374E654BF51";
name = "Regular May 21 16, 15:11";
paths = (
{
closed = 1;
nodes = (
"206 276 OFFCURVE",
"254 316 OFFCURVE",
"320 316 CURVE SMOOTH",
"385 316 OFFCURVE",
"425 274 OFFCURVE",
"438 204 CURVE",
"485 219 LINE",
"474 297 OFFCURVE",
"422 362 OFFCURVE",
"320 362 CURVE SMOOTH",
"210 362 OFFCURVE",
"150 290 OFFCURVE",
"150 193 CURVE SMOOTH",
"150 146 OFFCURVE",
"155 60 OFFCURVE",
"271 12 CURVE",
"271 10 LINE",
"244 10 OFFCURVE",
"217 6 OFFCURVE",
"192 0 CURVE",
"192 -47 LINE",
"233 -34 OFFCURVE",
"252 -28 OFFCURVE",
"286 -28 CURVE SMOOTH",
"350 -28 OFFCURVE",
"380 -53 OFFCURVE",
"422 -109 CURVE",
"466 -77 LINE",
"422 -10 OFFCURVE",
"374 12 OFFCURVE",
"323 33 CURVE SMOOTH",
"253 62 OFFCURVE",
"206 98 OFFCURVE",
"206 197 CURVE SMOOTH"
);
},
{
closed = 0;
nodes = (
"746 316 LINE SMOOTH",
"813 316 OFFCURVE",
"859 265 OFFCURVE",
"859 184 CURVE SMOOTH",
"859 136 OFFCURVE",
"837 86 OFFCURVE",
"814 58 CURVE",
"861 34 LINE",
"890 69 OFFCURVE",
"919 132 OFFCURVE",
"919 193 CURVE SMOOTH",
"919 278 OFFCURVE",
"853 362 OFFCURVE",
"753 362 CURVE SMOOTH"
);
}
);
width = 1196;
}
);
unicode = 10FA;
},
{
glyphname = "aen-georgian";
lastChange = "2016-05-21 15:44:30 +0000";
layers = (
{
layerId = "9F5B1694-2A59-45B7-91CA-438A6316E2AD";
paths = (
{
closed = 1;
nodes = (
"425 -282 OFFCURVE",
"329 -326 OFFCURVE",
"264 -326 CURVE SMOOTH",
"200 -326 OFFCURVE",
"103 -282 OFFCURVE",
"103 -158 CURVE",
"103 -47 OFFCURVE",
"169 -22 OFFCURVE",
"184 -2 CURVE",
"192 -55 LINE",
"93 27 LINE",
"153 24 LINE",
"146 19 OFFCURVE",
"43 -27 OFFCURVE",
"43 -157 CURVE",
"43 -315 OFFCURVE",
"171 -372 OFFCURVE",
"264 -372 CURVE SMOOTH",
"357 -372 OFFCURVE",
"485 -315 OFFCURVE",
"485 -157 CURVE",
"485 -64 OFFCURVE",
"420 -5 OFFCURVE",
"352 32 CURVE SMOOTH",
"277 73 OFFCURVE",
"189 104 OFFCURVE",
"189 213 CURVE SMOOTH",
"189 269 OFFCURVE",
"219 316 OFFCURVE",
"286 316 CURVE SMOOTH",
"353 316 OFFCURVE",
"383 269 OFFCURVE",
"383 213 CURVE SMOOTH",
"383 166 OFFCURVE",
"363 129 OFFCURVE",
"332 94 CURVE",
"311 139 LINE",
"433 78 LINE",
"379 78 LINE",
"387 85 OFFCURVE",
"443 139 OFFCURVE",
"443 213 CURVE",
"443 298 OFFCURVE",
"376 362 OFFCURVE",
"286 362 CURVE SMOOTH",
"196 362 OFFCURVE",
"129 298 OFFCURVE",
"129 213 CURVE",
"129 71 OFFCURVE",
"247 34 OFFCURVE",
"327 -11 CURVE SMOOTH",
"383 -42 OFFCURVE",
"425 -82 OFFCURVE",
"425 -158 CURVE"
);
}
);
width = 600;
}
);
unicode = 10FD;
},
{
glyphname = "man-georgian.case";
lastChange = "2016-04-05 19:31:35 +0000";
layers = (
{
layerId = "9F5B1694-2A59-45B7-91CA-438A6316E2AD";
paths = (
{
closed = 1;
nodes = (
"47 503 OFFCURVE",
"61 458 OFFCURVE",
"90 425 CURVE",
"139 451 LINE",
"124 475 OFFCURVE",
"110 504 OFFCURVE",
"110 546 CURVE SMOOTH",
"110 610 OFFCURVE",
"163 652 OFFCURVE",
"231 652 CURVE SMOOTH",
"305 652 OFFCURVE",
"353 596 OFFCURVE",
"353 518 CURVE SMOOTH",
"353 303 LINE",
"351 303 LINE",
"324 341 OFFCURVE",
"277 362 OFFCURVE",
"225 362 CURVE SMOOTH",
"127 362 OFFCURVE",
"45 284 OFFCURVE",
"45 175 CURVE SMOOTH",
"45 65 OFFCURVE",
"128 -12 OFFCURVE",
"231 -12 CURVE SMOOTH",
"333 -12 OFFCURVE",
"413 64 OFFCURVE",
"413 175 CURVE SMOOTH",
"413 521 LINE SMOOTH",
"413 612 OFFCURVE",
"350 702 OFFCURVE",
"231 702 CURVE SMOOTH",
"114 702 OFFCURVE",
"47 625 OFFCURVE",
"47 549 CURVE SMOOTH"
);
},
{
closed = 1;
nodes = (
"110 260 OFFCURVE",
"165 312 OFFCURVE",
"232 312 CURVE SMOOTH",
"298 312 OFFCURVE",
"353 259 OFFCURVE",
"353 174 CURVE SMOOTH",
"353 92 OFFCURVE",
"298 38 OFFCURVE",
"232 38 CURVE SMOOTH",
"165 38 OFFCURVE",
"110 91 OFFCURVE",
"110 174 CURVE SMOOTH"
);
}
);
width = 480;
}
);
},
{
glyphname = "nar-georgian.salt";
lastChange = "2016-04-19 18:39:25 +0000";
layers = (
{
guideLines = (
{
angle = 90;
position = "{404, 175}";
}
);
layerId = "9F5B1694-2A59-45B7-91CA-438A6316E2AD";
paths = (
{
closed = 1;
nodes = (
"96 712 OFFCURVE",
"60 650 OFFCURVE",
"60 560 CURVE SMOOTH",
"60 175 LINE SMOOTH",
"60 72 OFFCURVE",
"125 -12 OFFCURVE",
"231 -12 CURVE SMOOTH",
"337 -12 OFFCURVE",
"404 72 OFFCURVE",
"404 175 CURVE SMOOTH",
"404 278 OFFCURVE",
"337 362 OFFCURVE",
"237 362 CURVE SMOOTH",
"187 362 OFFCURVE",
"145 342 OFFCURVE",
"118 303 CURVE",
"116 303 LINE",
"116 554 LINE SMOOTH",
"116 636 OFFCURVE",
"140 660 OFFCURVE",
"187 660 CURVE SMOOTH",
"233 660 OFFCURVE",
"255 642 OFFCURVE",
"303 642 CURVE SMOOTH",
"342 642 OFFCURVE",
"372 650 OFFCURVE",
"405 678 CURVE",
"380 718 LINE",
"358 702 OFFCURVE",
"319 696 OFFCURVE",
"303 696 CURVE SMOOTH",
"258 696 OFFCURVE",
"237 712 OFFCURVE",
"191 712 CURVE SMOOTH"
);
},
{
closed = 1;
nodes = (
"344 88 OFFCURVE",
"297 34 OFFCURVE",
"230 34 CURVE SMOOTH",
"164 34 OFFCURVE",
"116 88 OFFCURVE",
"116 174 CURVE SMOOTH",
"116 265 OFFCURVE",
"164 316 OFFCURVE",
"230 316 CURVE SMOOTH",
"297 316 OFFCURVE",
"344 265 OFFCURVE",
"344 174 CURVE SMOOTH"
);
}
);
width = 446;
}
);
},
{
glyphname = "shin-georgian.salt";
lastChange = "2016-04-19 18:39:06 +0000";
layers = (
{
layerId = "9F5B1694-2A59-45B7-91CA-438A6316E2AD";
paths = (
{
closed = 1;
nodes = (
"6 657 LINE",
"20 667 OFFCURVE",
"39 676 OFFCURVE",
"60 676 CURVE SMOOTH",
"109 676 OFFCURVE",
"126 641 OFFCURVE",
"126 582 CURVE SMOOTH",
"126 480 LINE",
"182 480 LINE",
"182 582 LINE SMOOTH",
"182 644 OFFCURVE",
"205 676 OFFCURVE",
"249 676 CURVE SMOOTH",
"293 676 OFFCURVE",
"316 644 OFFCURVE",
"316 582 CURVE SMOOTH",
"316 303 LINE",
"314 303 LINE",
"287 342 OFFCURVE",
"245 362 OFFCURVE",
"195 362 CURVE SMOOTH",
"95 362 OFFCURVE",
"28 278 OFFCURVE",
"28 175 CURVE SMOOTH",
"28 72 OFFCURVE",
"95 -12 OFFCURVE",
"201 -12 CURVE SMOOTH",
"307 -12 OFFCURVE",
"372 72 OFFCURVE",
"372 175 CURVE SMOOTH",
"372 582 LINE SMOOTH",
"372 670 OFFCURVE",
"327 722 OFFCURVE",
"255 722 CURVE SMOOTH",
"219 722 OFFCURVE",
"172 698 OFFCURVE",
"155 657 CURVE",
"153 657 LINE",
"136 698 OFFCURVE",
"99 722 OFFCURVE",
"60 722 CURVE SMOOTH",
"28 722 OFFCURVE",
"1 714 OFFCURVE",
"-20 699 CURVE"
);
},
{
closed = 1;
nodes = (
"88 265 OFFCURVE",
"135 316 OFFCURVE",
"202 316 CURVE SMOOTH",
"268 316 OFFCURVE",
"316 265 OFFCURVE",
"316 174 CURVE SMOOTH",
"316 88 OFFCURVE",
"268 34 OFFCURVE",
"202 34 CURVE SMOOTH",
"135 34 OFFCURVE",
"88 88 OFFCURVE",
"88 174 CURVE SMOOTH"
);
}
);
width = 432;
}
);
},
{
glyphname = "narMod-georgian";
lastChange = "2016-05-21 17:12:33 +0000";
layers = (
{
guideLines = (
{
position = "{498, 624}";
},
{
angle = 90;
position = "{198, 222}";
},
{
angle = 90;
position = "{407, 161}";
}
);
layerId = "9F5B1694-2A59-45B7-91CA-438A6316E2AD";
paths = (
{
closed = 1;
nodes = (
"237 722 OFFCURVE",
"209 690 OFFCURVE",
"209 644 CURVE SMOOTH",
"209 456 LINE SMOOTH",
"209 398 OFFCURVE",
"252 350 OFFCURVE",
"307 350 CURVE SMOOTH",
"361 350 OFFCURVE",
"406 398 OFFCURVE",
"406 456 CURVE SMOOTH",
"406 514 OFFCURVE",
"361 562 OFFCURVE",
"310 562 CURVE SMOOTH",
"284 562 OFFCURVE",
"263 552 OFFCURVE",
"249 532 CURVE",
"248 532 LINE",
"248 630 LINE SMOOTH",
"248 673 OFFCURVE",
"260 685 OFFCURVE",
"284 685 CURVE SMOOTH",
"308 685 OFFCURVE",
"319 676 OFFCURVE",
"344 676 CURVE SMOOTH",
"364 676 OFFCURVE",
"379 680 OFFCURVE",
"396 694 CURVE",
"383 725 LINE",
"372 716 OFFCURVE",
"352 713 OFFCURVE",
"344 713 CURVE SMOOTH",
"321 713 OFFCURVE",
"310 722 OFFCURVE",
"286 722 CURVE SMOOTH"
);
},
{
closed = 1;
nodes = (
"365 406 OFFCURVE",
"341 384 OFFCURVE",
"306 384 CURVE SMOOTH",
"272 384 OFFCURVE",
"248 406 OFFCURVE",
"248 455 CURVE SMOOTH",
"248 507 OFFCURVE",
"272 528 OFFCURVE",
"306 528 CURVE SMOOTH",
"341 528 OFFCURVE",
"365 507 OFFCURVE",
"365 455 CURVE SMOOTH"
);
}
);
width = 600;
}
);
unicode = 10FC;
},
{
glyphname = "hardsign-georgian";
lastChange = "2016-05-21 15:49:26 +0000";
layers = (
{
layerId = "9F5B1694-2A59-45B7-91CA-438A6316E2AD";
paths = (
{
closed = 1;
nodes = (
"131 362 OFFCURVE",
"77 347 OFFCURVE",
"40 319 CURVE",
"56 279 LINE",
"91 302 OFFCURVE",
"136 315 OFFCURVE",
"180 315 CURVE SMOOTH",
"212 315 OFFCURVE",
"242 311 OFFCURVE",
"270 301 CURVE",
"270 299 LINE",
"196 262 OFFCURVE",
"157 208 OFFCURVE",
"157 137 CURVE SMOOTH",
"157 45 OFFCURVE",
"240 -11 OFFCURVE",
"320 -11 CURVE",
"400 -11 OFFCURVE",
"483 45 OFFCURVE",
"483 137 CURVE SMOOTH",
"483 208 OFFCURVE",
"442 262 OFFCURVE",
"370 299 CURVE",
"370 301 LINE",
"398 311 OFFCURVE",
"428 315 OFFCURVE",
"460 315 CURVE SMOOTH",
"504 315 OFFCURVE",
"549 302 OFFCURVE",
"584 279 CURVE",
"600 319 LINE",
"563 347 OFFCURVE",
"509 362 OFFCURVE",
"455 362 CURVE SMOOTH",
"406 362 OFFCURVE",
"361 348 OFFCURVE",
"320 329 CURVE",
"279 348 OFFCURVE",
"234 362 OFFCURVE",
"185 362 CURVE SMOOTH"
);
},
{
closed = 1;
nodes = (
"321 278 LINE",
"391 243 OFFCURVE",
"423 201 OFFCURVE",
"423 137 CURVE SMOOTH",
"423 71 OFFCURVE",
"367 35 OFFCURVE",
"320 35 CURVE",
"273 35 OFFCURVE",
"217 71 OFFCURVE",
"217 137 CURVE SMOOTH",
"217 201 OFFCURVE",
"247 243 OFFCURVE",
"319 278 CURVE"
);
}
);
width = 640;
}
);
unicode = 10FE;
},
{
glyphname = "labialsign-georgian";
lastChange = "2016-04-05 19:57:05 +0000";
layers = (
{
layerId = "9F5B1694-2A59-45B7-91CA-438A6316E2AD";
paths = (
{
closed = 1;
nodes = (
"40 72 OFFCURVE",
"107 -12 OFFCURVE",
"214 -12 CURVE",
"321 -12 OFFCURVE",
"388 72 OFFCURVE",
"388 175 CURVE SMOOTH",
"388 281 OFFCURVE",
"321 362 OFFCURVE",
"214 362 CURVE",
"109 362 OFFCURVE",
"40 284 OFFCURVE",
"40 175 CURVE SMOOTH"
);
},
{
closed = 1;
nodes = (
"100 265 OFFCURVE",
"147 316 OFFCURVE",
"214 316 CURVE SMOOTH",
"281 316 OFFCURVE",
"328 265 OFFCURVE",
"328 174 CURVE SMOOTH",
"328 88 OFFCURVE",
"281 34 OFFCURVE",
"214 34 CURVE SMOOTH",
"147 34 OFFCURVE",
"100 88 OFFCURVE",
"100 174 CURVE SMOOTH"
);
}
);
width = 428;
}
);
unicode = 10FF;
},
{
glyphname = comma;
lastChange = "2016-05-21 16:40:21 +0000";
layers = (
{
backgroundImage = {
crop = "{{0, 0}, {191.75999999999999, 152.63999999999999}}";
imagePath = venuri_symb/mdzime.jpg;
locked = "1";
transform = "{7, 0, 0, 7, -913, -292}";
};
layerId = "9F5B1694-2A59-45B7-91CA-438A6316E2AD";
paths = (
{
closed = 1;
nodes = (
"83 -209 LINE",
"91 -198 OFFCURVE",
"165 -82 OFFCURVE",
"170 -73 CURVE SMOOTH",
"195 -28 OFFCURVE",
"204 5 OFFCURVE",
"204 31 CURVE SMOOTH",
"204 87 OFFCURVE",
"173 126 OFFCURVE",
"124 126 CURVE SMOOTH",
"86 126 OFFCURVE",
"50 95 OFFCURVE",
"50 57 CURVE SMOOTH",
"50 19 OFFCURVE",
"81 -12 OFFCURVE",
"119 -12 CURVE SMOOTH",
"130 -12 OFFCURVE",
"140 -10 OFFCURVE",
"149 -5 CURVE",
"152 -7 OFFCURVE",
"155 -9 OFFCURVE",
"155 -20 CURVE SMOOTH",
"155 -30 OFFCURVE",
"139 -59 OFFCURVE",
"130 -73 CURVE SMOOTH",
"122 -86 OFFCURVE",
"61 -181 OFFCURVE",
"55 -190 CURVE"
);
}
);
width = 254;
}
);
unicode = 002C;
},
{
glyphname = exclam;
lastChange = "2016-05-21 16:48:08 +0000";
layers = (
{
layerId = "9F5B1694-2A59-45B7-91CA-438A6316E2AD";
paths = (
{
closed = 1;
nodes = (
"157 -18 OFFCURVE",
"188 13 OFFCURVE",
"188 51 CURVE SMOOTH",
"188 89 OFFCURVE",
"157 120 OFFCURVE",
"119 120 CURVE SMOOTH",
"81 120 OFFCURVE",
"50 89 OFFCURVE",
"50 51 CURVE SMOOTH",
"50 13 OFFCURVE",
"81 -18 OFFCURVE",
"119 -18 CURVE SMOOTH"
);
},
{
closed = 1;
nodes = (
"92 191 LINE",
"148 191 LINE",
"160 710 LINE",
"80 710 LINE"
);
}
);
width = 238;
}
);
unicode = 0021;
},
{
glyphname = period;
lastChange = "2016-05-21 17:07:45 +0000";
layers = (
{
backgroundImage = {
crop = "{{0, 0}, {109.67999999999999, 77.519999999999996}}";
imagePath = venuri_symb/certili.jpg;
locked = "1";
transform = "{7, 0, 0, 7, -437, -84}";
};
layerId = "9F5B1694-2A59-45B7-91CA-438A6316E2AD";
paths = (
{
closed = 1;
nodes = (
"157 -12 OFFCURVE",
"188 19 OFFCURVE",
"188 57 CURVE SMOOTH",
"188 95 OFFCURVE",
"157 126 OFFCURVE",
"119 126 CURVE SMOOTH",
"81 126 OFFCURVE",
"50 95 OFFCURVE",
"50 57 CURVE SMOOTH",
"50 19 OFFCURVE",
"81 -12 OFFCURVE",
"119 -12 CURVE SMOOTH"
);
}
);
width = 238;
}
);
unicode = 002E;
},
